<svg xmlns="http://www.w3.org/2000/svg" xmlns:xlink="http://www.w3.org/1999/xlink" width="500" zoomAndPan="magnify" viewBox="0 0 375 374.999991" height="500" preserveAspectRatio="xMidYMid meet" version="1.0"><defs><g/><clipPath id="c11bbb9f80"><path d="M 5.066406 0 L 374.816406 0 L 374.816406 369.75 L 5.066406 369.75 Z M 5.066406 0 " clip-rule="nonzero"/></clipPath><clipPath id="07fca717c7"><path d="M 190.027344 0 C 87.878906 0 5.066406 82.8125 5.066406 184.960938 C 5.066406 287.113281 87.878906 369.925781 190.027344 369.925781 C 292.179688 369.925781 374.992188 287.113281 374.992188 184.960938 C 374.992188 82.8125 292.179688 0 190.027344 0 Z M 190.027344 0 " clip-rule="nonzero"/></clipPath></defs><g clip-path="url(#c11bbb9f80)"><g clip-path="url(#07fca717c7)"><path stroke-linecap="butt" transform="matrix(0.75, 0, 0, 0.75, 5.066292, 0.000000000000021316)" fill="none" stroke-linejoin="miter" d="M 246.614768 -0.000000000000028422 C 110.416833 -0.000000000000028422 0.000152217 110.416681 0.000152217 246.614615 C 0.000152217 382.817758 110.416833 493.234439 246.614768 493.234439 C 382.81791 493.234439 493.234591 382.817758 493.234591 246.614615 C 493.234591 110.416681 382.81791 -0.000000000000028422 246.614768 -0.000000000000028422 Z M 246.614768 -0.000000000000028422 " stroke="#1225b0" stroke-width="8" stroke-opacity="1" stroke-miterlimit="4"/></g></g><g fill="#0108a0" fill-opacity="1"><g transform="translate(41.708927, 234.374985)"><g><path d="M 23.359375 0 L 11.34375 0 L 11.34375 -88.796875 L 23.359375 -88.796875 Z M 23.359375 0 "/></g></g></g><g fill="#0108a0" fill-opacity="1"><g transform="translate(76.411394, 234.374985)"><g><path d="M 37.546875 -42.765625 C 40.984375 -42.765625 44.007812 -43.21875 46.625 -44.125 C 49.25 -45.03125 51.457031 -46.296875 53.25 -47.921875 C 55.050781 -49.554688 56.40625 -51.507812 57.3125 -53.78125 C 58.226562 -56.0625 58.6875 -58.5625 58.6875 -61.28125 C 58.6875 -66.945312 56.941406 -71.367188 53.453125 -74.546875 C 49.960938 -77.722656 44.660156 -79.3125 37.546875 -79.3125 L 23.296875 -79.3125 L 23.296875 -42.765625 Z M 37.546875 -88.796875 C 43.171875 -88.796875 48.054688 -88.144531 52.203125 -86.84375 C 56.359375 -85.539062 59.796875 -83.691406 62.515625 -81.296875 C 65.242188 -78.898438 67.28125 -76.007812 68.625 -72.625 C 69.96875 -69.238281 70.640625 -65.457031 70.640625 -61.28125 C 70.640625 -57.15625 69.914062 -53.375 68.46875 -49.9375 C 67.03125 -46.507812 64.914062 -43.554688 62.125 -41.078125 C 59.332031 -38.609375 55.878906 -36.679688 51.765625 -35.296875 C 47.660156 -33.910156 42.921875 -33.21875 37.546875 -33.21875 L 23.296875 -33.21875 L 23.296875 0 L 11.34375 0 L 11.34375 -88.796875 Z M 37.546875 -88.796875 "/></g></g></g><g fill="#0108a0" fill-opacity="1"><g transform="translate(150.835773, 234.374985)"><g><path d="M 58.5 -32.96875 L 44.5625 -69.09375 C 44.144531 -70.164062 43.707031 -71.414062 43.25 -72.84375 C 42.800781 -74.269531 42.367188 -75.789062 41.953125 -77.40625 C 41.085938 -74.050781 40.195312 -71.257812 39.28125 -69.03125 L 25.34375 -32.96875 Z M 83.53125 0 L 74.234375 0 C 73.160156 0 72.289062 -0.265625 71.625 -0.796875 C 70.96875 -1.335938 70.476562 -2.019531 70.15625 -2.84375 L 61.84375 -24.296875 L 22 -24.296875 L 13.6875 -2.84375 C 13.445312 -2.101562 12.972656 -1.441406 12.265625 -0.859375 C 11.566406 -0.285156 10.703125 0 9.671875 0 L 0.375 0 L 35.875 -88.796875 L 48.03125 -88.796875 Z M 83.53125 0 "/></g></g></g><g fill="#0108a0" fill-opacity="1"><g transform="translate(234.741354, 234.374985)"><g/></g></g><g fill="#0108a0" fill-opacity="1"><g transform="translate(266.469318, 234.374985)"><g><path d="M 35.8125 -8.1875 C 38.789062 -8.1875 41.488281 -8.660156 43.90625 -9.609375 C 46.320312 -10.554688 48.382812 -11.875 50.09375 -13.5625 C 51.8125 -15.257812 53.132812 -17.265625 54.0625 -19.578125 C 55 -21.890625 55.46875 -24.410156 55.46875 -27.140625 C 55.46875 -30.035156 55.007812 -32.648438 54.09375 -34.984375 C 53.1875 -37.316406 51.894531 -39.296875 50.21875 -40.921875 C 48.550781 -42.554688 46.5625 -43.804688 44.25 -44.671875 C 41.9375 -45.546875 39.394531 -45.984375 36.625 -45.984375 C 33.644531 -45.984375 30.957031 -45.472656 28.5625 -44.453125 C 26.164062 -43.441406 24.128906 -42.078125 22.453125 -40.359375 C 20.785156 -38.648438 19.507812 -36.671875 18.625 -34.421875 C 17.738281 -32.171875 17.296875 -29.828125 17.296875 -27.390625 C 17.296875 -24.535156 17.707031 -21.929688 18.53125 -19.578125 C 19.351562 -17.222656 20.5625 -15.195312 22.15625 -13.5 C 23.75 -11.8125 25.691406 -10.503906 27.984375 -9.578125 C 30.273438 -8.648438 32.882812 -8.1875 35.8125 -8.1875 Z M 29.375 -55.53125 C 28.59375 -54.53125 27.835938 -53.566406 27.109375 -52.640625 C 26.390625 -51.710938 25.695312 -50.796875 25.03125 -49.890625 C 27.144531 -51.328125 29.457031 -52.4375 31.96875 -53.21875 C 34.488281 -54.007812 37.238281 -54.40625 40.21875 -54.40625 C 43.8125 -54.40625 47.195312 -53.816406 50.375 -52.640625 C 53.5625 -51.460938 56.34375 -49.75 58.71875 -47.5 C 61.09375 -45.25 62.984375 -42.476562 64.390625 -39.1875 C 65.796875 -35.90625 66.5 -32.160156 66.5 -27.953125 C 66.5 -23.859375 65.753906 -20.054688 64.265625 -16.546875 C 62.773438 -13.035156 60.695312 -9.976562 58.03125 -7.375 C 55.363281 -4.769531 52.160156 -2.722656 48.421875 -1.234375 C 44.691406 0.242188 40.570312 0.984375 36.0625 0.984375 C 31.601562 0.984375 27.554688 0.273438 23.921875 -1.140625 C 20.285156 -2.566406 17.195312 -4.59375 14.65625 -7.21875 C 12.113281 -9.84375 10.148438 -13.023438 8.765625 -16.765625 C 7.378906 -20.503906 6.6875 -24.6875 6.6875 -29.3125 C 6.6875 -33.195312 7.546875 -37.335938 9.265625 -41.734375 C 10.984375 -46.128906 13.71875 -50.828125 17.46875 -55.828125 L 40.03125 -86.140625 C 40.613281 -86.878906 41.410156 -87.503906 42.421875 -88.015625 C 43.429688 -88.535156 44.597656 -88.796875 45.921875 -88.796875 L 55.703125 -88.796875 Z M 29.375 -55.53125 "/></g></g></g></svg>