<svg xmlns="http://www.w3.org/2000/svg" xmlns:xlink="http://www.w3.org/1999/xlink" width="500" zoomAndPan="magnify" viewBox="0 0 375 374.999991" height="500" preserveAspectRatio="xMidYMid meet" version="1.0"><defs><g/><clipPath id="e3c67cd09e"><path d="M 5.066406 0 L 374.816406 0 L 374.816406 369.75 L 5.066406 369.75 Z M 5.066406 0 " clip-rule="nonzero"/></clipPath><clipPath id="8d844f0069"><path d="M 190.027344 0 C 87.878906 0 5.066406 82.8125 5.066406 184.960938 C 5.066406 287.113281 87.878906 369.925781 190.027344 369.925781 C 292.179688 369.925781 374.992188 287.113281 374.992188 184.960938 C 374.992188 82.8125 292.179688 0 190.027344 0 Z M 190.027344 0 " clip-rule="nonzero"/></clipPath><clipPath id="81b761248f"><path d="M 47.371094 65.839844 L 333 65.839844 L 333 164.277344 L 47.371094 164.277344 Z M 47.371094 65.839844 " clip-rule="nonzero"/></clipPath><clipPath id="97545372cb"><path d="M 190.03125 65.839844 L 332.695312 164.277344 L 47.371094 164.277344 Z M 190.03125 65.839844 " clip-rule="nonzero"/></clipPath></defs><g clip-path="url(#e3c67cd09e)"><g clip-path="url(#8d844f0069)"><path stroke-linecap="butt" transform="matrix(0.75, 0, 0, 0.75, 5.066292, 0.000000000000021316)" fill="none" stroke-linejoin="miter" d="M 246.614768 -0.000000000000028422 C 110.416833 -0.000000000000028422 0.000152217 110.416681 0.000152217 246.614615 C 0.000152217 382.817758 110.416833 493.234439 246.614768 493.234439 C 382.81791 493.234439 493.234591 382.817758 493.234591 246.614615 C 493.234591 110.416681 382.81791 -0.000000000000028422 246.614768 -0.000000000000028422 Z M 246.614768 -0.000000000000028422 " stroke="#38b6ff" stroke-width="8" stroke-opacity="1" stroke-miterlimit="4"/></g></g><g clip-path="url(#81b761248f)"><g clip-path="url(#97545372cb)"><path fill="#38b6ff" d="M 47.371094 65.839844 L 332.6875 65.839844 L 332.6875 164.277344 L 47.371094 164.277344 Z M 47.371094 65.839844 " fill-opacity="1" fill-rule="nonzero"/></g></g><g fill="#000000" fill-opacity="1"><g transform="translate(41.927085, 242.671415)"><g><path d="M 29.859375 -4.890625 L 29.859375 0 L 5.484375 0 L 5.484375 -42.953125 L 11.265625 -42.953125 L 11.265625 -4.890625 Z M 29.859375 -4.890625 "/></g></g></g><g fill="#000000" fill-opacity="1"><g transform="translate(72.712766, 242.671415)"><g><path d="M 24.546875 -18.5 C 24.546875 -19.738281 24.367188 -20.867188 24.015625 -21.890625 C 23.671875 -22.921875 23.164062 -23.8125 22.5 -24.5625 C 21.832031 -25.3125 21.015625 -25.890625 20.046875 -26.296875 C 19.085938 -26.710938 18 -26.921875 16.78125 -26.921875 C 14.226562 -26.921875 12.207031 -26.175781 10.71875 -24.6875 C 9.226562 -23.195312 8.300781 -21.132812 7.9375 -18.5 Z M 28.875 -4.25 C 28.207031 -3.457031 27.414062 -2.765625 26.5 -2.171875 C 25.582031 -1.578125 24.597656 -1.09375 23.546875 -0.71875 C 22.492188 -0.34375 21.40625 -0.0625 20.28125 0.125 C 19.164062 0.320312 18.0625 0.421875 16.96875 0.421875 C 14.863281 0.421875 12.925781 0.0664062 11.15625 -0.640625 C 9.394531 -1.347656 7.867188 -2.382812 6.578125 -3.75 C 5.285156 -5.125 4.28125 -6.820312 3.5625 -8.84375 C 2.84375 -10.863281 2.484375 -13.179688 2.484375 -15.796875 C 2.484375 -17.910156 2.804688 -19.882812 3.453125 -21.71875 C 4.109375 -23.5625 5.046875 -25.15625 6.265625 -26.5 C 7.484375 -27.851562 8.972656 -28.914062 10.734375 -29.6875 C 12.492188 -30.457031 14.472656 -30.84375 16.671875 -30.84375 C 18.484375 -30.84375 20.164062 -30.535156 21.71875 -29.921875 C 23.269531 -29.316406 24.609375 -28.4375 25.734375 -27.28125 C 26.859375 -26.132812 27.738281 -24.71875 28.375 -23.03125 C 29.019531 -21.34375 29.34375 -19.421875 29.34375 -17.265625 C 29.34375 -16.421875 29.253906 -15.859375 29.078125 -15.578125 C 28.898438 -15.304688 28.5625 -15.171875 28.0625 -15.171875 L 7.765625 -15.171875 C 7.828125 -13.253906 8.09375 -11.582031 8.5625 -10.15625 C 9.03125 -8.738281 9.679688 -7.554688 10.515625 -6.609375 C 11.359375 -5.660156 12.359375 -4.953125 13.515625 -4.484375 C 14.679688 -4.015625 15.984375 -3.78125 17.421875 -3.78125 C 18.753906 -3.78125 19.90625 -3.929688 20.875 -4.234375 C 21.84375 -4.546875 22.675781 -4.878906 23.375 -5.234375 C 24.082031 -5.597656 24.671875 -5.9375 25.140625 -6.25 C 25.609375 -6.5625 26.007812 -6.71875 26.34375 -6.71875 C 26.789062 -6.71875 27.132812 -6.546875 27.375 -6.203125 Z M 28.875 -4.25 "/></g></g></g><g fill="#000000" fill-opacity="1"><g transform="translate(104.367761, 242.671415)"><g><path d="M 9.859375 -30.359375 L 9.859375 0 L 4.53125 0 L 4.53125 -30.359375 Z M 11 -39.90625 C 11 -39.382812 10.894531 -38.894531 10.6875 -38.4375 C 10.476562 -37.988281 10.195312 -37.585938 9.84375 -37.234375 C 9.5 -36.890625 9.085938 -36.617188 8.609375 -36.421875 C 8.140625 -36.222656 7.648438 -36.125 7.140625 -36.125 C 6.617188 -36.125 6.128906 -36.222656 5.671875 -36.421875 C 5.222656 -36.617188 4.828125 -36.890625 4.484375 -37.234375 C 4.148438 -37.585938 3.882812 -37.988281 3.6875 -38.4375 C 3.488281 -38.894531 3.390625 -39.382812 3.390625 -39.90625 C 3.390625 -40.414062 3.488281 -40.90625 3.6875 -41.375 C 3.882812 -41.851562 4.148438 -42.265625 4.484375 -42.609375 C 4.828125 -42.960938 5.222656 -43.238281 5.671875 -43.4375 C 6.128906 -43.632812 6.617188 -43.734375 7.140625 -43.734375 C 7.648438 -43.734375 8.140625 -43.632812 8.609375 -43.4375 C 9.085938 -43.238281 9.5 -42.960938 9.84375 -42.609375 C 10.195312 -42.265625 10.476562 -41.851562 10.6875 -41.375 C 10.894531 -40.90625 11 -40.414062 11 -39.90625 Z M 11 -39.90625 "/></g></g></g><g fill="#000000" fill-opacity="1"><g transform="translate(118.7564, 242.671415)"><g><path d="M 9.859375 -30.359375 L 9.859375 2.25 C 9.859375 3.46875 9.695312 4.597656 9.375 5.640625 C 9.0625 6.691406 8.554688 7.609375 7.859375 8.390625 C 7.160156 9.171875 6.265625 9.785156 5.171875 10.234375 C 4.078125 10.679688 2.773438 10.90625 1.265625 10.90625 C 0.617188 10.90625 0.03125 10.851562 -0.5 10.75 C -1.039062 10.65625 -1.582031 10.507812 -2.125 10.3125 L -1.921875 7.4375 C -1.878906 7.257812 -1.8125 7.125 -1.71875 7.03125 C -1.632812 6.9375 -1.507812 6.878906 -1.34375 6.859375 C -1.1875 6.835938 -0.984375 6.832031 -0.734375 6.84375 C -0.484375 6.851562 -0.171875 6.859375 0.203125 6.859375 C 1.765625 6.859375 2.875 6.492188 3.53125 5.765625 C 4.195312 5.035156 4.53125 3.863281 4.53125 2.25 L 4.53125 -30.359375 Z M 10.96875 -39.90625 C 10.96875 -39.382812 10.863281 -38.894531 10.65625 -38.4375 C 10.445312 -37.988281 10.164062 -37.585938 9.8125 -37.234375 C 9.46875 -36.890625 9.0625 -36.617188 8.59375 -36.421875 C 8.132812 -36.222656 7.648438 -36.125 7.140625 -36.125 C 6.617188 -36.125 6.128906 -36.222656 5.671875 -36.421875 C 5.222656 -36.617188 4.828125 -36.890625 4.484375 -37.234375 C 4.148438 -37.585938 3.882812 -37.988281 3.6875 -38.4375 C 3.488281 -38.894531 3.390625 -39.382812 3.390625 -39.90625 C 3.390625 -40.414062 3.488281 -40.90625 3.6875 -41.375 C 3.882812 -41.851562 4.148438 -42.265625 4.484375 -42.609375 C 4.828125 -42.960938 5.222656 -43.238281 5.671875 -43.4375 C 6.128906 -43.632812 6.617188 -43.734375 7.140625 -43.734375 C 7.648438 -43.734375 8.132812 -43.632812 8.59375 -43.4375 C 9.0625 -43.238281 9.46875 -42.960938 9.8125 -42.609375 C 10.164062 -42.265625 10.445312 -41.851562 10.65625 -41.375 C 10.863281 -40.90625 10.96875 -40.414062 10.96875 -39.90625 Z M 10.96875 -39.90625 "/></g></g></g><g fill="#000000" fill-opacity="1"><g transform="translate(133.145039, 242.671415)"><g><path d="M 24.546875 -18.5 C 24.546875 -19.738281 24.367188 -20.867188 24.015625 -21.890625 C 23.671875 -22.921875 23.164062 -23.8125 22.5 -24.5625 C 21.832031 -25.3125 21.015625 -25.890625 20.046875 -26.296875 C 19.085938 -26.710938 18 -26.921875 16.78125 -26.921875 C 14.226562 -26.921875 12.207031 -26.175781 10.71875 -24.6875 C 9.226562 -23.195312 8.300781 -21.132812 7.9375 -18.5 Z M 28.875 -4.25 C 28.207031 -3.457031 27.414062 -2.765625 26.5 -2.171875 C 25.582031 -1.578125 24.597656 -1.09375 23.546875 -0.71875 C 22.492188 -0.34375 21.40625 -0.0625 20.28125 0.125 C 19.164062 0.320312 18.0625 0.421875 16.96875 0.421875 C 14.863281 0.421875 12.925781 0.0664062 11.15625 -0.640625 C 9.394531 -1.347656 7.867188 -2.382812 6.578125 -3.75 C 5.285156 -5.125 4.28125 -6.820312 3.5625 -8.84375 C 2.84375 -10.863281 2.484375 -13.179688 2.484375 -15.796875 C 2.484375 -17.910156 2.804688 -19.882812 3.453125 -21.71875 C 4.109375 -23.5625 5.046875 -25.15625 6.265625 -26.5 C 7.484375 -27.851562 8.972656 -28.914062 10.734375 -29.6875 C 12.492188 -30.457031 14.472656 -30.84375 16.671875 -30.84375 C 18.484375 -30.84375 20.164062 -30.535156 21.71875 -29.921875 C 23.269531 -29.316406 24.609375 -28.4375 25.734375 -27.28125 C 26.859375 -26.132812 27.738281 -24.71875 28.375 -23.03125 C 29.019531 -21.34375 29.34375 -19.421875 29.34375 -17.265625 C 29.34375 -16.421875 29.253906 -15.859375 29.078125 -15.578125 C 28.898438 -15.304688 28.5625 -15.171875 28.0625 -15.171875 L 7.765625 -15.171875 C 7.828125 -13.253906 8.09375 -11.582031 8.5625 -10.15625 C 9.03125 -8.738281 9.679688 -7.554688 10.515625 -6.609375 C 11.359375 -5.660156 12.359375 -4.953125 13.515625 -4.484375 C 14.679688 -4.015625 15.984375 -3.78125 17.421875 -3.78125 C 18.753906 -3.78125 19.90625 -3.929688 20.875 -4.234375 C 21.84375 -4.546875 22.675781 -4.878906 23.375 -5.234375 C 24.082031 -5.597656 24.671875 -5.9375 25.140625 -6.25 C 25.609375 -6.5625 26.007812 -6.71875 26.34375 -6.71875 C 26.789062 -6.71875 27.132812 -6.546875 27.375 -6.203125 Z M 28.875 -4.25 "/></g></g></g><g fill="#000000" fill-opacity="1"><g transform="translate(164.800034, 242.671415)"><g><path d="M 9.265625 -25.953125 C 9.921875 -26.691406 10.617188 -27.363281 11.359375 -27.96875 C 12.097656 -28.570312 12.878906 -29.085938 13.703125 -29.515625 C 14.535156 -29.941406 15.414062 -30.269531 16.34375 -30.5 C 17.28125 -30.726562 18.285156 -30.84375 19.359375 -30.84375 C 21.023438 -30.84375 22.488281 -30.566406 23.75 -30.015625 C 25.019531 -29.472656 26.078125 -28.695312 26.921875 -27.6875 C 27.773438 -26.675781 28.421875 -25.457031 28.859375 -24.03125 C 29.304688 -22.613281 29.53125 -21.046875 29.53125 -19.328125 L 29.53125 0 L 24.15625 0 L 24.15625 -19.328125 C 24.15625 -21.628906 23.628906 -23.414062 22.578125 -24.6875 C 21.535156 -25.957031 19.945312 -26.59375 17.8125 -26.59375 C 16.226562 -26.59375 14.75 -26.210938 13.375 -25.453125 C 12.007812 -24.691406 10.75 -23.660156 9.59375 -22.359375 L 9.59375 0 L 4.234375 0 L 4.234375 -30.359375 L 7.4375 -30.359375 C 8.195312 -30.359375 8.664062 -29.988281 8.84375 -29.25 Z M 9.265625 -25.953125 "/></g></g></g><g fill="#000000" fill-opacity="1"><g transform="translate(198.253597, 242.671415)"><g><path d="M 24.015625 -23.140625 C 23.015625 -24.484375 21.929688 -25.414062 20.765625 -25.9375 C 19.609375 -26.46875 18.3125 -26.734375 16.875 -26.734375 C 14.0625 -26.734375 11.894531 -25.722656 10.375 -23.703125 C 8.851562 -21.691406 8.09375 -18.816406 8.09375 -15.078125 C 8.09375 -13.097656 8.257812 -11.40625 8.59375 -10 C 8.9375 -8.59375 9.4375 -7.429688 10.09375 -6.515625 C 10.757812 -5.609375 11.570312 -4.941406 12.53125 -4.515625 C 13.488281 -4.097656 14.578125 -3.890625 15.796875 -3.890625 C 17.554688 -3.890625 19.085938 -4.289062 20.390625 -5.09375 C 21.703125 -5.894531 22.910156 -7.023438 24.015625 -8.484375 Z M 29.34375 -44.15625 L 29.34375 0 L 26.171875 0 C 25.410156 0 24.929688 -0.367188 24.734375 -1.109375 L 24.25 -4.796875 C 22.945312 -3.234375 21.46875 -1.972656 19.8125 -1.015625 C 18.15625 -0.0546875 16.238281 0.421875 14.0625 0.421875 C 12.320312 0.421875 10.738281 0.0859375 9.3125 -0.578125 C 7.894531 -1.253906 6.6875 -2.238281 5.6875 -3.53125 C 4.695312 -4.832031 3.929688 -6.453125 3.390625 -8.390625 C 2.847656 -10.328125 2.578125 -12.554688 2.578125 -15.078125 C 2.578125 -17.316406 2.875 -19.398438 3.46875 -21.328125 C 4.070312 -23.253906 4.929688 -24.925781 6.046875 -26.34375 C 7.171875 -27.769531 8.546875 -28.882812 10.171875 -29.6875 C 11.804688 -30.5 13.640625 -30.90625 15.671875 -30.90625 C 17.535156 -30.90625 19.128906 -30.585938 20.453125 -29.953125 C 21.785156 -29.328125 22.972656 -28.457031 24.015625 -27.34375 L 24.015625 -44.15625 Z M 29.34375 -44.15625 "/></g></g></g><g fill="#000000" fill-opacity="1"><g transform="translate(231.827077, 242.671415)"><g><path d="M 20.6875 -13.671875 C 18.226562 -13.585938 16.132812 -13.390625 14.40625 -13.078125 C 12.675781 -12.773438 11.265625 -12.375 10.171875 -11.875 C 9.085938 -11.375 8.300781 -10.78125 7.8125 -10.09375 C 7.320312 -9.414062 7.078125 -8.660156 7.078125 -7.828125 C 7.078125 -7.023438 7.207031 -6.332031 7.46875 -5.75 C 7.726562 -5.175781 8.082031 -4.703125 8.53125 -4.328125 C 8.976562 -3.960938 9.503906 -3.691406 10.109375 -3.515625 C 10.722656 -3.347656 11.378906 -3.265625 12.078125 -3.265625 C 13.015625 -3.265625 13.875 -3.359375 14.65625 -3.546875 C 15.4375 -3.742188 16.171875 -4.019531 16.859375 -4.375 C 17.546875 -4.738281 18.203125 -5.171875 18.828125 -5.671875 C 19.460938 -6.171875 20.082031 -6.738281 20.6875 -7.375 Z M 3.453125 -26.078125 C 5.128906 -27.691406 6.9375 -28.898438 8.875 -29.703125 C 10.8125 -30.503906 12.957031 -30.90625 15.3125 -30.90625 C 17.007812 -30.90625 18.519531 -30.625 19.84375 -30.0625 C 21.164062 -29.507812 22.273438 -28.734375 23.171875 -27.734375 C 24.066406 -26.734375 24.742188 -25.519531 25.203125 -24.09375 C 25.671875 -22.675781 25.90625 -21.117188 25.90625 -19.421875 L 25.90625 0 L 23.53125 0 C 23.007812 0 22.609375 -0.0820312 22.328125 -0.25 C 22.046875 -0.425781 21.828125 -0.765625 21.671875 -1.265625 L 21.078125 -4.140625 C 20.273438 -3.398438 19.492188 -2.742188 18.734375 -2.171875 C 17.972656 -1.597656 17.171875 -1.117188 16.328125 -0.734375 C 15.492188 -0.347656 14.601562 -0.0507812 13.65625 0.15625 C 12.707031 0.375 11.648438 0.484375 10.484375 0.484375 C 9.304688 0.484375 8.195312 0.316406 7.15625 -0.015625 C 6.125 -0.347656 5.222656 -0.84375 4.453125 -1.5 C 3.679688 -2.15625 3.070312 -2.988281 2.625 -4 C 2.175781 -5.007812 1.953125 -6.203125 1.953125 -7.578125 C 1.953125 -8.773438 2.28125 -9.925781 2.9375 -11.03125 C 3.59375 -12.144531 4.660156 -13.128906 6.140625 -13.984375 C 7.617188 -14.847656 9.546875 -15.554688 11.921875 -16.109375 C 14.304688 -16.660156 17.226562 -16.976562 20.6875 -17.0625 L 20.6875 -19.421875 C 20.6875 -21.785156 20.175781 -23.570312 19.15625 -24.78125 C 18.132812 -25.988281 16.644531 -26.59375 14.6875 -26.59375 C 13.363281 -26.59375 12.257812 -26.425781 11.375 -26.09375 C 10.488281 -25.757812 9.71875 -25.390625 9.0625 -24.984375 C 8.414062 -24.578125 7.859375 -24.207031 7.390625 -23.875 C 6.921875 -23.539062 6.457031 -23.375 6 -23.375 C 5.632812 -23.375 5.320312 -23.46875 5.0625 -23.65625 C 4.800781 -23.851562 4.582031 -24.09375 4.40625 -24.375 Z M 3.453125 -26.078125 "/></g></g></g><g fill="#000000" fill-opacity="1"><g transform="translate(261.623528, 242.671415)"><g><path d="M 9.59375 -44.15625 L 9.59375 -18.171875 L 10.96875 -18.171875 C 11.375 -18.171875 11.707031 -18.222656 11.96875 -18.328125 C 12.238281 -18.441406 12.523438 -18.664062 12.828125 -19 L 22.421875 -29.28125 C 22.703125 -29.625 22.992188 -29.890625 23.296875 -30.078125 C 23.609375 -30.265625 24.023438 -30.359375 24.546875 -30.359375 L 29.375 -30.359375 L 18.203125 -18.46875 C 17.660156 -17.789062 17.078125 -17.257812 16.453125 -16.875 C 16.816406 -16.632812 17.140625 -16.359375 17.421875 -16.046875 C 17.710938 -15.742188 17.988281 -15.390625 18.25 -14.984375 L 30.125 0 L 25.359375 0 C 24.898438 0 24.503906 -0.0703125 24.171875 -0.21875 C 23.847656 -0.375 23.566406 -0.648438 23.328125 -1.046875 L 13.34375 -13.484375 C 13.039062 -13.910156 12.742188 -14.1875 12.453125 -14.3125 C 12.160156 -14.445312 11.71875 -14.515625 11.125 -14.515625 L 9.59375 -14.515625 L 9.59375 0 L 4.234375 0 L 4.234375 -44.15625 Z M 9.59375 -44.15625 "/></g></g></g><g fill="#000000" fill-opacity="1"><g transform="translate(292.079458, 242.671415)"><g><path d="M 9.859375 -30.359375 L 9.859375 2.25 C 9.859375 3.46875 9.695312 4.597656 9.375 5.640625 C 9.0625 6.691406 8.554688 7.609375 7.859375 8.390625 C 7.160156 9.171875 6.265625 9.785156 5.171875 10.234375 C 4.078125 10.679688 2.773438 10.90625 1.265625 10.90625 C 0.617188 10.90625 0.03125 10.851562 -0.5 10.75 C -1.039062 10.65625 -1.582031 10.507812 -2.125 10.3125 L -1.921875 7.4375 C -1.878906 7.257812 -1.8125 7.125 -1.71875 7.03125 C -1.632812 6.9375 -1.507812 6.878906 -1.34375 6.859375 C -1.1875 6.835938 -0.984375 6.832031 -0.734375 6.84375 C -0.484375 6.851562 -0.171875 6.859375 0.203125 6.859375 C 1.765625 6.859375 2.875 6.492188 3.53125 5.765625 C 4.195312 5.035156 4.53125 3.863281 4.53125 2.25 L 4.53125 -30.359375 Z M 10.96875 -39.90625 C 10.96875 -39.382812 10.863281 -38.894531 10.65625 -38.4375 C 10.445312 -37.988281 10.164062 -37.585938 9.8125 -37.234375 C 9.46875 -36.890625 9.0625 -36.617188 8.59375 -36.421875 C 8.132812 -36.222656 7.648438 -36.125 7.140625 -36.125 C 6.617188 -36.125 6.128906 -36.222656 5.671875 -36.421875 C 5.222656 -36.617188 4.828125 -36.890625 4.484375 -37.234375 C 4.148438 -37.585938 3.882812 -37.988281 3.6875 -38.4375 C 3.488281 -38.894531 3.390625 -39.382812 3.390625 -39.90625 C 3.390625 -40.414062 3.488281 -40.90625 3.6875 -41.375 C 3.882812 -41.851562 4.148438 -42.265625 4.484375 -42.609375 C 4.828125 -42.960938 5.222656 -43.238281 5.671875 -43.4375 C 6.128906 -43.632812 6.617188 -43.734375 7.140625 -43.734375 C 7.648438 -43.734375 8.132812 -43.632812 8.59375 -43.4375 C 9.0625 -43.238281 9.46875 -42.960938 9.8125 -42.609375 C 10.164062 -42.265625 10.445312 -41.851562 10.65625 -41.375 C 10.863281 -40.90625 10.96875 -40.414062 10.96875 -39.90625 Z M 10.96875 -39.90625 "/></g></g></g><g fill="#000000" fill-opacity="1"><g transform="translate(306.468097, 242.671415)"><g><path d="M 24.546875 -18.5 C 24.546875 -19.738281 24.367188 -20.867188 24.015625 -21.890625 C 23.671875 -22.921875 23.164062 -23.8125 22.5 -24.5625 C 21.832031 -25.3125 21.015625 -25.890625 20.046875 -26.296875 C 19.085938 -26.710938 18 -26.921875 16.78125 -26.921875 C 14.226562 -26.921875 12.207031 -26.175781 10.71875 -24.6875 C 9.226562 -23.195312 8.300781 -21.132812 7.9375 -18.5 Z M 28.875 -4.25 C 28.207031 -3.457031 27.414062 -2.765625 26.5 -2.171875 C 25.582031 -1.578125 24.597656 -1.09375 23.546875 -0.71875 C 22.492188 -0.34375 21.40625 -0.0625 20.28125 0.125 C 19.164062 0.320312 18.0625 0.421875 16.96875 0.421875 C 14.863281 0.421875 12.925781 0.0664062 11.15625 -0.640625 C 9.394531 -1.347656 7.867188 -2.382812 6.578125 -3.75 C 5.285156 -5.125 4.28125 -6.820312 3.5625 -8.84375 C 2.84375 -10.863281 2.484375 -13.179688 2.484375 -15.796875 C 2.484375 -17.910156 2.804688 -19.882812 3.453125 -21.71875 C 4.109375 -23.5625 5.046875 -25.15625 6.265625 -26.5 C 7.484375 -27.851562 8.972656 -28.914062 10.734375 -29.6875 C 12.492188 -30.457031 14.472656 -30.84375 16.671875 -30.84375 C 18.484375 -30.84375 20.164062 -30.535156 21.71875 -29.921875 C 23.269531 -29.316406 24.609375 -28.4375 25.734375 -27.28125 C 26.859375 -26.132812 27.738281 -24.71875 28.375 -23.03125 C 29.019531 -21.34375 29.34375 -19.421875 29.34375 -17.265625 C 29.34375 -16.421875 29.253906 -15.859375 29.078125 -15.578125 C 28.898438 -15.304688 28.5625 -15.171875 28.0625 -15.171875 L 7.765625 -15.171875 C 7.828125 -13.253906 8.09375 -11.582031 8.5625 -10.15625 C 9.03125 -8.738281 9.679688 -7.554688 10.515625 -6.609375 C 11.359375 -5.660156 12.359375 -4.953125 13.515625 -4.484375 C 14.679688 -4.015625 15.984375 -3.78125 17.421875 -3.78125 C 18.753906 -3.78125 19.90625 -3.929688 20.875 -4.234375 C 21.84375 -4.546875 22.675781 -4.878906 23.375 -5.234375 C 24.082031 -5.597656 24.671875 -5.9375 25.140625 -6.25 C 25.609375 -6.5625 26.007812 -6.71875 26.34375 -6.71875 C 26.789062 -6.71875 27.132812 -6.546875 27.375 -6.203125 Z M 28.875 -4.25 "/></g></g></g></svg>