<svg xmlns="http://www.w3.org/2000/svg" xmlns:xlink="http://www.w3.org/1999/xlink" width="500" zoomAndPan="magnify" viewBox="0 0 375 112.499997" height="150" preserveAspectRatio="xMidYMid meet" version="1.0"><defs><g/><clipPath id="c2f3d27641"><path d="M 0.828125 0 L 374.167969 0 L 374.167969 112.003906 L 0.828125 112.003906 Z M 0.828125 0 " clip-rule="nonzero"/></clipPath><clipPath id="8e06a15099"><path d="M 19.429688 20.160156 L 61.246094 20.160156 L 61.246094 61.972656 L 19.429688 61.972656 Z M 19.429688 20.160156 " clip-rule="nonzero"/></clipPath><clipPath id="75df55effb"><path d="M 66.03125 47.269531 L 98.71875 47.269531 L 98.71875 90.578125 L 66.03125 90.578125 Z M 66.03125 47.269531 " clip-rule="nonzero"/></clipPath></defs><g clip-path="url(#c2f3d27641)"><path fill="#ffffff" d="M 0.828125 0 L 374.171875 0 L 374.171875 112.003906 L 0.828125 112.003906 Z M 0.828125 0 " fill-opacity="1" fill-rule="nonzero"/><path fill="#ffffff" d="M 0.828125 0 L 374.171875 0 L 374.171875 112.003906 L 0.828125 112.003906 Z M 0.828125 0 " fill-opacity="1" fill-rule="nonzero"/></g><g clip-path="url(#8e06a15099)"><path fill="#6ae66f" d="M 40.261719 20.160156 C 28.773438 20.160156 19.433594 29.507812 19.433594 40.996094 C 19.433594 52.484375 28.773438 61.824219 40.261719 61.824219 C 51.75 61.824219 61.089844 52.484375 61.089844 40.996094 C 61.089844 29.507812 51.75 20.160156 40.261719 20.160156 Z M 40.261719 58.449219 C 30.640625 58.449219 22.808594 50.617188 22.808594 40.996094 C 22.808594 31.375 30.640625 23.542969 40.261719 23.542969 C 49.882812 23.542969 57.714844 31.375 57.714844 40.996094 C 57.714844 50.617188 49.882812 58.449219 40.261719 58.449219 Z M 40.261719 58.449219 " fill-opacity="1" fill-rule="nonzero"/></g><path fill="#6ae66f" d="M 49.535156 40.371094 L 34.773438 31.847656 C 34.296875 31.574219 33.699219 31.914062 33.699219 32.464844 L 33.699219 49.519531 C 33.699219 50.066406 34.296875 50.410156 34.773438 50.132812 L 49.542969 41.613281 C 50.015625 41.335938 50.015625 40.644531 49.535156 40.371094 Z M 49.535156 40.371094 " fill-opacity="1" fill-rule="nonzero"/><path fill="#0097f5" d="M 85.773438 79.695312 C 84.863281 79.695312 84.125 78.957031 84.125 78.046875 C 84.125 77.136719 84.863281 76.398438 85.773438 76.398438 C 86.683594 76.398438 87.421875 77.136719 87.421875 78.046875 C 87.421875 78.957031 86.683594 79.695312 85.773438 79.695312 Z M 78.835938 82.503906 C 77.289062 82.503906 76.03125 81.246094 76.03125 79.699219 C 76.03125 78.148438 77.289062 76.894531 78.835938 76.894531 C 80.386719 76.894531 81.640625 78.148438 81.640625 79.699219 C 81.640625 81.246094 80.386719 82.503906 78.835938 82.503906 Z M 92.859375 81.609375 C 92.128906 80.03125 91.246094 78.203125 90.472656 76.613281 L 89.988281 75.617188 C 89.808594 75.246094 89.636719 74.890625 89.460938 74.527344 L 75.3125 74.527344 C 75.304688 74.527344 75.296875 74.527344 75.289062 74.523438 C 75.089844 74.9375 74.894531 75.347656 74.691406 75.761719 C 73.886719 77.410156 73.082031 79.066406 72.367188 80.585938 C 71.351562 82.742188 70.660156 84.328125 70.3125 85.304688 C 70.117188 85.847656 70.421875 86.878906 71.507812 86.878906 L 93.402344 86.878906 C 94.429688 86.878906 94.632812 85.847656 94.4375 85.304688 C 94.144531 84.480469 93.613281 83.238281 92.859375 81.609375 " fill-opacity="1" fill-rule="nonzero"/><path fill="#0097f5" d="M 81.316406 70.121094 C 81.316406 71.488281 82.425781 72.59375 83.789062 72.59375 C 85.15625 72.59375 86.261719 71.488281 86.261719 70.121094 C 86.261719 68.753906 85.15625 67.648438 83.789062 67.648438 C 82.425781 67.648438 81.316406 68.753906 81.316406 70.121094 " fill-opacity="1" fill-rule="nonzero"/><path fill="#0097f5" d="M 82.140625 63.585938 C 82.90625 63.585938 83.527344 62.964844 83.527344 62.195312 C 83.527344 61.429688 82.90625 60.808594 82.140625 60.808594 C 81.371094 60.808594 80.75 61.429688 80.75 62.195312 C 80.75 62.964844 81.371094 63.585938 82.140625 63.585938 " fill-opacity="1" fill-rule="nonzero"/><g clip-path="url(#75df55effb)"><path fill="#0097f5" d="M 95.898438 87.300781 C 95.746094 87.625 95.511719 87.847656 95.1875 88.023438 C 94.867188 88.195312 94.460938 88.285156 94.089844 88.285156 L 70.660156 88.285156 C 70.164062 88.289062 69.613281 88.117188 69.265625 87.832031 C 69.089844 87.6875 68.953125 87.519531 68.847656 87.300781 C 68.746094 87.082031 68.675781 86.804688 68.671875 86.414062 C 68.671875 86.011719 68.757812 85.484375 68.988281 84.832031 C 69.394531 83.695312 70.171875 81.949219 71.097656 79.984375 C 72.488281 77.03125 74.222656 73.558594 75.613281 70.617188 C 76.308594 69.144531 76.917969 67.808594 77.363281 66.714844 C 77.589844 66.167969 77.769531 65.679688 77.90625 65.25 C 77.976562 65.035156 78.03125 64.832031 78.074219 64.632812 C 78.117188 64.429688 78.148438 64.238281 78.152344 63.996094 C 78.152344 62.480469 78.152344 54.871094 78.152344 51.089844 L 86.597656 51.089844 C 86.597656 54.871094 86.597656 62.480469 86.597656 63.996094 C 86.601562 64.316406 86.65625 64.558594 86.722656 64.832031 C 86.851562 65.335938 87.058594 65.90625 87.328125 66.578125 C 88.273438 68.921875 90.03125 72.488281 91.734375 76 C 92.585938 77.75 93.425781 79.484375 94.132812 81.019531 C 94.84375 82.554688 95.425781 83.902344 95.757812 84.832031 C 95.992188 85.484375 96.078125 86.011719 96.078125 86.414062 C 96.074219 86.804688 96 87.082031 95.898438 87.300781 Z M 98.246094 83.945312 C 97.777344 82.628906 96.980469 80.859375 96.039062 78.859375 C 94.632812 75.867188 92.898438 72.390625 91.527344 69.488281 C 90.839844 68.039062 90.246094 66.730469 89.832031 65.714844 C 89.625 65.210938 89.460938 64.777344 89.363281 64.457031 C 89.3125 64.296875 89.277344 64.164062 89.257812 64.078125 L 89.242188 63.984375 L 89.238281 63.980469 C 89.238281 62.4375 89.238281 54.859375 89.238281 51.089844 L 90.226562 51.089844 C 91.28125 51.089844 92.136719 50.234375 92.136719 49.179688 C 92.136719 48.125 91.28125 47.269531 90.226562 47.269531 L 74.523438 47.269531 C 73.46875 47.269531 72.613281 48.125 72.613281 49.179688 C 72.613281 50.234375 73.46875 51.089844 74.523438 51.089844 L 75.507812 51.089844 C 75.507812 54.859375 75.507812 62.4375 75.507812 63.980469 C 75.507812 64 75.484375 64.125 75.433594 64.296875 C 75.335938 64.640625 75.144531 65.167969 74.886719 65.796875 C 73.96875 68.019531 72.234375 71.558594 70.558594 75.007812 C 69.71875 76.738281 68.890625 78.449219 68.183594 79.984375 C 67.472656 81.527344 66.882812 82.882812 66.503906 83.945312 C 66.1875 84.828125 66.03125 85.648438 66.03125 86.414062 C 66.03125 87.152344 66.179688 87.835938 66.460938 88.429688 C 66.878906 89.320312 67.578125 89.96875 68.328125 90.359375 C 69.082031 90.753906 69.886719 90.925781 70.660156 90.925781 L 94.089844 90.925781 C 95.113281 90.921875 96.21875 90.628906 97.144531 89.882812 C 97.605469 89.511719 98.011719 89.023438 98.289062 88.429688 C 98.570312 87.835938 98.71875 87.152344 98.71875 86.414062 C 98.71875 85.648438 98.5625 84.828125 98.246094 83.945312 " fill-opacity="1" fill-rule="nonzero"/></g><g fill="#363382" fill-opacity="1"><g transform="translate(111.050766, 45.138619)"><g><path d="M 9.390625 0.390625 C 7.628906 0.390625 6.128906 -0.09375 4.890625 -1.0625 C 3.648438 -2.03125 2.703125 -3.316406 2.046875 -4.921875 C 1.390625 -6.535156 1.0625 -8.269531 1.0625 -10.125 C 1.0625 -12.09375 1.425781 -13.84375 2.15625 -15.375 C 2.882812 -16.914062 3.890625 -18.125 5.171875 -19 C 6.453125 -19.882812 7.945312 -20.328125 9.65625 -20.328125 C 10.875 -20.328125 11.945312 -20.0625 12.875 -19.53125 C 13.800781 -19.007812 14.609375 -18.378906 15.296875 -17.640625 L 15.296875 -27.640625 L 19.140625 -27.640625 L 19.140625 0 L 15.296875 0 L 15.296875 -2.171875 C 14.441406 -1.234375 13.515625 -0.570312 12.515625 -0.1875 C 11.515625 0.195312 10.472656 0.390625 9.390625 0.390625 Z M 5.046875 -10.125 C 5.046875 -8.8125 5.269531 -7.597656 5.71875 -6.484375 C 6.175781 -5.378906 6.8125 -4.488281 7.625 -3.8125 C 8.4375 -3.144531 9.367188 -2.8125 10.421875 -2.8125 C 11.671875 -2.8125 12.648438 -3.140625 13.359375 -3.796875 C 14.078125 -4.453125 14.578125 -5.332031 14.859375 -6.4375 C 15.148438 -7.550781 15.296875 -8.78125 15.296875 -10.125 C 15.296875 -12.289062 14.832031 -13.976562 13.90625 -15.1875 C 12.976562 -16.394531 11.816406 -17 10.421875 -17 C 9.304688 -17 8.347656 -16.675781 7.546875 -16.03125 C 6.753906 -15.394531 6.140625 -14.554688 5.703125 -13.515625 C 5.265625 -12.484375 5.046875 -11.351562 5.046875 -10.125 Z M 5.046875 -10.125 "/></g></g></g><g fill="#363382" fill-opacity="1"><g transform="translate(132.10801, 45.138619)"><g><path d="M 10.546875 0.390625 C 8.585938 0.390625 6.898438 -0.0976562 5.484375 -1.078125 C 4.078125 -2.066406 2.988281 -3.363281 2.21875 -4.96875 C 1.445312 -6.582031 1.0625 -8.316406 1.0625 -10.171875 C 1.0625 -11.992188 1.453125 -13.648438 2.234375 -15.140625 C 3.023438 -16.640625 4.128906 -17.835938 5.546875 -18.734375 C 6.972656 -19.628906 8.613281 -20.078125 10.46875 -20.078125 C 12.375 -20.078125 14.015625 -19.660156 15.390625 -18.828125 C 16.773438 -18.003906 17.851562 -16.867188 18.625 -15.421875 C 19.394531 -13.972656 19.78125 -12.304688 19.78125 -10.421875 L 19.78125 -8.921875 L 5.046875 -8.921875 C 5.128906 -7.953125 5.394531 -7 5.84375 -6.0625 C 6.300781 -5.125 6.9375 -4.347656 7.75 -3.734375 C 8.5625 -3.117188 9.492188 -2.8125 10.546875 -2.8125 C 13.253906 -2.8125 15.035156 -4.097656 15.890625 -6.671875 L 19.34375 -6.671875 C 18.894531 -4.441406 17.878906 -2.707031 16.296875 -1.46875 C 14.710938 -0.226562 12.796875 0.390625 10.546875 0.390625 Z M 5 -11.96875 L 15.8125 -11.96875 C 15.695312 -13.46875 15.132812 -14.648438 14.125 -15.515625 C 13.113281 -16.390625 11.851562 -16.828125 10.34375 -16.828125 C 8.945312 -16.828125 7.75 -16.347656 6.75 -15.390625 C 5.75 -14.441406 5.164062 -13.300781 5 -11.96875 Z M 5 -11.96875 "/></g></g></g><g fill="#363382" fill-opacity="1"><g transform="translate(152.951684, 45.138619)"><g><path d="M 2.09375 0 L 2.09375 -19.6875 L 5.890625 -19.6875 L 5.890625 -17.46875 C 6.722656 -18.351562 7.648438 -19.007812 8.671875 -19.4375 C 9.691406 -19.863281 10.6875 -20.078125 11.65625 -20.078125 C 12.6875 -20.078125 13.671875 -19.847656 14.609375 -19.390625 C 15.546875 -18.929688 16.375 -18.25 17.09375 -17.34375 C 17.914062 -18.28125 18.890625 -18.976562 20.015625 -19.4375 C 21.140625 -19.894531 22.226562 -20.125 23.28125 -20.125 C 25.15625 -20.125 26.734375 -19.628906 28.015625 -18.640625 C 29.304688 -17.660156 29.953125 -16.359375 29.953125 -14.734375 L 29.953125 0 L 26.140625 0 L 26.140625 -13.671875 C 26.140625 -14.785156 25.773438 -15.585938 25.046875 -16.078125 C 24.328125 -16.578125 23.582031 -16.828125 22.8125 -16.828125 C 22.101562 -16.828125 21.367188 -16.617188 20.609375 -16.203125 C 19.859375 -15.796875 19.222656 -15.28125 18.703125 -14.65625 C 18.191406 -14.03125 17.9375 -13.390625 17.9375 -12.734375 L 17.9375 0 L 14.09375 0 L 14.09375 -13.671875 C 14.09375 -14.785156 13.726562 -15.585938 13 -16.078125 C 12.28125 -16.578125 11.535156 -16.828125 10.765625 -16.828125 C 10.054688 -16.828125 9.320312 -16.617188 8.5625 -16.203125 C 7.8125 -15.796875 7.175781 -15.28125 6.65625 -14.65625 C 6.144531 -14.03125 5.890625 -13.390625 5.890625 -12.734375 L 5.890625 0 Z M 2.09375 0 "/></g></g></g><g fill="#363382" fill-opacity="1"><g transform="translate(184.516187, 45.138619)"><g><path d="M 10.640625 0.390625 C 8.585938 0.390625 6.84375 -0.0703125 5.40625 -1 C 3.96875 -1.925781 2.867188 -3.164062 2.109375 -4.71875 C 1.359375 -6.269531 0.984375 -7.972656 0.984375 -9.828125 C 0.984375 -11.679688 1.359375 -13.382812 2.109375 -14.9375 C 2.867188 -16.488281 3.96875 -17.734375 5.40625 -18.671875 C 6.84375 -19.609375 8.597656 -20.078125 10.671875 -20.078125 C 12.703125 -20.078125 14.421875 -19.609375 15.828125 -18.671875 C 17.234375 -17.734375 18.3125 -16.488281 19.0625 -14.9375 C 19.820312 -13.382812 20.203125 -11.679688 20.203125 -9.828125 C 20.203125 -7.972656 19.820312 -6.269531 19.0625 -4.71875 C 18.3125 -3.164062 17.222656 -1.925781 15.796875 -1 C 14.378906 -0.0703125 12.660156 0.390625 10.640625 0.390625 Z M 4.953125 -9.828125 C 4.953125 -7.660156 5.441406 -5.957031 6.421875 -4.71875 C 7.410156 -3.476562 8.816406 -2.859375 10.640625 -2.859375 C 12.429688 -2.859375 13.800781 -3.476562 14.75 -4.71875 C 15.707031 -5.957031 16.1875 -7.660156 16.1875 -9.828125 C 16.1875 -11.929688 15.679688 -13.625 14.671875 -14.90625 C 13.660156 -16.1875 12.328125 -16.828125 10.671875 -16.828125 C 8.878906 -16.828125 7.476562 -16.203125 6.46875 -14.953125 C 5.457031 -13.703125 4.953125 -11.992188 4.953125 -9.828125 Z M 4.953125 -9.828125 "/></g></g></g><g fill="#363382" fill-opacity="1"><g transform="translate(205.701562, 45.138619)"><g/></g></g><g fill="#363382" fill-opacity="1"><g transform="translate(216.379677, 45.138619)"><g><path d="M 10.546875 0.390625 C 8.585938 0.390625 6.898438 -0.0976562 5.484375 -1.078125 C 4.078125 -2.066406 2.988281 -3.363281 2.21875 -4.96875 C 1.445312 -6.582031 1.0625 -8.316406 1.0625 -10.171875 C 1.0625 -11.992188 1.453125 -13.648438 2.234375 -15.140625 C 3.023438 -16.640625 4.128906 -17.835938 5.546875 -18.734375 C 6.972656 -19.628906 8.613281 -20.078125 10.46875 -20.078125 C 12.375 -20.078125 14.015625 -19.660156 15.390625 -18.828125 C 16.773438 -18.003906 17.851562 -16.867188 18.625 -15.421875 C 19.394531 -13.972656 19.78125 -12.304688 19.78125 -10.421875 L 19.78125 -8.921875 L 5.046875 -8.921875 C 5.128906 -7.953125 5.394531 -7 5.84375 -6.0625 C 6.300781 -5.125 6.9375 -4.347656 7.75 -3.734375 C 8.5625 -3.117188 9.492188 -2.8125 10.546875 -2.8125 C 13.253906 -2.8125 15.035156 -4.097656 15.890625 -6.671875 L 19.34375 -6.671875 C 18.894531 -4.441406 17.878906 -2.707031 16.296875 -1.46875 C 14.710938 -0.226562 12.796875 0.390625 10.546875 0.390625 Z M 5 -11.96875 L 15.8125 -11.96875 C 15.695312 -13.46875 15.132812 -14.648438 14.125 -15.515625 C 13.113281 -16.390625 11.851562 -16.828125 10.34375 -16.828125 C 8.945312 -16.828125 7.75 -16.347656 6.75 -15.390625 C 5.75 -14.441406 5.164062 -13.300781 5 -11.96875 Z M 5 -11.96875 "/></g></g></g><g fill="#363382" fill-opacity="1"><g transform="translate(237.223351, 45.138619)"><g><path d="M 2.171875 0 L 2.171875 -19.6875 L 5.9375 -19.6875 L 5.9375 -17.46875 C 6.820312 -18.351562 7.804688 -19.007812 8.890625 -19.4375 C 9.972656 -19.863281 11.023438 -20.078125 12.046875 -20.078125 C 14.015625 -20.078125 15.644531 -19.582031 16.9375 -18.59375 C 18.226562 -17.613281 18.875 -16.3125 18.875 -14.6875 L 18.875 0 L 15.078125 0 L 15.078125 -13.5 C 15.078125 -14.15625 14.890625 -14.734375 14.515625 -15.234375 C 14.148438 -15.734375 13.710938 -16.125 13.203125 -16.40625 C 12.691406 -16.6875 12.191406 -16.828125 11.703125 -16.828125 C 10.910156 -16.828125 10.113281 -16.632812 9.3125 -16.25 C 8.507812 -15.863281 7.8125 -15.359375 7.21875 -14.734375 C 6.625 -14.109375 6.195312 -13.425781 5.9375 -12.6875 L 5.9375 0 Z M 2.171875 0 "/></g></g></g><g fill="#363382" fill-opacity="1"><g transform="translate(257.896179, 45.138619)"><g/></g></g><g fill="#363382" fill-opacity="1"><g transform="translate(268.574295, 45.138619)"><g><path d="M 2.21875 0 L 2.21875 -27.640625 L 6.015625 -27.640625 L 6.015625 0 Z M 2.21875 0 "/></g></g></g><g fill="#363382" fill-opacity="1"><g transform="translate(276.732372, 45.138619)"><g><path d="M 7.265625 0.390625 C 5.523438 0.390625 4.054688 -0.117188 2.859375 -1.140625 C 1.660156 -2.171875 1.0625 -3.597656 1.0625 -5.421875 C 1.0625 -6.679688 1.351562 -7.703125 1.9375 -8.484375 C 2.519531 -9.265625 3.273438 -9.894531 4.203125 -10.375 C 5.128906 -10.863281 6.117188 -11.253906 7.171875 -11.546875 C 8.222656 -11.847656 9.222656 -12.113281 10.171875 -12.34375 L 12.265625 -12.859375 C 12.578125 -12.941406 12.972656 -13.050781 13.453125 -13.1875 C 13.941406 -13.332031 14.1875 -13.632812 14.1875 -14.09375 C 14.1875 -14.925781 13.957031 -15.53125 13.5 -15.90625 C 13.039062 -16.289062 12.484375 -16.539062 11.828125 -16.65625 C 11.171875 -16.769531 10.519531 -16.828125 9.875 -16.828125 C 8.8125 -16.828125 7.867188 -16.632812 7.046875 -16.25 C 6.222656 -15.863281 5.78125 -15.0625 5.71875 -13.84375 L 1.84375 -13.84375 C 1.894531 -15.269531 2.328125 -16.441406 3.140625 -17.359375 C 3.953125 -18.285156 4.96875 -18.96875 6.1875 -19.40625 C 7.414062 -19.851562 8.65625 -20.078125 9.90625 -20.078125 C 11.164062 -20.078125 12.425781 -19.882812 13.6875 -19.5 C 14.957031 -19.113281 16.007812 -18.484375 16.84375 -17.609375 C 17.6875 -16.742188 18.109375 -15.570312 18.109375 -14.09375 L 18.109375 -4.09375 C 18.109375 -3.84375 18.207031 -3.566406 18.40625 -3.265625 C 18.601562 -2.960938 18.847656 -2.8125 19.140625 -2.8125 C 19.367188 -2.8125 19.609375 -2.875 19.859375 -3 C 20.117188 -3.132812 20.347656 -3.257812 20.546875 -3.375 L 20.546875 -0.078125 C 20.085938 0.0546875 19.648438 0.164062 19.234375 0.25 C 18.828125 0.34375 18.382812 0.390625 17.90625 0.390625 C 16.9375 0.390625 16.164062 0.117188 15.59375 -0.421875 C 15.019531 -0.960938 14.648438 -1.691406 14.484375 -2.609375 C 12.484375 -0.609375 10.078125 0.390625 7.265625 0.390625 Z M 5.046875 -5.515625 C 5.046875 -4.546875 5.425781 -3.851562 6.1875 -3.4375 C 6.957031 -3.019531 7.769531 -2.8125 8.625 -2.8125 C 9.882812 -2.8125 11.007812 -3.0625 12 -3.5625 C 13 -4.0625 13.726562 -4.925781 14.1875 -6.15625 L 14.1875 -10.546875 C 13.726562 -10.347656 13.242188 -10.1875 12.734375 -10.0625 C 12.222656 -9.9375 11.722656 -9.800781 11.234375 -9.65625 C 10.722656 -9.507812 10.109375 -9.34375 9.390625 -9.15625 C 8.679688 -8.976562 8 -8.738281 7.34375 -8.4375 C 6.6875 -8.132812 6.140625 -7.75 5.703125 -7.28125 C 5.265625 -6.8125 5.046875 -6.222656 5.046875 -5.515625 Z M 5.046875 -5.515625 "/></g></g></g><g fill="#363382" fill-opacity="1"><g transform="translate(297.405201, 45.138619)"><g><path d="M 11.75 0.390625 C 10.695312 0.390625 9.65625 0.195312 8.625 -0.1875 C 7.601562 -0.570312 6.664062 -1.234375 5.8125 -2.171875 L 5.8125 0 L 1.96875 0 L 1.96875 -27.640625 L 5.8125 -27.640625 L 5.8125 -17.640625 C 6.519531 -18.410156 7.347656 -19.050781 8.296875 -19.5625 C 9.253906 -20.070312 10.316406 -20.328125 11.484375 -20.328125 C 13.222656 -20.328125 14.710938 -19.878906 15.953125 -18.984375 C 17.191406 -18.085938 18.144531 -16.867188 18.8125 -15.328125 C 19.488281 -13.796875 19.828125 -12.0625 19.828125 -10.125 C 19.828125 -8.332031 19.53125 -6.628906 18.9375 -5.015625 C 18.351562 -3.410156 17.460938 -2.109375 16.265625 -1.109375 C 15.078125 -0.109375 13.570312 0.390625 11.75 0.390625 Z M 5.859375 -10.125 C 5.859375 -8.78125 6 -7.550781 6.28125 -6.4375 C 6.5625 -5.332031 7.066406 -4.453125 7.796875 -3.796875 C 8.523438 -3.140625 9.515625 -2.8125 10.765625 -2.8125 C 11.816406 -2.8125 12.71875 -3.140625 13.46875 -3.796875 C 14.226562 -4.453125 14.8125 -5.332031 15.21875 -6.4375 C 15.632812 -7.550781 15.84375 -8.78125 15.84375 -10.125 C 15.84375 -11.351562 15.644531 -12.484375 15.25 -13.515625 C 14.851562 -14.554688 14.285156 -15.394531 13.546875 -16.03125 C 12.804688 -16.675781 11.894531 -17 10.8125 -17 C 9.351562 -17 8.160156 -16.394531 7.234375 -15.1875 C 6.316406 -13.976562 5.859375 -12.289062 5.859375 -10.125 Z M 5.859375 -10.125 "/></g></g></g><g fill="#363382" fill-opacity="1"><g transform="translate(111.050766, 87.699457)"><g><path d="M 10.640625 0.390625 C 8.585938 0.390625 6.84375 -0.0703125 5.40625 -1 C 3.96875 -1.925781 2.867188 -3.164062 2.109375 -4.71875 C 1.359375 -6.269531 0.984375 -7.972656 0.984375 -9.828125 C 0.984375 -11.679688 1.359375 -13.382812 2.109375 -14.9375 C 2.867188 -16.488281 3.96875 -17.734375 5.40625 -18.671875 C 6.84375 -19.609375 8.597656 -20.078125 10.671875 -20.078125 C 12.703125 -20.078125 14.421875 -19.609375 15.828125 -18.671875 C 17.234375 -17.734375 18.3125 -16.488281 19.0625 -14.9375 C 19.820312 -13.382812 20.203125 -11.679688 20.203125 -9.828125 C 20.203125 -7.972656 19.820312 -6.269531 19.0625 -4.71875 C 18.3125 -3.164062 17.222656 -1.925781 15.796875 -1 C 14.378906 -0.0703125 12.660156 0.390625 10.640625 0.390625 Z M 4.953125 -9.828125 C 4.953125 -7.660156 5.441406 -5.957031 6.421875 -4.71875 C 7.410156 -3.476562 8.816406 -2.859375 10.640625 -2.859375 C 12.429688 -2.859375 13.800781 -3.476562 14.75 -4.71875 C 15.707031 -5.957031 16.1875 -7.660156 16.1875 -9.828125 C 16.1875 -11.929688 15.679688 -13.625 14.671875 -14.90625 C 13.660156 -16.1875 12.328125 -16.828125 10.671875 -16.828125 C 8.878906 -16.828125 7.476562 -16.203125 6.46875 -14.953125 C 5.457031 -13.703125 4.953125 -11.992188 4.953125 -9.828125 Z M 4.953125 -9.828125 "/></g></g></g><g fill="#363382" fill-opacity="1"><g transform="translate(132.236141, 87.699457)"><g><path d="M 2.09375 0 L 2.09375 -19.6875 L 5.890625 -19.6875 L 5.890625 -17.46875 C 6.722656 -18.351562 7.648438 -19.007812 8.671875 -19.4375 C 9.691406 -19.863281 10.6875 -20.078125 11.65625 -20.078125 C 12.6875 -20.078125 13.671875 -19.847656 14.609375 -19.390625 C 15.546875 -18.929688 16.375 -18.25 17.09375 -17.34375 C 17.914062 -18.28125 18.890625 -18.976562 20.015625 -19.4375 C 21.140625 -19.894531 22.226562 -20.125 23.28125 -20.125 C 25.15625 -20.125 26.734375 -19.628906 28.015625 -18.640625 C 29.304688 -17.660156 29.953125 -16.359375 29.953125 -14.734375 L 29.953125 0 L 26.140625 0 L 26.140625 -13.671875 C 26.140625 -14.785156 25.773438 -15.585938 25.046875 -16.078125 C 24.328125 -16.578125 23.582031 -16.828125 22.8125 -16.828125 C 22.101562 -16.828125 21.367188 -16.617188 20.609375 -16.203125 C 19.859375 -15.796875 19.222656 -15.28125 18.703125 -14.65625 C 18.191406 -14.03125 17.9375 -13.390625 17.9375 -12.734375 L 17.9375 0 L 14.09375 0 L 14.09375 -13.671875 C 14.09375 -14.785156 13.726562 -15.585938 13 -16.078125 C 12.28125 -16.578125 11.535156 -16.828125 10.765625 -16.828125 C 10.054688 -16.828125 9.320312 -16.617188 8.5625 -16.203125 C 7.8125 -15.796875 7.175781 -15.28125 6.65625 -14.65625 C 6.144531 -14.03125 5.890625 -13.390625 5.890625 -12.734375 L 5.890625 0 Z M 2.09375 0 "/></g></g></g><g fill="#363382" fill-opacity="1"><g transform="translate(163.800644, 87.699457)"><g><path d="M 10.25 8.59375 C 8.3125 8.59375 6.582031 8.117188 5.0625 7.171875 C 3.539062 6.234375 2.410156 4.554688 1.671875 2.140625 L 5.375 2.140625 C 6.007812 3.503906 6.675781 4.390625 7.375 4.796875 C 8.070312 5.210938 9.015625 5.421875 10.203125 5.421875 C 11.117188 5.421875 11.953125 5.191406 12.703125 4.734375 C 13.460938 4.285156 14.066406 3.679688 14.515625 2.921875 C 14.972656 2.171875 15.203125 1.351562 15.203125 0.46875 L 15.203125 -1.921875 C 14.410156 -1.097656 13.566406 -0.472656 12.671875 -0.046875 C 11.773438 0.378906 10.785156 0.59375 9.703125 0.59375 C 8.160156 0.59375 6.835938 0.289062 5.734375 -0.3125 C 4.640625 -0.925781 3.742188 -1.742188 3.046875 -2.765625 C 2.347656 -3.796875 1.828125 -4.929688 1.484375 -6.171875 C 1.148438 -7.410156 0.984375 -8.671875 0.984375 -9.953125 C 0.984375 -11.742188 1.285156 -13.410156 1.890625 -14.953125 C 2.503906 -16.492188 3.453125 -17.734375 4.734375 -18.671875 C 6.023438 -19.609375 7.664062 -20.078125 9.65625 -20.078125 C 10.738281 -20.078125 11.738281 -19.847656 12.65625 -19.390625 C 13.582031 -18.929688 14.429688 -18.304688 15.203125 -17.515625 L 15.203125 -19.6875 L 19.046875 -19.6875 L 19.046875 0.046875 C 19.046875 1.890625 18.617188 3.453125 17.765625 4.734375 C 16.910156 6.023438 15.8125 6.988281 14.46875 7.625 C 13.132812 8.269531 11.726562 8.59375 10.25 8.59375 Z M 4.953125 -9.953125 C 4.953125 -8.753906 5.125 -7.59375 5.46875 -6.46875 C 5.8125 -5.34375 6.363281 -4.414062 7.125 -3.6875 C 7.894531 -2.96875 8.921875 -2.609375 10.203125 -2.609375 C 11.578125 -2.609375 12.625 -2.960938 13.34375 -3.671875 C 14.070312 -4.378906 14.5625 -5.300781 14.8125 -6.4375 C 15.070312 -7.582031 15.203125 -8.78125 15.203125 -10.03125 C 15.203125 -11.289062 15.0625 -12.429688 14.78125 -13.453125 C 14.5 -14.484375 14 -15.296875 13.28125 -15.890625 C 12.570312 -16.484375 11.5625 -16.78125 10.25 -16.78125 C 9 -16.78125 7.976562 -16.4375 7.1875 -15.75 C 6.40625 -15.070312 5.835938 -14.210938 5.484375 -13.171875 C 5.128906 -12.140625 4.953125 -11.066406 4.953125 -9.953125 Z M 4.953125 -9.953125 "/></g></g></g><g fill="#363382" fill-opacity="1"><g transform="translate(184.772459, 87.699457)"><g><path d="M 10.546875 0.390625 C 8.585938 0.390625 6.898438 -0.0976562 5.484375 -1.078125 C 4.078125 -2.066406 2.988281 -3.363281 2.21875 -4.96875 C 1.445312 -6.582031 1.0625 -8.316406 1.0625 -10.171875 C 1.0625 -11.992188 1.453125 -13.648438 2.234375 -15.140625 C 3.023438 -16.640625 4.128906 -17.835938 5.546875 -18.734375 C 6.972656 -19.628906 8.613281 -20.078125 10.46875 -20.078125 C 12.375 -20.078125 14.015625 -19.660156 15.390625 -18.828125 C 16.773438 -18.003906 17.851562 -16.867188 18.625 -15.421875 C 19.394531 -13.972656 19.78125 -12.304688 19.78125 -10.421875 L 19.78125 -8.921875 L 5.046875 -8.921875 C 5.128906 -7.953125 5.394531 -7 5.84375 -6.0625 C 6.300781 -5.125 6.9375 -4.347656 7.75 -3.734375 C 8.5625 -3.117188 9.492188 -2.8125 10.546875 -2.8125 C 13.253906 -2.8125 15.035156 -4.097656 15.890625 -6.671875 L 19.34375 -6.671875 C 18.894531 -4.441406 17.878906 -2.707031 16.296875 -1.46875 C 14.710938 -0.226562 12.796875 0.390625 10.546875 0.390625 Z M 5 -11.96875 L 15.8125 -11.96875 C 15.695312 -13.46875 15.132812 -14.648438 14.125 -15.515625 C 13.113281 -16.390625 11.851562 -16.828125 10.34375 -16.828125 C 8.945312 -16.828125 7.75 -16.347656 6.75 -15.390625 C 5.75 -14.441406 5.164062 -13.300781 5 -11.96875 Z M 5 -11.96875 "/></g></g></g><g fill="#363382" fill-opacity="1"><g transform="translate(205.616133, 87.699457)"><g><path d="M 7.78125 0 L -0.171875 -19.6875 L 4.140625 -19.6875 L 9.65625 -4.828125 L 15.203125 -19.6875 L 19.484375 -19.6875 L 11.53125 0 Z M 7.78125 0 "/></g></g></g><g fill="#363382" fill-opacity="1"><g transform="translate(224.922158, 87.699457)"><g><path d="M 2.21875 0 L 2.21875 -19.90625 L 6.015625 -19.90625 L 6.015625 0 Z M 2.21875 -23.453125 L 2.21875 -27.640625 L 6.015625 -27.640625 L 6.015625 -23.453125 Z M 2.21875 -23.453125 "/></g></g></g><g fill="#363382" fill-opacity="1"><g transform="translate(233.080235, 87.699457)"><g><path d="M 2.171875 0 L 2.171875 -19.6875 L 5.9375 -19.6875 L 5.9375 -17.46875 C 6.820312 -18.351562 7.804688 -19.007812 8.890625 -19.4375 C 9.972656 -19.863281 11.023438 -20.078125 12.046875 -20.078125 C 14.015625 -20.078125 15.644531 -19.582031 16.9375 -18.59375 C 18.226562 -17.613281 18.875 -16.3125 18.875 -14.6875 L 18.875 0 L 15.078125 0 L 15.078125 -13.5 C 15.078125 -14.15625 14.890625 -14.734375 14.515625 -15.234375 C 14.148438 -15.734375 13.710938 -16.125 13.203125 -16.40625 C 12.691406 -16.6875 12.191406 -16.828125 11.703125 -16.828125 C 10.910156 -16.828125 10.113281 -16.632812 9.3125 -16.25 C 8.507812 -15.863281 7.8125 -15.359375 7.21875 -14.734375 C 6.625 -14.109375 6.195312 -13.425781 5.9375 -12.6875 L 5.9375 0 Z M 2.171875 0 "/></g></g></g><g fill="#363382" fill-opacity="1"><g transform="translate(253.753064, 87.699457)"><g><path d="M 10.25 8.59375 C 8.3125 8.59375 6.582031 8.117188 5.0625 7.171875 C 3.539062 6.234375 2.410156 4.554688 1.671875 2.140625 L 5.375 2.140625 C 6.007812 3.503906 6.675781 4.390625 7.375 4.796875 C 8.070312 5.210938 9.015625 5.421875 10.203125 5.421875 C 11.117188 5.421875 11.953125 5.191406 12.703125 4.734375 C 13.460938 4.285156 14.066406 3.679688 14.515625 2.921875 C 14.972656 2.171875 15.203125 1.351562 15.203125 0.46875 L 15.203125 -1.921875 C 14.410156 -1.097656 13.566406 -0.472656 12.671875 -0.046875 C 11.773438 0.378906 10.785156 0.59375 9.703125 0.59375 C 8.160156 0.59375 6.835938 0.289062 5.734375 -0.3125 C 4.640625 -0.925781 3.742188 -1.742188 3.046875 -2.765625 C 2.347656 -3.796875 1.828125 -4.929688 1.484375 -6.171875 C 1.148438 -7.410156 0.984375 -8.671875 0.984375 -9.953125 C 0.984375 -11.742188 1.285156 -13.410156 1.890625 -14.953125 C 2.503906 -16.492188 3.453125 -17.734375 4.734375 -18.671875 C 6.023438 -19.609375 7.664062 -20.078125 9.65625 -20.078125 C 10.738281 -20.078125 11.738281 -19.847656 12.65625 -19.390625 C 13.582031 -18.929688 14.429688 -18.304688 15.203125 -17.515625 L 15.203125 -19.6875 L 19.046875 -19.6875 L 19.046875 0.046875 C 19.046875 1.890625 18.617188 3.453125 17.765625 4.734375 C 16.910156 6.023438 15.8125 6.988281 14.46875 7.625 C 13.132812 8.269531 11.726562 8.59375 10.25 8.59375 Z M 4.953125 -9.953125 C 4.953125 -8.753906 5.125 -7.59375 5.46875 -6.46875 C 5.8125 -5.34375 6.363281 -4.414062 7.125 -3.6875 C 7.894531 -2.96875 8.921875 -2.609375 10.203125 -2.609375 C 11.578125 -2.609375 12.625 -2.960938 13.34375 -3.671875 C 14.070312 -4.378906 14.5625 -5.300781 14.8125 -6.4375 C 15.070312 -7.582031 15.203125 -8.78125 15.203125 -10.03125 C 15.203125 -11.289062 15.0625 -12.429688 14.78125 -13.453125 C 14.5 -14.484375 14 -15.296875 13.28125 -15.890625 C 12.570312 -16.484375 11.5625 -16.78125 10.25 -16.78125 C 9 -16.78125 7.976562 -16.4375 7.1875 -15.75 C 6.40625 -15.070312 5.835938 -14.210938 5.484375 -13.171875 C 5.128906 -12.140625 4.953125 -11.066406 4.953125 -9.953125 Z M 4.953125 -9.953125 "/></g></g></g></svg>