<svg xmlns="http://www.w3.org/2000/svg" xmlns:xlink="http://www.w3.org/1999/xlink" width="500" zoomAndPan="magnify" viewBox="0 0 375 112.499997" height="150" preserveAspectRatio="xMidYMid meet" version="1.0"><defs><g/><clipPath id="63f3ad45b5"><path d="M 0.828125 0 L 374.167969 0 L 374.167969 112.003906 L 0.828125 112.003906 Z M 0.828125 0 " clip-rule="nonzero"/></clipPath><clipPath id="cfea05cd3d"><path d="M 12.03125 11.199219 L 62.804688 11.199219 L 62.804688 61.972656 L 12.03125 61.972656 Z M 12.03125 11.199219 " clip-rule="nonzero"/></clipPath><clipPath id="a70361aab8"><path d="M 62.660156 43.261719 L 102.230469 43.261719 L 102.230469 96.277344 L 62.660156 96.277344 Z M 62.660156 43.261719 " clip-rule="nonzero"/></clipPath></defs><g clip-path="url(#63f3ad45b5)"><path fill="#ffffff" d="M 0.828125 0 L 374.171875 0 L 374.171875 112.003906 L 0.828125 112.003906 Z M 0.828125 0 " fill-opacity="1" fill-rule="nonzero"/><path fill="#ffffff" d="M 0.828125 0 L 374.171875 0 L 374.171875 112.003906 L 0.828125 112.003906 Z M 0.828125 0 " fill-opacity="1" fill-rule="nonzero"/></g><g clip-path="url(#cfea05cd3d)"><path fill="#6ae66f" d="M 37.339844 11.199219 C 23.382812 11.199219 12.035156 22.558594 12.035156 36.515625 C 12.035156 50.476562 23.382812 61.824219 37.339844 61.824219 C 51.300781 61.824219 62.648438 50.476562 62.648438 36.515625 C 62.648438 22.558594 51.300781 11.199219 37.339844 11.199219 Z M 37.339844 57.722656 C 25.648438 57.722656 16.132812 48.207031 16.132812 36.515625 C 16.132812 24.824219 25.648438 15.308594 37.339844 15.308594 C 49.03125 15.308594 58.546875 24.824219 58.546875 36.515625 C 58.546875 48.207031 49.03125 57.722656 37.339844 57.722656 Z M 37.339844 57.722656 " fill-opacity="1" fill-rule="nonzero"/></g><path fill="#6ae66f" d="M 48.609375 35.757812 L 30.671875 25.402344 C 30.09375 25.066406 29.363281 25.484375 29.363281 26.152344 L 29.363281 46.871094 C 29.363281 47.539062 30.09375 47.953125 30.671875 47.621094 L 48.617188 37.265625 C 49.195312 36.929688 49.195312 36.089844 48.609375 35.757812 Z M 48.609375 35.757812 " fill-opacity="1" fill-rule="nonzero"/><path fill="#0097f5" d="M 86.632812 82.640625 C 85.527344 82.640625 84.632812 81.742188 84.632812 80.636719 C 84.632812 79.53125 85.527344 78.636719 86.632812 78.636719 C 87.738281 78.636719 88.636719 79.53125 88.636719 80.636719 C 88.636719 81.742188 87.738281 82.640625 86.632812 82.640625 Z M 78.210938 86.046875 C 76.328125 86.046875 74.804688 84.523438 74.804688 82.644531 C 74.804688 80.761719 76.328125 79.238281 78.210938 79.238281 C 80.089844 79.238281 81.613281 80.761719 81.613281 82.644531 C 81.613281 84.523438 80.089844 86.046875 78.210938 86.046875 Z M 95.238281 84.964844 C 94.351562 83.046875 93.277344 80.828125 92.339844 78.894531 L 91.75 77.6875 C 91.53125 77.238281 91.324219 76.804688 91.109375 76.363281 L 73.933594 76.363281 C 73.921875 76.363281 73.914062 76.363281 73.902344 76.359375 C 73.660156 76.863281 73.421875 77.359375 73.175781 77.863281 C 72.199219 79.867188 71.222656 81.875 70.355469 83.71875 C 69.121094 86.335938 68.28125 88.265625 67.859375 89.453125 C 67.621094 90.113281 67.992188 91.363281 69.308594 91.363281 L 95.898438 91.363281 C 97.144531 91.363281 97.390625 90.113281 97.152344 89.449219 C 96.796875 88.453125 96.152344 86.941406 95.238281 84.964844 " fill-opacity="1" fill-rule="nonzero"/><path fill="#0097f5" d="M 81.222656 71.011719 C 81.222656 72.671875 82.566406 74.015625 84.226562 74.015625 C 85.882812 74.015625 87.226562 72.671875 87.226562 71.011719 C 87.226562 69.355469 85.882812 68.011719 84.226562 68.011719 C 82.566406 68.011719 81.222656 69.355469 81.222656 71.011719 " fill-opacity="1" fill-rule="nonzero"/><path fill="#0097f5" d="M 82.21875 63.074219 C 83.152344 63.074219 83.90625 62.320312 83.90625 61.390625 C 83.90625 60.457031 83.152344 59.703125 82.21875 59.703125 C 81.289062 59.703125 80.53125 60.457031 80.53125 61.390625 C 80.53125 62.320312 81.289062 63.074219 82.21875 63.074219 " fill-opacity="1" fill-rule="nonzero"/><g clip-path="url(#a70361aab8)"><path fill="#0097f5" d="M 98.929688 91.875 C 98.742188 92.269531 98.460938 92.539062 98.066406 92.75 C 97.675781 92.960938 97.179688 93.070312 96.734375 93.070312 L 68.277344 93.070312 C 67.675781 93.074219 67.007812 92.867188 66.589844 92.519531 C 66.375 92.34375 66.207031 92.140625 66.082031 91.875 C 65.957031 91.609375 65.867188 91.273438 65.867188 90.796875 C 65.867188 90.308594 65.96875 89.671875 66.253906 88.878906 C 66.742188 87.496094 67.6875 85.375 68.8125 82.992188 C 70.503906 79.402344 72.605469 75.1875 74.292969 71.617188 C 75.136719 69.828125 75.878906 68.207031 76.421875 66.878906 C 76.691406 66.210938 76.914062 65.621094 77.082031 65.097656 C 77.164062 64.835938 77.230469 64.589844 77.285156 64.347656 C 77.335938 64.101562 77.375 63.867188 77.375 63.574219 C 77.375 61.734375 77.375 52.496094 77.375 47.90625 L 87.632812 47.90625 C 87.632812 52.496094 87.632812 61.734375 87.632812 63.574219 C 87.636719 63.960938 87.703125 64.261719 87.785156 64.59375 C 87.941406 65.203125 88.195312 65.894531 88.523438 66.710938 C 89.671875 69.554688 91.800781 73.886719 93.871094 78.148438 C 94.90625 80.277344 95.925781 82.382812 96.785156 84.25 C 97.648438 86.113281 98.355469 87.746094 98.757812 88.878906 C 99.042969 89.671875 99.144531 90.308594 99.144531 90.796875 C 99.144531 91.273438 99.054688 91.609375 98.929688 91.875 Z M 101.78125 87.800781 C 101.210938 86.203125 100.242188 84.050781 99.101562 81.625 C 97.390625 77.992188 95.285156 73.769531 93.617188 70.246094 C 92.785156 68.484375 92.0625 66.894531 91.558594 65.664062 C 91.308594 65.050781 91.113281 64.523438 90.992188 64.136719 C 90.929688 63.941406 90.886719 63.78125 90.863281 63.675781 L 90.84375 63.5625 L 90.84375 63.554688 C 90.84375 61.683594 90.84375 52.480469 90.84375 47.90625 L 92.039062 47.90625 C 93.320312 47.90625 94.359375 46.867188 94.359375 45.585938 C 94.359375 44.300781 93.320312 43.261719 92.039062 43.261719 L 72.972656 43.261719 C 71.691406 43.261719 70.652344 44.300781 70.652344 45.585938 C 70.652344 46.867188 71.691406 47.90625 72.972656 47.90625 L 74.167969 47.90625 C 74.167969 52.480469 74.167969 61.679688 74.167969 63.554688 C 74.167969 63.582031 74.140625 63.734375 74.078125 63.941406 C 73.960938 64.359375 73.726562 64.996094 73.410156 65.761719 C 72.300781 68.464844 70.191406 72.757812 68.15625 76.949219 C 67.136719 79.046875 66.132812 81.125 65.273438 82.992188 C 64.410156 84.863281 63.691406 86.507812 63.230469 87.800781 C 62.847656 88.871094 62.660156 89.867188 62.660156 90.796875 C 62.65625 91.695312 62.839844 92.527344 63.179688 93.246094 C 63.691406 94.328125 64.539062 95.113281 65.449219 95.589844 C 66.363281 96.070312 67.34375 96.277344 68.277344 96.277344 L 96.734375 96.277344 C 97.976562 96.273438 99.316406 95.914062 100.441406 95.011719 C 101 94.558594 101.492188 93.964844 101.832031 93.246094 C 102.171875 92.527344 102.351562 91.695312 102.351562 90.796875 C 102.351562 89.867188 102.164062 88.871094 101.78125 87.800781 " fill-opacity="1" fill-rule="nonzero"/></g><g fill="#363382" fill-opacity="1"><g transform="translate(111.050766, 45.138619)"><g><path d="M 0.8125 1.625 L 12.609375 -23.0625 L 15.171875 -23.0625 L 3.453125 1.625 Z M 0.8125 1.625 "/></g></g></g><g fill="#363382" fill-opacity="1"><g transform="translate(127.110648, 45.138619)"><g><path d="M 9.390625 0.390625 C 7.628906 0.390625 6.128906 -0.09375 4.890625 -1.0625 C 3.648438 -2.03125 2.703125 -3.316406 2.046875 -4.921875 C 1.390625 -6.535156 1.0625 -8.269531 1.0625 -10.125 C 1.0625 -12.09375 1.425781 -13.84375 2.15625 -15.375 C 2.882812 -16.914062 3.890625 -18.125 5.171875 -19 C 6.453125 -19.882812 7.945312 -20.328125 9.65625 -20.328125 C 10.875 -20.328125 11.945312 -20.0625 12.875 -19.53125 C 13.800781 -19.007812 14.609375 -18.378906 15.296875 -17.640625 L 15.296875 -27.640625 L 19.140625 -27.640625 L 19.140625 0 L 15.296875 0 L 15.296875 -2.171875 C 14.441406 -1.234375 13.515625 -0.570312 12.515625 -0.1875 C 11.515625 0.195312 10.472656 0.390625 9.390625 0.390625 Z M 5.046875 -10.125 C 5.046875 -8.8125 5.269531 -7.597656 5.71875 -6.484375 C 6.175781 -5.378906 6.8125 -4.488281 7.625 -3.8125 C 8.4375 -3.144531 9.367188 -2.8125 10.421875 -2.8125 C 11.671875 -2.8125 12.648438 -3.140625 13.359375 -3.796875 C 14.078125 -4.453125 14.578125 -5.332031 14.859375 -6.4375 C 15.148438 -7.550781 15.296875 -8.78125 15.296875 -10.125 C 15.296875 -12.289062 14.832031 -13.976562 13.90625 -15.1875 C 12.976562 -16.394531 11.816406 -17 10.421875 -17 C 9.304688 -17 8.347656 -16.675781 7.546875 -16.03125 C 6.753906 -15.394531 6.140625 -14.554688 5.703125 -13.515625 C 5.265625 -12.484375 5.046875 -11.351562 5.046875 -10.125 Z M 5.046875 -10.125 "/></g></g></g><g fill="#363382" fill-opacity="1"><g transform="translate(148.167892, 45.138619)"><g><path d="M 10.546875 0.390625 C 8.585938 0.390625 6.898438 -0.0976562 5.484375 -1.078125 C 4.078125 -2.066406 2.988281 -3.363281 2.21875 -4.96875 C 1.445312 -6.582031 1.0625 -8.316406 1.0625 -10.171875 C 1.0625 -11.992188 1.453125 -13.648438 2.234375 -15.140625 C 3.023438 -16.640625 4.128906 -17.835938 5.546875 -18.734375 C 6.972656 -19.628906 8.613281 -20.078125 10.46875 -20.078125 C 12.375 -20.078125 14.015625 -19.660156 15.390625 -18.828125 C 16.773438 -18.003906 17.851562 -16.867188 18.625 -15.421875 C 19.394531 -13.972656 19.78125 -12.304688 19.78125 -10.421875 L 19.78125 -8.921875 L 5.046875 -8.921875 C 5.128906 -7.953125 5.394531 -7 5.84375 -6.0625 C 6.300781 -5.125 6.9375 -4.347656 7.75 -3.734375 C 8.5625 -3.117188 9.492188 -2.8125 10.546875 -2.8125 C 13.253906 -2.8125 15.035156 -4.097656 15.890625 -6.671875 L 19.34375 -6.671875 C 18.894531 -4.441406 17.878906 -2.707031 16.296875 -1.46875 C 14.710938 -0.226562 12.796875 0.390625 10.546875 0.390625 Z M 5 -11.96875 L 15.8125 -11.96875 C 15.695312 -13.46875 15.132812 -14.648438 14.125 -15.515625 C 13.113281 -16.390625 11.851562 -16.828125 10.34375 -16.828125 C 8.945312 -16.828125 7.75 -16.347656 6.75 -15.390625 C 5.75 -14.441406 5.164062 -13.300781 5 -11.96875 Z M 5 -11.96875 "/></g></g></g><g fill="#363382" fill-opacity="1"><g transform="translate(169.011566, 45.138619)"><g><path d="M 2.09375 0 L 2.09375 -19.6875 L 5.890625 -19.6875 L 5.890625 -17.46875 C 6.722656 -18.351562 7.648438 -19.007812 8.671875 -19.4375 C 9.691406 -19.863281 10.6875 -20.078125 11.65625 -20.078125 C 12.6875 -20.078125 13.671875 -19.847656 14.609375 -19.390625 C 15.546875 -18.929688 16.375 -18.25 17.09375 -17.34375 C 17.914062 -18.28125 18.890625 -18.976562 20.015625 -19.4375 C 21.140625 -19.894531 22.226562 -20.125 23.28125 -20.125 C 25.15625 -20.125 26.734375 -19.628906 28.015625 -18.640625 C 29.304688 -17.660156 29.953125 -16.359375 29.953125 -14.734375 L 29.953125 0 L 26.140625 0 L 26.140625 -13.671875 C 26.140625 -14.785156 25.773438 -15.585938 25.046875 -16.078125 C 24.328125 -16.578125 23.582031 -16.828125 22.8125 -16.828125 C 22.101562 -16.828125 21.367188 -16.617188 20.609375 -16.203125 C 19.859375 -15.796875 19.222656 -15.28125 18.703125 -14.65625 C 18.191406 -14.03125 17.9375 -13.390625 17.9375 -12.734375 L 17.9375 0 L 14.09375 0 L 14.09375 -13.671875 C 14.09375 -14.785156 13.726562 -15.585938 13 -16.078125 C 12.28125 -16.578125 11.535156 -16.828125 10.765625 -16.828125 C 10.054688 -16.828125 9.320312 -16.617188 8.5625 -16.203125 C 7.8125 -15.796875 7.175781 -15.28125 6.65625 -14.65625 C 6.144531 -14.03125 5.890625 -13.390625 5.890625 -12.734375 L 5.890625 0 Z M 2.09375 0 "/></g></g></g><g fill="#363382" fill-opacity="1"><g transform="translate(200.576069, 45.138619)"><g><path d="M 10.640625 0.390625 C 8.585938 0.390625 6.84375 -0.0703125 5.40625 -1 C 3.96875 -1.925781 2.867188 -3.164062 2.109375 -4.71875 C 1.359375 -6.269531 0.984375 -7.972656 0.984375 -9.828125 C 0.984375 -11.679688 1.359375 -13.382812 2.109375 -14.9375 C 2.867188 -16.488281 3.96875 -17.734375 5.40625 -18.671875 C 6.84375 -19.609375 8.597656 -20.078125 10.671875 -20.078125 C 12.703125 -20.078125 14.421875 -19.609375 15.828125 -18.671875 C 17.234375 -17.734375 18.3125 -16.488281 19.0625 -14.9375 C 19.820312 -13.382812 20.203125 -11.679688 20.203125 -9.828125 C 20.203125 -7.972656 19.820312 -6.269531 19.0625 -4.71875 C 18.3125 -3.164062 17.222656 -1.925781 15.796875 -1 C 14.378906 -0.0703125 12.660156 0.390625 10.640625 0.390625 Z M 4.953125 -9.828125 C 4.953125 -7.660156 5.441406 -5.957031 6.421875 -4.71875 C 7.410156 -3.476562 8.816406 -2.859375 10.640625 -2.859375 C 12.429688 -2.859375 13.800781 -3.476562 14.75 -4.71875 C 15.707031 -5.957031 16.1875 -7.660156 16.1875 -9.828125 C 16.1875 -11.929688 15.679688 -13.625 14.671875 -14.90625 C 13.660156 -16.1875 12.328125 -16.828125 10.671875 -16.828125 C 8.878906 -16.828125 7.476562 -16.203125 6.46875 -14.953125 C 5.457031 -13.703125 4.953125 -11.992188 4.953125 -9.828125 Z M 4.953125 -9.828125 "/></g></g></g><g fill="#363382" fill-opacity="1"><g transform="translate(221.761444, 45.138619)"><g/></g></g><g fill="#363382" fill-opacity="1"><g transform="translate(232.439559, 45.138619)"><g><path d="M 10.546875 0.390625 C 8.585938 0.390625 6.898438 -0.0976562 5.484375 -1.078125 C 4.078125 -2.066406 2.988281 -3.363281 2.21875 -4.96875 C 1.445312 -6.582031 1.0625 -8.316406 1.0625 -10.171875 C 1.0625 -11.992188 1.453125 -13.648438 2.234375 -15.140625 C 3.023438 -16.640625 4.128906 -17.835938 5.546875 -18.734375 C 6.972656 -19.628906 8.613281 -20.078125 10.46875 -20.078125 C 12.375 -20.078125 14.015625 -19.660156 15.390625 -18.828125 C 16.773438 -18.003906 17.851562 -16.867188 18.625 -15.421875 C 19.394531 -13.972656 19.78125 -12.304688 19.78125 -10.421875 L 19.78125 -8.921875 L 5.046875 -8.921875 C 5.128906 -7.953125 5.394531 -7 5.84375 -6.0625 C 6.300781 -5.125 6.9375 -4.347656 7.75 -3.734375 C 8.5625 -3.117188 9.492188 -2.8125 10.546875 -2.8125 C 13.253906 -2.8125 15.035156 -4.097656 15.890625 -6.671875 L 19.34375 -6.671875 C 18.894531 -4.441406 17.878906 -2.707031 16.296875 -1.46875 C 14.710938 -0.226562 12.796875 0.390625 10.546875 0.390625 Z M 5 -11.96875 L 15.8125 -11.96875 C 15.695312 -13.46875 15.132812 -14.648438 14.125 -15.515625 C 13.113281 -16.390625 11.851562 -16.828125 10.34375 -16.828125 C 8.945312 -16.828125 7.75 -16.347656 6.75 -15.390625 C 5.75 -14.441406 5.164062 -13.300781 5 -11.96875 Z M 5 -11.96875 "/></g></g></g><g fill="#363382" fill-opacity="1"><g transform="translate(253.283233, 45.138619)"><g><path d="M 2.171875 0 L 2.171875 -19.6875 L 5.9375 -19.6875 L 5.9375 -17.46875 C 6.820312 -18.351562 7.804688 -19.007812 8.890625 -19.4375 C 9.972656 -19.863281 11.023438 -20.078125 12.046875 -20.078125 C 14.015625 -20.078125 15.644531 -19.582031 16.9375 -18.59375 C 18.226562 -17.613281 18.875 -16.3125 18.875 -14.6875 L 18.875 0 L 15.078125 0 L 15.078125 -13.5 C 15.078125 -14.15625 14.890625 -14.734375 14.515625 -15.234375 C 14.148438 -15.734375 13.710938 -16.125 13.203125 -16.40625 C 12.691406 -16.6875 12.191406 -16.828125 11.703125 -16.828125 C 10.910156 -16.828125 10.113281 -16.632812 9.3125 -16.25 C 8.507812 -15.863281 7.8125 -15.359375 7.21875 -14.734375 C 6.625 -14.109375 6.195312 -13.425781 5.9375 -12.6875 L 5.9375 0 Z M 2.171875 0 "/></g></g></g><g fill="#363382" fill-opacity="1"><g transform="translate(273.956061, 45.138619)"><g/></g></g><g fill="#363382" fill-opacity="1"><g transform="translate(284.634177, 45.138619)"><g><path d="M 2.21875 0 L 2.21875 -27.640625 L 6.015625 -27.640625 L 6.015625 0 Z M 2.21875 0 "/></g></g></g><g fill="#363382" fill-opacity="1"><g transform="translate(292.792254, 45.138619)"><g><path d="M 7.265625 0.390625 C 5.523438 0.390625 4.054688 -0.117188 2.859375 -1.140625 C 1.660156 -2.171875 1.0625 -3.597656 1.0625 -5.421875 C 1.0625 -6.679688 1.351562 -7.703125 1.9375 -8.484375 C 2.519531 -9.265625 3.273438 -9.894531 4.203125 -10.375 C 5.128906 -10.863281 6.117188 -11.253906 7.171875 -11.546875 C 8.222656 -11.847656 9.222656 -12.113281 10.171875 -12.34375 L 12.265625 -12.859375 C 12.578125 -12.941406 12.972656 -13.050781 13.453125 -13.1875 C 13.941406 -13.332031 14.1875 -13.632812 14.1875 -14.09375 C 14.1875 -14.925781 13.957031 -15.53125 13.5 -15.90625 C 13.039062 -16.289062 12.484375 -16.539062 11.828125 -16.65625 C 11.171875 -16.769531 10.519531 -16.828125 9.875 -16.828125 C 8.8125 -16.828125 7.867188 -16.632812 7.046875 -16.25 C 6.222656 -15.863281 5.78125 -15.0625 5.71875 -13.84375 L 1.84375 -13.84375 C 1.894531 -15.269531 2.328125 -16.441406 3.140625 -17.359375 C 3.953125 -18.285156 4.96875 -18.96875 6.1875 -19.40625 C 7.414062 -19.851562 8.65625 -20.078125 9.90625 -20.078125 C 11.164062 -20.078125 12.425781 -19.882812 13.6875 -19.5 C 14.957031 -19.113281 16.007812 -18.484375 16.84375 -17.609375 C 17.6875 -16.742188 18.109375 -15.570312 18.109375 -14.09375 L 18.109375 -4.09375 C 18.109375 -3.84375 18.207031 -3.566406 18.40625 -3.265625 C 18.601562 -2.960938 18.847656 -2.8125 19.140625 -2.8125 C 19.367188 -2.8125 19.609375 -2.875 19.859375 -3 C 20.117188 -3.132812 20.347656 -3.257812 20.546875 -3.375 L 20.546875 -0.078125 C 20.085938 0.0546875 19.648438 0.164062 19.234375 0.25 C 18.828125 0.34375 18.382812 0.390625 17.90625 0.390625 C 16.9375 0.390625 16.164062 0.117188 15.59375 -0.421875 C 15.019531 -0.960938 14.648438 -1.691406 14.484375 -2.609375 C 12.484375 -0.609375 10.078125 0.390625 7.265625 0.390625 Z M 5.046875 -5.515625 C 5.046875 -4.546875 5.425781 -3.851562 6.1875 -3.4375 C 6.957031 -3.019531 7.769531 -2.8125 8.625 -2.8125 C 9.882812 -2.8125 11.007812 -3.0625 12 -3.5625 C 13 -4.0625 13.726562 -4.925781 14.1875 -6.15625 L 14.1875 -10.546875 C 13.726562 -10.347656 13.242188 -10.1875 12.734375 -10.0625 C 12.222656 -9.9375 11.722656 -9.800781 11.234375 -9.65625 C 10.722656 -9.507812 10.109375 -9.34375 9.390625 -9.15625 C 8.679688 -8.976562 8 -8.738281 7.34375 -8.4375 C 6.6875 -8.132812 6.140625 -7.75 5.703125 -7.28125 C 5.265625 -6.8125 5.046875 -6.222656 5.046875 -5.515625 Z M 5.046875 -5.515625 "/></g></g></g><g fill="#363382" fill-opacity="1"><g transform="translate(313.465083, 45.138619)"><g><path d="M 11.75 0.390625 C 10.695312 0.390625 9.65625 0.195312 8.625 -0.1875 C 7.601562 -0.570312 6.664062 -1.234375 5.8125 -2.171875 L 5.8125 0 L 1.96875 0 L 1.96875 -27.640625 L 5.8125 -27.640625 L 5.8125 -17.640625 C 6.519531 -18.410156 7.347656 -19.050781 8.296875 -19.5625 C 9.253906 -20.070312 10.316406 -20.328125 11.484375 -20.328125 C 13.222656 -20.328125 14.710938 -19.878906 15.953125 -18.984375 C 17.191406 -18.085938 18.144531 -16.867188 18.8125 -15.328125 C 19.488281 -13.796875 19.828125 -12.0625 19.828125 -10.125 C 19.828125 -8.332031 19.53125 -6.628906 18.9375 -5.015625 C 18.351562 -3.410156 17.460938 -2.109375 16.265625 -1.109375 C 15.078125 -0.109375 13.570312 0.390625 11.75 0.390625 Z M 5.859375 -10.125 C 5.859375 -8.78125 6 -7.550781 6.28125 -6.4375 C 6.5625 -5.332031 7.066406 -4.453125 7.796875 -3.796875 C 8.523438 -3.140625 9.515625 -2.8125 10.765625 -2.8125 C 11.816406 -2.8125 12.71875 -3.140625 13.46875 -3.796875 C 14.226562 -4.453125 14.8125 -5.332031 15.21875 -6.4375 C 15.632812 -7.550781 15.84375 -8.78125 15.84375 -10.125 C 15.84375 -11.351562 15.644531 -12.484375 15.25 -13.515625 C 14.851562 -14.554688 14.285156 -15.394531 13.546875 -16.03125 C 12.804688 -16.675781 11.894531 -17 10.8125 -17 C 9.351562 -17 8.160156 -16.394531 7.234375 -15.1875 C 6.316406 -13.976562 5.859375 -12.289062 5.859375 -10.125 Z M 5.859375 -10.125 "/></g></g></g><g fill="#363382" fill-opacity="1"><g transform="translate(111.050766, 87.699457)"><g><path d="M 10.640625 0.390625 C 8.585938 0.390625 6.84375 -0.0703125 5.40625 -1 C 3.96875 -1.925781 2.867188 -3.164062 2.109375 -4.71875 C 1.359375 -6.269531 0.984375 -7.972656 0.984375 -9.828125 C 0.984375 -11.679688 1.359375 -13.382812 2.109375 -14.9375 C 2.867188 -16.488281 3.96875 -17.734375 5.40625 -18.671875 C 6.84375 -19.609375 8.597656 -20.078125 10.671875 -20.078125 C 12.703125 -20.078125 14.421875 -19.609375 15.828125 -18.671875 C 17.234375 -17.734375 18.3125 -16.488281 19.0625 -14.9375 C 19.820312 -13.382812 20.203125 -11.679688 20.203125 -9.828125 C 20.203125 -7.972656 19.820312 -6.269531 19.0625 -4.71875 C 18.3125 -3.164062 17.222656 -1.925781 15.796875 -1 C 14.378906 -0.0703125 12.660156 0.390625 10.640625 0.390625 Z M 4.953125 -9.828125 C 4.953125 -7.660156 5.441406 -5.957031 6.421875 -4.71875 C 7.410156 -3.476562 8.816406 -2.859375 10.640625 -2.859375 C 12.429688 -2.859375 13.800781 -3.476562 14.75 -4.71875 C 15.707031 -5.957031 16.1875 -7.660156 16.1875 -9.828125 C 16.1875 -11.929688 15.679688 -13.625 14.671875 -14.90625 C 13.660156 -16.1875 12.328125 -16.828125 10.671875 -16.828125 C 8.878906 -16.828125 7.476562 -16.203125 6.46875 -14.953125 C 5.457031 -13.703125 4.953125 -11.992188 4.953125 -9.828125 Z M 4.953125 -9.828125 "/></g></g></g><g fill="#363382" fill-opacity="1"><g transform="translate(132.236141, 87.699457)"><g><path d="M 2.09375 0 L 2.09375 -19.6875 L 5.890625 -19.6875 L 5.890625 -17.46875 C 6.722656 -18.351562 7.648438 -19.007812 8.671875 -19.4375 C 9.691406 -19.863281 10.6875 -20.078125 11.65625 -20.078125 C 12.6875 -20.078125 13.671875 -19.847656 14.609375 -19.390625 C 15.546875 -18.929688 16.375 -18.25 17.09375 -17.34375 C 17.914062 -18.28125 18.890625 -18.976562 20.015625 -19.4375 C 21.140625 -19.894531 22.226562 -20.125 23.28125 -20.125 C 25.15625 -20.125 26.734375 -19.628906 28.015625 -18.640625 C 29.304688 -17.660156 29.953125 -16.359375 29.953125 -14.734375 L 29.953125 0 L 26.140625 0 L 26.140625 -13.671875 C 26.140625 -14.785156 25.773438 -15.585938 25.046875 -16.078125 C 24.328125 -16.578125 23.582031 -16.828125 22.8125 -16.828125 C 22.101562 -16.828125 21.367188 -16.617188 20.609375 -16.203125 C 19.859375 -15.796875 19.222656 -15.28125 18.703125 -14.65625 C 18.191406 -14.03125 17.9375 -13.390625 17.9375 -12.734375 L 17.9375 0 L 14.09375 0 L 14.09375 -13.671875 C 14.09375 -14.785156 13.726562 -15.585938 13 -16.078125 C 12.28125 -16.578125 11.535156 -16.828125 10.765625 -16.828125 C 10.054688 -16.828125 9.320312 -16.617188 8.5625 -16.203125 C 7.8125 -15.796875 7.175781 -15.28125 6.65625 -14.65625 C 6.144531 -14.03125 5.890625 -13.390625 5.890625 -12.734375 L 5.890625 0 Z M 2.09375 0 "/></g></g></g><g fill="#363382" fill-opacity="1"><g transform="translate(163.800644, 87.699457)"><g><path d="M 10.25 8.59375 C 8.3125 8.59375 6.582031 8.117188 5.0625 7.171875 C 3.539062 6.234375 2.410156 4.554688 1.671875 2.140625 L 5.375 2.140625 C 6.007812 3.503906 6.675781 4.390625 7.375 4.796875 C 8.070312 5.210938 9.015625 5.421875 10.203125 5.421875 C 11.117188 5.421875 11.953125 5.191406 12.703125 4.734375 C 13.460938 4.285156 14.066406 3.679688 14.515625 2.921875 C 14.972656 2.171875 15.203125 1.351562 15.203125 0.46875 L 15.203125 -1.921875 C 14.410156 -1.097656 13.566406 -0.472656 12.671875 -0.046875 C 11.773438 0.378906 10.785156 0.59375 9.703125 0.59375 C 8.160156 0.59375 6.835938 0.289062 5.734375 -0.3125 C 4.640625 -0.925781 3.742188 -1.742188 3.046875 -2.765625 C 2.347656 -3.796875 1.828125 -4.929688 1.484375 -6.171875 C 1.148438 -7.410156 0.984375 -8.671875 0.984375 -9.953125 C 0.984375 -11.742188 1.285156 -13.410156 1.890625 -14.953125 C 2.503906 -16.492188 3.453125 -17.734375 4.734375 -18.671875 C 6.023438 -19.609375 7.664062 -20.078125 9.65625 -20.078125 C 10.738281 -20.078125 11.738281 -19.847656 12.65625 -19.390625 C 13.582031 -18.929688 14.429688 -18.304688 15.203125 -17.515625 L 15.203125 -19.6875 L 19.046875 -19.6875 L 19.046875 0.046875 C 19.046875 1.890625 18.617188 3.453125 17.765625 4.734375 C 16.910156 6.023438 15.8125 6.988281 14.46875 7.625 C 13.132812 8.269531 11.726562 8.59375 10.25 8.59375 Z M 4.953125 -9.953125 C 4.953125 -8.753906 5.125 -7.59375 5.46875 -6.46875 C 5.8125 -5.34375 6.363281 -4.414062 7.125 -3.6875 C 7.894531 -2.96875 8.921875 -2.609375 10.203125 -2.609375 C 11.578125 -2.609375 12.625 -2.960938 13.34375 -3.671875 C 14.070312 -4.378906 14.5625 -5.300781 14.8125 -6.4375 C 15.070312 -7.582031 15.203125 -8.78125 15.203125 -10.03125 C 15.203125 -11.289062 15.0625 -12.429688 14.78125 -13.453125 C 14.5 -14.484375 14 -15.296875 13.28125 -15.890625 C 12.570312 -16.484375 11.5625 -16.78125 10.25 -16.78125 C 9 -16.78125 7.976562 -16.4375 7.1875 -15.75 C 6.40625 -15.070312 5.835938 -14.210938 5.484375 -13.171875 C 5.128906 -12.140625 4.953125 -11.066406 4.953125 -9.953125 Z M 4.953125 -9.953125 "/></g></g></g><g fill="#363382" fill-opacity="1"><g transform="translate(184.772459, 87.699457)"><g><path d="M 10.546875 0.390625 C 8.585938 0.390625 6.898438 -0.0976562 5.484375 -1.078125 C 4.078125 -2.066406 2.988281 -3.363281 2.21875 -4.96875 C 1.445312 -6.582031 1.0625 -8.316406 1.0625 -10.171875 C 1.0625 -11.992188 1.453125 -13.648438 2.234375 -15.140625 C 3.023438 -16.640625 4.128906 -17.835938 5.546875 -18.734375 C 6.972656 -19.628906 8.613281 -20.078125 10.46875 -20.078125 C 12.375 -20.078125 14.015625 -19.660156 15.390625 -18.828125 C 16.773438 -18.003906 17.851562 -16.867188 18.625 -15.421875 C 19.394531 -13.972656 19.78125 -12.304688 19.78125 -10.421875 L 19.78125 -8.921875 L 5.046875 -8.921875 C 5.128906 -7.953125 5.394531 -7 5.84375 -6.0625 C 6.300781 -5.125 6.9375 -4.347656 7.75 -3.734375 C 8.5625 -3.117188 9.492188 -2.8125 10.546875 -2.8125 C 13.253906 -2.8125 15.035156 -4.097656 15.890625 -6.671875 L 19.34375 -6.671875 C 18.894531 -4.441406 17.878906 -2.707031 16.296875 -1.46875 C 14.710938 -0.226562 12.796875 0.390625 10.546875 0.390625 Z M 5 -11.96875 L 15.8125 -11.96875 C 15.695312 -13.46875 15.132812 -14.648438 14.125 -15.515625 C 13.113281 -16.390625 11.851562 -16.828125 10.34375 -16.828125 C 8.945312 -16.828125 7.75 -16.347656 6.75 -15.390625 C 5.75 -14.441406 5.164062 -13.300781 5 -11.96875 Z M 5 -11.96875 "/></g></g></g><g fill="#363382" fill-opacity="1"><g transform="translate(205.616133, 87.699457)"><g><path d="M 7.78125 0 L -0.171875 -19.6875 L 4.140625 -19.6875 L 9.65625 -4.828125 L 15.203125 -19.6875 L 19.484375 -19.6875 L 11.53125 0 Z M 7.78125 0 "/></g></g></g><g fill="#363382" fill-opacity="1"><g transform="translate(224.922158, 87.699457)"><g><path d="M 2.21875 0 L 2.21875 -19.90625 L 6.015625 -19.90625 L 6.015625 0 Z M 2.21875 -23.453125 L 2.21875 -27.640625 L 6.015625 -27.640625 L 6.015625 -23.453125 Z M 2.21875 -23.453125 "/></g></g></g><g fill="#363382" fill-opacity="1"><g transform="translate(233.080235, 87.699457)"><g><path d="M 2.171875 0 L 2.171875 -19.6875 L 5.9375 -19.6875 L 5.9375 -17.46875 C 6.820312 -18.351562 7.804688 -19.007812 8.890625 -19.4375 C 9.972656 -19.863281 11.023438 -20.078125 12.046875 -20.078125 C 14.015625 -20.078125 15.644531 -19.582031 16.9375 -18.59375 C 18.226562 -17.613281 18.875 -16.3125 18.875 -14.6875 L 18.875 0 L 15.078125 0 L 15.078125 -13.5 C 15.078125 -14.15625 14.890625 -14.734375 14.515625 -15.234375 C 14.148438 -15.734375 13.710938 -16.125 13.203125 -16.40625 C 12.691406 -16.6875 12.191406 -16.828125 11.703125 -16.828125 C 10.910156 -16.828125 10.113281 -16.632812 9.3125 -16.25 C 8.507812 -15.863281 7.8125 -15.359375 7.21875 -14.734375 C 6.625 -14.109375 6.195312 -13.425781 5.9375 -12.6875 L 5.9375 0 Z M 2.171875 0 "/></g></g></g><g fill="#363382" fill-opacity="1"><g transform="translate(253.753064, 87.699457)"><g><path d="M 10.25 8.59375 C 8.3125 8.59375 6.582031 8.117188 5.0625 7.171875 C 3.539062 6.234375 2.410156 4.554688 1.671875 2.140625 L 5.375 2.140625 C 6.007812 3.503906 6.675781 4.390625 7.375 4.796875 C 8.070312 5.210938 9.015625 5.421875 10.203125 5.421875 C 11.117188 5.421875 11.953125 5.191406 12.703125 4.734375 C 13.460938 4.285156 14.066406 3.679688 14.515625 2.921875 C 14.972656 2.171875 15.203125 1.351562 15.203125 0.46875 L 15.203125 -1.921875 C 14.410156 -1.097656 13.566406 -0.472656 12.671875 -0.046875 C 11.773438 0.378906 10.785156 0.59375 9.703125 0.59375 C 8.160156 0.59375 6.835938 0.289062 5.734375 -0.3125 C 4.640625 -0.925781 3.742188 -1.742188 3.046875 -2.765625 C 2.347656 -3.796875 1.828125 -4.929688 1.484375 -6.171875 C 1.148438 -7.410156 0.984375 -8.671875 0.984375 -9.953125 C 0.984375 -11.742188 1.285156 -13.410156 1.890625 -14.953125 C 2.503906 -16.492188 3.453125 -17.734375 4.734375 -18.671875 C 6.023438 -19.609375 7.664062 -20.078125 9.65625 -20.078125 C 10.738281 -20.078125 11.738281 -19.847656 12.65625 -19.390625 C 13.582031 -18.929688 14.429688 -18.304688 15.203125 -17.515625 L 15.203125 -19.6875 L 19.046875 -19.6875 L 19.046875 0.046875 C 19.046875 1.890625 18.617188 3.453125 17.765625 4.734375 C 16.910156 6.023438 15.8125 6.988281 14.46875 7.625 C 13.132812 8.269531 11.726562 8.59375 10.25 8.59375 Z M 4.953125 -9.953125 C 4.953125 -8.753906 5.125 -7.59375 5.46875 -6.46875 C 5.8125 -5.34375 6.363281 -4.414062 7.125 -3.6875 C 7.894531 -2.96875 8.921875 -2.609375 10.203125 -2.609375 C 11.578125 -2.609375 12.625 -2.960938 13.34375 -3.671875 C 14.070312 -4.378906 14.5625 -5.300781 14.8125 -6.4375 C 15.070312 -7.582031 15.203125 -8.78125 15.203125 -10.03125 C 15.203125 -11.289062 15.0625 -12.429688 14.78125 -13.453125 C 14.5 -14.484375 14 -15.296875 13.28125 -15.890625 C 12.570312 -16.484375 11.5625 -16.78125 10.25 -16.78125 C 9 -16.78125 7.976562 -16.4375 7.1875 -15.75 C 6.40625 -15.070312 5.835938 -14.210938 5.484375 -13.171875 C 5.128906 -12.140625 4.953125 -11.066406 4.953125 -9.953125 Z M 4.953125 -9.953125 "/></g></g></g><g fill="#363382" fill-opacity="1"><g transform="translate(274.724879, 87.699457)"><g><path d="M 0.8125 1.625 L 12.609375 -23.0625 L 15.171875 -23.0625 L 3.453125 1.625 Z M 0.8125 1.625 "/></g></g></g></svg>