<svg xmlns="http://www.w3.org/2000/svg" xmlns:xlink="http://www.w3.org/1999/xlink" width="500" zoomAndPan="magnify" viewBox="0 0 375 374.999991" height="500" preserveAspectRatio="xMidYMid meet" version="1.0"><defs><g/><clipPath id="f570605b3c"><path d="M 5.066406 0 L 374.816406 0 L 374.816406 369.75 L 5.066406 369.75 Z M 5.066406 0 " clip-rule="nonzero"/></clipPath><clipPath id="84d8cc97a4"><path d="M 190.027344 0 C 87.878906 0 5.066406 82.8125 5.066406 184.960938 C 5.066406 287.113281 87.878906 369.925781 190.027344 369.925781 C 292.179688 369.925781 374.992188 287.113281 374.992188 184.960938 C 374.992188 82.8125 292.179688 0 190.027344 0 Z M 190.027344 0 " clip-rule="nonzero"/></clipPath></defs><g clip-path="url(#f570605b3c)"><g clip-path="url(#84d8cc97a4)"><path stroke-linecap="butt" transform="matrix(0.75, 0, 0, 0.75, 5.066292, 0.000000000000021316)" fill="none" stroke-linejoin="miter" d="M 246.614768 -0.000000000000028422 C 110.416833 -0.000000000000028422 0.000152217 110.416681 0.000152217 246.614615 C 0.000152217 382.817758 110.416833 493.234439 246.614768 493.234439 C 382.81791 493.234439 493.234591 382.817758 493.234591 246.614615 C 493.234591 110.416681 382.81791 -0.000000000000028422 246.614768 -0.000000000000028422 Z M 246.614768 -0.000000000000028422 " stroke="#ffde59" stroke-width="8" stroke-opacity="1" stroke-miterlimit="4"/></g></g><g fill="#ffde59" fill-opacity="1"><g transform="translate(41.708927, 234.374985)"><g><path d="M 23.359375 0 L 11.34375 0 L 11.34375 -88.796875 L 23.359375 -88.796875 Z M 23.359375 0 "/></g></g></g><g fill="#ffde59" fill-opacity="1"><g transform="translate(76.411394, 234.374985)"><g><path d="M 37.546875 -42.765625 C 40.984375 -42.765625 44.007812 -43.21875 46.625 -44.125 C 49.25 -45.03125 51.457031 -46.296875 53.25 -47.921875 C 55.050781 -49.554688 56.40625 -51.507812 57.3125 -53.78125 C 58.226562 -56.0625 58.6875 -58.5625 58.6875 -61.28125 C 58.6875 -66.945312 56.941406 -71.367188 53.453125 -74.546875 C 49.960938 -77.722656 44.660156 -79.3125 37.546875 -79.3125 L 23.296875 -79.3125 L 23.296875 -42.765625 Z M 37.546875 -88.796875 C 43.171875 -88.796875 48.054688 -88.144531 52.203125 -86.84375 C 56.359375 -85.539062 59.796875 -83.691406 62.515625 -81.296875 C 65.242188 -78.898438 67.28125 -76.007812 68.625 -72.625 C 69.96875 -69.238281 70.640625 -65.457031 70.640625 -61.28125 C 70.640625 -57.15625 69.914062 -53.375 68.46875 -49.9375 C 67.03125 -46.507812 64.914062 -43.554688 62.125 -41.078125 C 59.332031 -38.609375 55.878906 -36.679688 51.765625 -35.296875 C 47.660156 -33.910156 42.921875 -33.21875 37.546875 -33.21875 L 23.296875 -33.21875 L 23.296875 0 L 11.34375 0 L 11.34375 -88.796875 Z M 37.546875 -88.796875 "/></g></g></g><g fill="#ffde59" fill-opacity="1"><g transform="translate(150.835773, 234.374985)"><g><path d="M 58.5 -32.96875 L 44.5625 -69.09375 C 44.144531 -70.164062 43.707031 -71.414062 43.25 -72.84375 C 42.800781 -74.269531 42.367188 -75.789062 41.953125 -77.40625 C 41.085938 -74.050781 40.195312 -71.257812 39.28125 -69.03125 L 25.34375 -32.96875 Z M 83.53125 0 L 74.234375 0 C 73.160156 0 72.289062 -0.265625 71.625 -0.796875 C 70.96875 -1.335938 70.476562 -2.019531 70.15625 -2.84375 L 61.84375 -24.296875 L 22 -24.296875 L 13.6875 -2.84375 C 13.445312 -2.101562 12.972656 -1.441406 12.265625 -0.859375 C 11.566406 -0.285156 10.703125 0 9.671875 0 L 0.375 0 L 35.875 -88.796875 L 48.03125 -88.796875 Z M 83.53125 0 "/></g></g></g><g fill="#ffde59" fill-opacity="1"><g transform="translate(234.741354, 234.374985)"><g/></g></g><g fill="#ffde59" fill-opacity="1"><g transform="translate(266.469318, 234.374985)"><g><path d="M 35.9375 -7.8125 C 38.832031 -7.8125 41.425781 -8.210938 43.71875 -9.015625 C 46.007812 -9.816406 47.953125 -10.953125 49.546875 -12.421875 C 51.140625 -13.890625 52.359375 -15.644531 53.203125 -17.6875 C 54.046875 -19.738281 54.46875 -22.003906 54.46875 -24.484375 C 54.46875 -27.535156 53.960938 -30.144531 52.953125 -32.3125 C 51.941406 -34.476562 50.578125 -36.242188 48.859375 -37.609375 C 47.148438 -38.972656 45.175781 -39.972656 42.9375 -40.609375 C 40.707031 -41.253906 38.375 -41.578125 35.9375 -41.578125 C 33.5 -41.578125 31.164062 -41.253906 28.9375 -40.609375 C 26.707031 -39.972656 24.734375 -38.972656 23.015625 -37.609375 C 21.304688 -36.242188 19.941406 -34.476562 18.921875 -32.3125 C 17.910156 -30.144531 17.40625 -27.535156 17.40625 -24.484375 C 17.40625 -22.003906 17.828125 -19.738281 18.671875 -17.6875 C 19.523438 -15.644531 20.742188 -13.890625 22.328125 -12.421875 C 23.921875 -10.953125 25.863281 -9.816406 28.15625 -9.015625 C 30.457031 -8.210938 33.050781 -7.8125 35.9375 -7.8125 Z M 35.9375 -81.234375 C 33.289062 -81.234375 30.96875 -80.84375 28.96875 -80.0625 C 26.96875 -79.28125 25.296875 -78.207031 23.953125 -76.84375 C 22.609375 -75.476562 21.59375 -73.882812 20.90625 -72.0625 C 20.226562 -70.25 19.890625 -68.3125 19.890625 -66.25 C 19.890625 -64.21875 20.175781 -62.25 20.75 -60.34375 C 21.332031 -58.445312 22.265625 -56.765625 23.546875 -55.296875 C 24.828125 -53.835938 26.488281 -52.660156 28.53125 -51.765625 C 30.582031 -50.878906 33.050781 -50.4375 35.9375 -50.4375 C 38.832031 -50.4375 41.300781 -50.878906 43.34375 -51.765625 C 45.394531 -52.660156 47.054688 -53.835938 48.328125 -55.296875 C 49.609375 -56.765625 50.535156 -58.445312 51.109375 -60.34375 C 51.691406 -62.25 51.984375 -64.21875 51.984375 -66.25 C 51.984375 -68.3125 51.644531 -70.25 50.96875 -72.0625 C 50.289062 -73.882812 49.28125 -75.476562 47.9375 -76.84375 C 46.59375 -78.207031 44.914062 -79.28125 42.90625 -80.0625 C 40.90625 -80.84375 38.582031 -81.234375 35.9375 -81.234375 Z M 48.640625 -46.296875 C 54.179688 -44.722656 58.4375 -42.097656 61.40625 -38.421875 C 64.382812 -34.742188 65.875 -30.035156 65.875 -24.296875 C 65.875 -20.410156 65.140625 -16.90625 63.671875 -13.78125 C 62.203125 -10.664062 60.15625 -8.015625 57.53125 -5.828125 C 54.914062 -3.640625 51.769531 -1.957031 48.09375 -0.78125 C 44.414062 0.394531 40.363281 0.984375 35.9375 0.984375 C 31.519531 0.984375 27.472656 0.394531 23.796875 -0.78125 C 20.117188 -1.957031 16.957031 -3.640625 14.3125 -5.828125 C 11.664062 -8.015625 9.617188 -10.664062 8.171875 -13.78125 C 6.734375 -16.90625 6.015625 -20.410156 6.015625 -24.296875 C 6.015625 -30.035156 7.5 -34.742188 10.46875 -38.421875 C 13.445312 -42.097656 17.703125 -44.722656 23.234375 -46.296875 C 18.566406 -48.023438 15.046875 -50.613281 12.671875 -54.0625 C 10.296875 -57.507812 9.109375 -61.632812 9.109375 -66.4375 C 9.109375 -69.695312 9.75 -72.75 11.03125 -75.59375 C 12.3125 -78.445312 14.128906 -80.925781 16.484375 -83.03125 C 18.835938 -85.144531 21.65625 -86.800781 24.9375 -88 C 28.226562 -89.195312 31.894531 -89.796875 35.9375 -89.796875 C 39.945312 -89.796875 43.601562 -89.195312 46.90625 -88 C 50.21875 -86.800781 53.050781 -85.144531 55.40625 -83.03125 C 57.757812 -80.925781 59.578125 -78.445312 60.859375 -75.59375 C 62.140625 -72.75 62.78125 -69.695312 62.78125 -66.4375 C 62.78125 -61.632812 61.585938 -57.507812 59.203125 -54.0625 C 56.828125 -50.613281 53.304688 -48.023438 48.640625 -46.296875 Z M 48.640625 -46.296875 "/></g></g></g></svg>