<svg xmlns="http://www.w3.org/2000/svg" version="1.1" xmlns:xlink="http://www.w3.org/1999/xlink" xmlns:svgjs="http://svgjs.dev/svgjs" viewBox="0 0 800 800" opacity="1"><g stroke-width="0.5" stroke="hsla(0, 0%, 100%, 0.66)" fill="none" stroke-linecap="round" transform="matrix(1,0,0,1,-5,-21.127084732055664)"><path d="M10,10C49.583333333333336,12.708333333333332,118.75,28.833333333333336,200,23C281.25,17.166666666666664,316.66666666666663,-17.375,400,-18C483.33333333333337,-18.625,516.6666666666666,17.083333333333332,600,20C683.3333333333334,22.916666666666668,758.3333333333334,1,800,-4"></path><path d="M10,10C49.583333333333336,12.708333333333332,118.75,28.833333333333336,200,23C281.25,17.166666666666664,316.66666666666663,-17.375,400,-18C483.33333333333337,-18.625,516.6666666666666,17.083333333333332,600,20C683.3333333333334,22.916666666666668,758.3333333333334,1,800,-4" transform="matrix(1,0,0,1,0,836)"></path><path d="M10,10C49.583333333333336,12.708333333333332,118.75,28.833333333333336,200,23C281.25,17.166666666666664,316.66666666666663,-17.375,400,-18C483.33333333333337,-18.625,516.6666666666666,17.083333333333332,600,20C683.3333333333334,22.916666666666668,758.3333333333334,1,800,-4" transform="matrix(1,0,0,1,0,825)"></path><path d="M10,10C49.583333333333336,12.708333333333332,118.75,28.833333333333336,200,23C281.25,17.166666666666664,316.66666666666663,-17.375,400,-18C483.33333333333337,-18.625,516.6666666666666,17.083333333333332,600,20C683.3333333333334,22.916666666666668,758.3333333333334,1,800,-4" transform="matrix(1,0,0,1,0,814)"></path><path d="M10,10C49.583333333333336,12.708333333333332,118.75,28.833333333333336,200,23C281.25,17.166666666666664,316.66666666666663,-17.375,400,-18C483.33333333333337,-18.625,516.6666666666666,17.083333333333332,600,20C683.3333333333334,22.916666666666668,758.3333333333334,1,800,-4" transform="matrix(1,0,0,1,0,803)"></path><path d="M10,10C49.583333333333336,12.708333333333332,118.75,28.833333333333336,200,23C281.25,17.166666666666664,316.66666666666663,-17.375,400,-18C483.33333333333337,-18.625,516.6666666666666,17.083333333333332,600,20C683.3333333333334,22.916666666666668,758.3333333333334,1,800,-4" transform="matrix(1,0,0,1,0,792)"></path><path d="M10,10C49.583333333333336,12.708333333333332,118.75,28.833333333333336,200,23C281.25,17.166666666666664,316.66666666666663,-17.375,400,-18C483.33333333333337,-18.625,516.6666666666666,17.083333333333332,600,20C683.3333333333334,22.916666666666668,758.3333333333334,1,800,-4" transform="matrix(1,0,0,1,0,781)"></path><path d="M10,10C49.583333333333336,12.708333333333332,118.75,28.833333333333336,200,23C281.25,17.166666666666664,316.66666666666663,-17.375,400,-18C483.33333333333337,-18.625,516.6666666666666,17.083333333333332,600,20C683.3333333333334,22.916666666666668,758.3333333333334,1,800,-4" transform="matrix(1,0,0,1,0,770)"></path><path d="M10,10C49.583333333333336,12.708333333333332,118.75,28.833333333333336,200,23C281.25,17.166666666666664,316.66666666666663,-17.375,400,-18C483.33333333333337,-18.625,516.6666666666666,17.083333333333332,600,20C683.3333333333334,22.916666666666668,758.3333333333334,1,800,-4" transform="matrix(1,0,0,1,0,759)"></path><path d="M10,10C49.583333333333336,12.708333333333332,118.75,28.833333333333336,200,23C281.25,17.166666666666664,316.66666666666663,-17.375,400,-18C483.33333333333337,-18.625,516.6666666666666,17.083333333333332,600,20C683.3333333333334,22.916666666666668,758.3333333333334,1,800,-4" transform="matrix(1,0,0,1,0,748)"></path><path d="M10,10C49.583333333333336,12.708333333333332,118.75,28.833333333333336,200,23C281.25,17.166666666666664,316.66666666666663,-17.375,400,-18C483.33333333333337,-18.625,516.6666666666666,17.083333333333332,600,20C683.3333333333334,22.916666666666668,758.3333333333334,1,800,-4" transform="matrix(1,0,0,1,0,737)"></path><path d="M10,10C49.583333333333336,12.708333333333332,118.75,28.833333333333336,200,23C281.25,17.166666666666664,316.66666666666663,-17.375,400,-18C483.33333333333337,-18.625,516.6666666666666,17.083333333333332,600,20C683.3333333333334,22.916666666666668,758.3333333333334,1,800,-4" transform="matrix(1,0,0,1,0,726)"></path><path d="M10,10C49.583333333333336,12.708333333333332,118.75,28.833333333333336,200,23C281.25,17.166666666666664,316.66666666666663,-17.375,400,-18C483.33333333333337,-18.625,516.6666666666666,17.083333333333332,600,20C683.3333333333334,22.916666666666668,758.3333333333334,1,800,-4" transform="matrix(1,0,0,1,0,715)"></path><path d="M10,10C49.583333333333336,12.708333333333332,118.75,28.833333333333336,200,23C281.25,17.166666666666664,316.66666666666663,-17.375,400,-18C483.33333333333337,-18.625,516.6666666666666,17.083333333333332,600,20C683.3333333333334,22.916666666666668,758.3333333333334,1,800,-4" transform="matrix(1,0,0,1,0,704)"></path><path d="M10,10C49.583333333333336,12.708333333333332,118.75,28.833333333333336,200,23C281.25,17.166666666666664,316.66666666666663,-17.375,400,-18C483.33333333333337,-18.625,516.6666666666666,17.083333333333332,600,20C683.3333333333334,22.916666666666668,758.3333333333334,1,800,-4" transform="matrix(1,0,0,1,0,693)"></path><path d="M10,10C49.583333333333336,12.708333333333332,118.75,28.833333333333336,200,23C281.25,17.166666666666664,316.66666666666663,-17.375,400,-18C483.33333333333337,-18.625,516.6666666666666,17.083333333333332,600,20C683.3333333333334,22.916666666666668,758.3333333333334,1,800,-4" transform="matrix(1,0,0,1,0,682)"></path><path d="M10,10C49.583333333333336,12.708333333333332,118.75,28.833333333333336,200,23C281.25,17.166666666666664,316.66666666666663,-17.375,400,-18C483.33333333333337,-18.625,516.6666666666666,17.083333333333332,600,20C683.3333333333334,22.916666666666668,758.3333333333334,1,800,-4" transform="matrix(1,0,0,1,0,671)"></path><path d="M10,10C49.583333333333336,12.708333333333332,118.75,28.833333333333336,200,23C281.25,17.166666666666664,316.66666666666663,-17.375,400,-18C483.33333333333337,-18.625,516.6666666666666,17.083333333333332,600,20C683.3333333333334,22.916666666666668,758.3333333333334,1,800,-4" transform="matrix(1,0,0,1,0,660)"></path><path d="M10,10C49.583333333333336,12.708333333333332,118.75,28.833333333333336,200,23C281.25,17.166666666666664,316.66666666666663,-17.375,400,-18C483.33333333333337,-18.625,516.6666666666666,17.083333333333332,600,20C683.3333333333334,22.916666666666668,758.3333333333334,1,800,-4" transform="matrix(1,0,0,1,0,649)"></path><path d="M10,10C49.583333333333336,12.708333333333332,118.75,28.833333333333336,200,23C281.25,17.166666666666664,316.66666666666663,-17.375,400,-18C483.33333333333337,-18.625,516.6666666666666,17.083333333333332,600,20C683.3333333333334,22.916666666666668,758.3333333333334,1,800,-4" transform="matrix(1,0,0,1,0,638)"></path><path d="M10,10C49.583333333333336,12.708333333333332,118.75,28.833333333333336,200,23C281.25,17.166666666666664,316.66666666666663,-17.375,400,-18C483.33333333333337,-18.625,516.6666666666666,17.083333333333332,600,20C683.3333333333334,22.916666666666668,758.3333333333334,1,800,-4" transform="matrix(1,0,0,1,0,627)"></path><path d="M10,10C49.583333333333336,12.708333333333332,118.75,28.833333333333336,200,23C281.25,17.166666666666664,316.66666666666663,-17.375,400,-18C483.33333333333337,-18.625,516.6666666666666,17.083333333333332,600,20C683.3333333333334,22.916666666666668,758.3333333333334,1,800,-4" transform="matrix(1,0,0,1,0,616)"></path><path d="M10,10C49.583333333333336,12.708333333333332,118.75,28.833333333333336,200,23C281.25,17.166666666666664,316.66666666666663,-17.375,400,-18C483.33333333333337,-18.625,516.6666666666666,17.083333333333332,600,20C683.3333333333334,22.916666666666668,758.3333333333334,1,800,-4" transform="matrix(1,0,0,1,0,605)"></path><path d="M10,10C49.583333333333336,12.708333333333332,118.75,28.833333333333336,200,23C281.25,17.166666666666664,316.66666666666663,-17.375,400,-18C483.33333333333337,-18.625,516.6666666666666,17.083333333333332,600,20C683.3333333333334,22.916666666666668,758.3333333333334,1,800,-4" transform="matrix(1,0,0,1,0,594)"></path><path d="M10,10C49.583333333333336,12.708333333333332,118.75,28.833333333333336,200,23C281.25,17.166666666666664,316.66666666666663,-17.375,400,-18C483.33333333333337,-18.625,516.6666666666666,17.083333333333332,600,20C683.3333333333334,22.916666666666668,758.3333333333334,1,800,-4" transform="matrix(1,0,0,1,0,583)"></path><path d="M10,10C49.583333333333336,12.708333333333332,118.75,28.833333333333336,200,23C281.25,17.166666666666664,316.66666666666663,-17.375,400,-18C483.33333333333337,-18.625,516.6666666666666,17.083333333333332,600,20C683.3333333333334,22.916666666666668,758.3333333333334,1,800,-4" transform="matrix(1,0,0,1,0,572)"></path><path d="M10,10C49.583333333333336,12.708333333333332,118.75,28.833333333333336,200,23C281.25,17.166666666666664,316.66666666666663,-17.375,400,-18C483.33333333333337,-18.625,516.6666666666666,17.083333333333332,600,20C683.3333333333334,22.916666666666668,758.3333333333334,1,800,-4" transform="matrix(1,0,0,1,0,561)"></path><path d="M10,10C49.583333333333336,12.708333333333332,118.75,28.833333333333336,200,23C281.25,17.166666666666664,316.66666666666663,-17.375,400,-18C483.33333333333337,-18.625,516.6666666666666,17.083333333333332,600,20C683.3333333333334,22.916666666666668,758.3333333333334,1,800,-4" transform="matrix(1,0,0,1,0,550)"></path><path d="M10,10C49.583333333333336,12.708333333333332,118.75,28.833333333333336,200,23C281.25,17.166666666666664,316.66666666666663,-17.375,400,-18C483.33333333333337,-18.625,516.6666666666666,17.083333333333332,600,20C683.3333333333334,22.916666666666668,758.3333333333334,1,800,-4" transform="matrix(1,0,0,1,0,539)"></path><path d="M10,10C49.583333333333336,12.708333333333332,118.75,28.833333333333336,200,23C281.25,17.166666666666664,316.66666666666663,-17.375,400,-18C483.33333333333337,-18.625,516.6666666666666,17.083333333333332,600,20C683.3333333333334,22.916666666666668,758.3333333333334,1,800,-4" transform="matrix(1,0,0,1,0,528)"></path><path d="M10,10C49.583333333333336,12.708333333333332,118.75,28.833333333333336,200,23C281.25,17.166666666666664,316.66666666666663,-17.375,400,-18C483.33333333333337,-18.625,516.6666666666666,17.083333333333332,600,20C683.3333333333334,22.916666666666668,758.3333333333334,1,800,-4" transform="matrix(1,0,0,1,0,517)"></path><path d="M10,10C49.583333333333336,12.708333333333332,118.75,28.833333333333336,200,23C281.25,17.166666666666664,316.66666666666663,-17.375,400,-18C483.33333333333337,-18.625,516.6666666666666,17.083333333333332,600,20C683.3333333333334,22.916666666666668,758.3333333333334,1,800,-4" transform="matrix(1,0,0,1,0,506)"></path><path d="M10,10C49.583333333333336,12.708333333333332,118.75,28.833333333333336,200,23C281.25,17.166666666666664,316.66666666666663,-17.375,400,-18C483.33333333333337,-18.625,516.6666666666666,17.083333333333332,600,20C683.3333333333334,22.916666666666668,758.3333333333334,1,800,-4" transform="matrix(1,0,0,1,0,495)"></path><path d="M10,10C49.583333333333336,12.708333333333332,118.75,28.833333333333336,200,23C281.25,17.166666666666664,316.66666666666663,-17.375,400,-18C483.33333333333337,-18.625,516.6666666666666,17.083333333333332,600,20C683.3333333333334,22.916666666666668,758.3333333333334,1,800,-4" transform="matrix(1,0,0,1,0,484)"></path><path d="M10,10C49.583333333333336,12.708333333333332,118.75,28.833333333333336,200,23C281.25,17.166666666666664,316.66666666666663,-17.375,400,-18C483.33333333333337,-18.625,516.6666666666666,17.083333333333332,600,20C683.3333333333334,22.916666666666668,758.3333333333334,1,800,-4" transform="matrix(1,0,0,1,0,473)"></path><path d="M10,10C49.583333333333336,12.708333333333332,118.75,28.833333333333336,200,23C281.25,17.166666666666664,316.66666666666663,-17.375,400,-18C483.33333333333337,-18.625,516.6666666666666,17.083333333333332,600,20C683.3333333333334,22.916666666666668,758.3333333333334,1,800,-4" transform="matrix(1,0,0,1,0,462)"></path><path d="M10,10C49.583333333333336,12.708333333333332,118.75,28.833333333333336,200,23C281.25,17.166666666666664,316.66666666666663,-17.375,400,-18C483.33333333333337,-18.625,516.6666666666666,17.083333333333332,600,20C683.3333333333334,22.916666666666668,758.3333333333334,1,800,-4" transform="matrix(1,0,0,1,0,451)"></path><path d="M10,10C49.583333333333336,12.708333333333332,118.75,28.833333333333336,200,23C281.25,17.166666666666664,316.66666666666663,-17.375,400,-18C483.33333333333337,-18.625,516.6666666666666,17.083333333333332,600,20C683.3333333333334,22.916666666666668,758.3333333333334,1,800,-4" transform="matrix(1,0,0,1,0,440)"></path><path d="M10,10C49.583333333333336,12.708333333333332,118.75,28.833333333333336,200,23C281.25,17.166666666666664,316.66666666666663,-17.375,400,-18C483.33333333333337,-18.625,516.6666666666666,17.083333333333332,600,20C683.3333333333334,22.916666666666668,758.3333333333334,1,800,-4" transform="matrix(1,0,0,1,0,429)"></path><path d="M10,10C49.583333333333336,12.708333333333332,118.75,28.833333333333336,200,23C281.25,17.166666666666664,316.66666666666663,-17.375,400,-18C483.33333333333337,-18.625,516.6666666666666,17.083333333333332,600,20C683.3333333333334,22.916666666666668,758.3333333333334,1,800,-4" transform="matrix(1,0,0,1,0,418)"></path><path d="M10,10C49.583333333333336,12.708333333333332,118.75,28.833333333333336,200,23C281.25,17.166666666666664,316.66666666666663,-17.375,400,-18C483.33333333333337,-18.625,516.6666666666666,17.083333333333332,600,20C683.3333333333334,22.916666666666668,758.3333333333334,1,800,-4" transform="matrix(1,0,0,1,0,407)"></path><path d="M10,10C49.583333333333336,12.708333333333332,118.75,28.833333333333336,200,23C281.25,17.166666666666664,316.66666666666663,-17.375,400,-18C483.33333333333337,-18.625,516.6666666666666,17.083333333333332,600,20C683.3333333333334,22.916666666666668,758.3333333333334,1,800,-4" transform="matrix(1,0,0,1,0,396)"></path><path d="M10,10C49.583333333333336,12.708333333333332,118.75,28.833333333333336,200,23C281.25,17.166666666666664,316.66666666666663,-17.375,400,-18C483.33333333333337,-18.625,516.6666666666666,17.083333333333332,600,20C683.3333333333334,22.916666666666668,758.3333333333334,1,800,-4" transform="matrix(1,0,0,1,0,385)"></path><path d="M10,10C49.583333333333336,12.708333333333332,118.75,28.833333333333336,200,23C281.25,17.166666666666664,316.66666666666663,-17.375,400,-18C483.33333333333337,-18.625,516.6666666666666,17.083333333333332,600,20C683.3333333333334,22.916666666666668,758.3333333333334,1,800,-4" transform="matrix(1,0,0,1,0,374)"></path><path d="M10,10C49.583333333333336,12.708333333333332,118.75,28.833333333333336,200,23C281.25,17.166666666666664,316.66666666666663,-17.375,400,-18C483.33333333333337,-18.625,516.6666666666666,17.083333333333332,600,20C683.3333333333334,22.916666666666668,758.3333333333334,1,800,-4" transform="matrix(1,0,0,1,0,363)"></path><path d="M10,10C49.583333333333336,12.708333333333332,118.75,28.833333333333336,200,23C281.25,17.166666666666664,316.66666666666663,-17.375,400,-18C483.33333333333337,-18.625,516.6666666666666,17.083333333333332,600,20C683.3333333333334,22.916666666666668,758.3333333333334,1,800,-4" transform="matrix(1,0,0,1,0,352)"></path><path d="M10,10C49.583333333333336,12.708333333333332,118.75,28.833333333333336,200,23C281.25,17.166666666666664,316.66666666666663,-17.375,400,-18C483.33333333333337,-18.625,516.6666666666666,17.083333333333332,600,20C683.3333333333334,22.916666666666668,758.3333333333334,1,800,-4" transform="matrix(1,0,0,1,0,341)"></path><path d="M10,10C49.583333333333336,12.708333333333332,118.75,28.833333333333336,200,23C281.25,17.166666666666664,316.66666666666663,-17.375,400,-18C483.33333333333337,-18.625,516.6666666666666,17.083333333333332,600,20C683.3333333333334,22.916666666666668,758.3333333333334,1,800,-4" transform="matrix(1,0,0,1,0,330)"></path><path d="M10,10C49.583333333333336,12.708333333333332,118.75,28.833333333333336,200,23C281.25,17.166666666666664,316.66666666666663,-17.375,400,-18C483.33333333333337,-18.625,516.6666666666666,17.083333333333332,600,20C683.3333333333334,22.916666666666668,758.3333333333334,1,800,-4" transform="matrix(1,0,0,1,0,319)"></path><path d="M10,10C49.583333333333336,12.708333333333332,118.75,28.833333333333336,200,23C281.25,17.166666666666664,316.66666666666663,-17.375,400,-18C483.33333333333337,-18.625,516.6666666666666,17.083333333333332,600,20C683.3333333333334,22.916666666666668,758.3333333333334,1,800,-4" transform="matrix(1,0,0,1,0,308)"></path><path d="M10,10C49.583333333333336,12.708333333333332,118.75,28.833333333333336,200,23C281.25,17.166666666666664,316.66666666666663,-17.375,400,-18C483.33333333333337,-18.625,516.6666666666666,17.083333333333332,600,20C683.3333333333334,22.916666666666668,758.3333333333334,1,800,-4" transform="matrix(1,0,0,1,0,297)"></path><path d="M10,10C49.583333333333336,12.708333333333332,118.75,28.833333333333336,200,23C281.25,17.166666666666664,316.66666666666663,-17.375,400,-18C483.33333333333337,-18.625,516.6666666666666,17.083333333333332,600,20C683.3333333333334,22.916666666666668,758.3333333333334,1,800,-4" transform="matrix(1,0,0,1,0,286)"></path><path d="M10,10C49.583333333333336,12.708333333333332,118.75,28.833333333333336,200,23C281.25,17.166666666666664,316.66666666666663,-17.375,400,-18C483.33333333333337,-18.625,516.6666666666666,17.083333333333332,600,20C683.3333333333334,22.916666666666668,758.3333333333334,1,800,-4" transform="matrix(1,0,0,1,0,275)"></path><path d="M10,10C49.583333333333336,12.708333333333332,118.75,28.833333333333336,200,23C281.25,17.166666666666664,316.66666666666663,-17.375,400,-18C483.33333333333337,-18.625,516.6666666666666,17.083333333333332,600,20C683.3333333333334,22.916666666666668,758.3333333333334,1,800,-4" transform="matrix(1,0,0,1,0,264)"></path><path d="M10,10C49.583333333333336,12.708333333333332,118.75,28.833333333333336,200,23C281.25,17.166666666666664,316.66666666666663,-17.375,400,-18C483.33333333333337,-18.625,516.6666666666666,17.083333333333332,600,20C683.3333333333334,22.916666666666668,758.3333333333334,1,800,-4" transform="matrix(1,0,0,1,0,253)"></path><path d="M10,10C49.583333333333336,12.708333333333332,118.75,28.833333333333336,200,23C281.25,17.166666666666664,316.66666666666663,-17.375,400,-18C483.33333333333337,-18.625,516.6666666666666,17.083333333333332,600,20C683.3333333333334,22.916666666666668,758.3333333333334,1,800,-4" transform="matrix(1,0,0,1,0,242)"></path><path d="M10,10C49.583333333333336,12.708333333333332,118.75,28.833333333333336,200,23C281.25,17.166666666666664,316.66666666666663,-17.375,400,-18C483.33333333333337,-18.625,516.6666666666666,17.083333333333332,600,20C683.3333333333334,22.916666666666668,758.3333333333334,1,800,-4" transform="matrix(1,0,0,1,0,231)"></path><path d="M10,10C49.583333333333336,12.708333333333332,118.75,28.833333333333336,200,23C281.25,17.166666666666664,316.66666666666663,-17.375,400,-18C483.33333333333337,-18.625,516.6666666666666,17.083333333333332,600,20C683.3333333333334,22.916666666666668,758.3333333333334,1,800,-4" transform="matrix(1,0,0,1,0,220)"></path><path d="M10,10C49.583333333333336,12.708333333333332,118.75,28.833333333333336,200,23C281.25,17.166666666666664,316.66666666666663,-17.375,400,-18C483.33333333333337,-18.625,516.6666666666666,17.083333333333332,600,20C683.3333333333334,22.916666666666668,758.3333333333334,1,800,-4" transform="matrix(1,0,0,1,0,209)"></path><path d="M10,10C49.583333333333336,12.708333333333332,118.75,28.833333333333336,200,23C281.25,17.166666666666664,316.66666666666663,-17.375,400,-18C483.33333333333337,-18.625,516.6666666666666,17.083333333333332,600,20C683.3333333333334,22.916666666666668,758.3333333333334,1,800,-4" transform="matrix(1,0,0,1,0,198)"></path><path d="M10,10C49.583333333333336,12.708333333333332,118.75,28.833333333333336,200,23C281.25,17.166666666666664,316.66666666666663,-17.375,400,-18C483.33333333333337,-18.625,516.6666666666666,17.083333333333332,600,20C683.3333333333334,22.916666666666668,758.3333333333334,1,800,-4" transform="matrix(1,0,0,1,0,187)"></path><path d="M10,10C49.583333333333336,12.708333333333332,118.75,28.833333333333336,200,23C281.25,17.166666666666664,316.66666666666663,-17.375,400,-18C483.33333333333337,-18.625,516.6666666666666,17.083333333333332,600,20C683.3333333333334,22.916666666666668,758.3333333333334,1,800,-4" transform="matrix(1,0,0,1,0,176)"></path><path d="M10,10C49.583333333333336,12.708333333333332,118.75,28.833333333333336,200,23C281.25,17.166666666666664,316.66666666666663,-17.375,400,-18C483.33333333333337,-18.625,516.6666666666666,17.083333333333332,600,20C683.3333333333334,22.916666666666668,758.3333333333334,1,800,-4" transform="matrix(1,0,0,1,0,165)"></path><path d="M10,10C49.583333333333336,12.708333333333332,118.75,28.833333333333336,200,23C281.25,17.166666666666664,316.66666666666663,-17.375,400,-18C483.33333333333337,-18.625,516.6666666666666,17.083333333333332,600,20C683.3333333333334,22.916666666666668,758.3333333333334,1,800,-4" transform="matrix(1,0,0,1,0,154)"></path><path d="M10,10C49.583333333333336,12.708333333333332,118.75,28.833333333333336,200,23C281.25,17.166666666666664,316.66666666666663,-17.375,400,-18C483.33333333333337,-18.625,516.6666666666666,17.083333333333332,600,20C683.3333333333334,22.916666666666668,758.3333333333334,1,800,-4" transform="matrix(1,0,0,1,0,143)"></path><path d="M10,10C49.583333333333336,12.708333333333332,118.75,28.833333333333336,200,23C281.25,17.166666666666664,316.66666666666663,-17.375,400,-18C483.33333333333337,-18.625,516.6666666666666,17.083333333333332,600,20C683.3333333333334,22.916666666666668,758.3333333333334,1,800,-4" transform="matrix(1,0,0,1,0,132)"></path><path d="M10,10C49.583333333333336,12.708333333333332,118.75,28.833333333333336,200,23C281.25,17.166666666666664,316.66666666666663,-17.375,400,-18C483.33333333333337,-18.625,516.6666666666666,17.083333333333332,600,20C683.3333333333334,22.916666666666668,758.3333333333334,1,800,-4" transform="matrix(1,0,0,1,0,121)"></path><path d="M10,10C49.583333333333336,12.708333333333332,118.75,28.833333333333336,200,23C281.25,17.166666666666664,316.66666666666663,-17.375,400,-18C483.33333333333337,-18.625,516.6666666666666,17.083333333333332,600,20C683.3333333333334,22.916666666666668,758.3333333333334,1,800,-4" transform="matrix(1,0,0,1,0,110)"></path><path d="M10,10C49.583333333333336,12.708333333333332,118.75,28.833333333333336,200,23C281.25,17.166666666666664,316.66666666666663,-17.375,400,-18C483.33333333333337,-18.625,516.6666666666666,17.083333333333332,600,20C683.3333333333334,22.916666666666668,758.3333333333334,1,800,-4" transform="matrix(1,0,0,1,0,99)"></path><path d="M10,10C49.583333333333336,12.708333333333332,118.75,28.833333333333336,200,23C281.25,17.166666666666664,316.66666666666663,-17.375,400,-18C483.33333333333337,-18.625,516.6666666666666,17.083333333333332,600,20C683.3333333333334,22.916666666666668,758.3333333333334,1,800,-4" transform="matrix(1,0,0,1,0,88)"></path><path d="M10,10C49.583333333333336,12.708333333333332,118.75,28.833333333333336,200,23C281.25,17.166666666666664,316.66666666666663,-17.375,400,-18C483.33333333333337,-18.625,516.6666666666666,17.083333333333332,600,20C683.3333333333334,22.916666666666668,758.3333333333334,1,800,-4" transform="matrix(1,0,0,1,0,77)"></path><path d="M10,10C49.583333333333336,12.708333333333332,118.75,28.833333333333336,200,23C281.25,17.166666666666664,316.66666666666663,-17.375,400,-18C483.33333333333337,-18.625,516.6666666666666,17.083333333333332,600,20C683.3333333333334,22.916666666666668,758.3333333333334,1,800,-4" transform="matrix(1,0,0,1,0,66)"></path><path d="M10,10C49.583333333333336,12.708333333333332,118.75,28.833333333333336,200,23C281.25,17.166666666666664,316.66666666666663,-17.375,400,-18C483.33333333333337,-18.625,516.6666666666666,17.083333333333332,600,20C683.3333333333334,22.916666666666668,758.3333333333334,1,800,-4" transform="matrix(1,0,0,1,0,55)"></path><path d="M10,10C49.583333333333336,12.708333333333332,118.75,28.833333333333336,200,23C281.25,17.166666666666664,316.66666666666663,-17.375,400,-18C483.33333333333337,-18.625,516.6666666666666,17.083333333333332,600,20C683.3333333333334,22.916666666666668,758.3333333333334,1,800,-4" transform="matrix(1,0,0,1,0,44)"></path><path d="M10,10C49.583333333333336,12.708333333333332,118.75,28.833333333333336,200,23C281.25,17.166666666666664,316.66666666666663,-17.375,400,-18C483.33333333333337,-18.625,516.6666666666666,17.083333333333332,600,20C683.3333333333334,22.916666666666668,758.3333333333334,1,800,-4" transform="matrix(1,0,0,1,0,33)"></path><path d="M10,10C49.583333333333336,12.708333333333332,118.75,28.833333333333336,200,23C281.25,17.166666666666664,316.66666666666663,-17.375,400,-18C483.33333333333337,-18.625,516.6666666666666,17.083333333333332,600,20C683.3333333333334,22.916666666666668,758.3333333333334,1,800,-4" transform="matrix(1,0,0,1,0,22)"></path><path d="M10,10C49.583333333333336,12.708333333333332,118.75,28.833333333333336,200,23C281.25,17.166666666666664,316.66666666666663,-17.375,400,-18C483.33333333333337,-18.625,516.6666666666666,17.083333333333332,600,20C683.3333333333334,22.916666666666668,758.3333333333334,1,800,-4" transform="matrix(1,0,0,1,0,11)"></path></g></svg>