<svg xmlns="http://www.w3.org/2000/svg" xmlns:xlink="http://www.w3.org/1999/xlink" width="500" zoomAndPan="magnify" viewBox="0 0 375 112.499997" height="150" preserveAspectRatio="xMidYMid meet" version="1.0"><defs><g/><clipPath id="99ed6bc05d"><path d="M 0.828125 0 L 374.167969 0 L 374.167969 112.003906 L 0.828125 112.003906 Z M 0.828125 0 " clip-rule="nonzero"/></clipPath><clipPath id="e9e7eab173"><path d="M 10.722656 19.664062 L 89.867188 19.664062 L 89.867188 98.8125 L 10.722656 98.8125 Z M 10.722656 19.664062 " clip-rule="nonzero"/></clipPath><clipPath id="748898e635"><path d="M 28 43 L 89.867188 43 L 89.867188 98 L 28 98 Z M 28 43 " clip-rule="nonzero"/></clipPath></defs><g clip-path="url(#99ed6bc05d)"><path fill="#ffffff" d="M 0.828125 0 L 374.171875 0 L 374.171875 112.003906 L 0.828125 112.003906 Z M 0.828125 0 " fill-opacity="1" fill-rule="nonzero"/><path fill="#ffffff" d="M 0.828125 0 L 374.171875 0 L 374.171875 112.003906 L 0.828125 112.003906 Z M 0.828125 0 " fill-opacity="1" fill-rule="nonzero"/></g><g fill="#363382" fill-opacity="1"><g transform="translate(110.412711, 53.206516)"><g><path d="M 31.015625 -15.515625 C 31.015625 -13.242188 30.632812 -11.15625 29.875 -9.25 C 29.113281 -7.34375 28.046875 -5.703125 26.671875 -4.328125 C 25.296875 -2.960938 23.644531 -1.898438 21.71875 -1.140625 C 19.789062 -0.378906 17.644531 0 15.28125 0 L 3.453125 0 L 3.453125 -31.03125 L 15.28125 -31.03125 C 17.644531 -31.03125 19.789062 -30.644531 21.71875 -29.875 C 23.644531 -29.113281 25.296875 -28.050781 26.671875 -26.6875 C 28.046875 -25.320312 29.113281 -23.6875 29.875 -21.78125 C 30.632812 -19.875 31.015625 -17.785156 31.015625 -15.515625 Z M 25.09375 -15.515625 C 25.09375 -17.210938 24.863281 -18.738281 24.40625 -20.09375 C 23.957031 -21.445312 23.304688 -22.59375 22.453125 -23.53125 C 21.609375 -24.46875 20.582031 -25.1875 19.375 -25.6875 C 18.164062 -26.1875 16.800781 -26.4375 15.28125 -26.4375 L 9.25 -26.4375 L 9.25 -4.59375 L 15.28125 -4.59375 C 16.800781 -4.59375 18.164062 -4.84375 19.375 -5.34375 C 20.582031 -5.84375 21.609375 -6.5625 22.453125 -7.5 C 23.304688 -8.4375 23.957031 -9.582031 24.40625 -10.9375 C 24.863281 -12.289062 25.09375 -13.816406 25.09375 -15.515625 Z M 25.09375 -15.515625 "/></g></g></g><g fill="#363382" fill-opacity="1"><g transform="translate(143.049311, 53.206516)"><g><path d="M 16.796875 -13.546875 C 16.796875 -14.234375 16.695312 -14.878906 16.5 -15.484375 C 16.3125 -16.085938 16.023438 -16.617188 15.640625 -17.078125 C 15.253906 -17.535156 14.765625 -17.894531 14.171875 -18.15625 C 13.578125 -18.425781 12.890625 -18.5625 12.109375 -18.5625 C 10.578125 -18.5625 9.367188 -18.125 8.484375 -17.25 C 7.609375 -16.382812 7.046875 -15.148438 6.796875 -13.546875 Z M 6.703125 -10.34375 C 6.785156 -9.21875 6.984375 -8.242188 7.296875 -7.421875 C 7.609375 -6.597656 8.019531 -5.914062 8.53125 -5.375 C 9.050781 -4.84375 9.664062 -4.441406 10.375 -4.171875 C 11.082031 -3.910156 11.863281 -3.78125 12.71875 -3.78125 C 13.582031 -3.78125 14.320312 -3.878906 14.9375 -4.078125 C 15.5625 -4.273438 16.109375 -4.492188 16.578125 -4.734375 C 17.046875 -4.984375 17.453125 -5.207031 17.796875 -5.40625 C 18.148438 -5.601562 18.492188 -5.703125 18.828125 -5.703125 C 19.265625 -5.703125 19.59375 -5.539062 19.8125 -5.21875 L 21.328125 -3.28125 C 20.742188 -2.59375 20.085938 -2.015625 19.359375 -1.546875 C 18.628906 -1.085938 17.863281 -0.71875 17.0625 -0.4375 C 16.269531 -0.15625 15.460938 0.0390625 14.640625 0.15625 C 13.816406 0.269531 13.019531 0.328125 12.25 0.328125 C 10.71875 0.328125 9.296875 0.0703125 7.984375 -0.4375 C 6.671875 -0.945312 5.523438 -1.695312 4.546875 -2.6875 C 3.578125 -3.6875 2.8125 -4.914062 2.25 -6.375 C 1.695312 -7.84375 1.421875 -9.546875 1.421875 -11.484375 C 1.421875 -12.984375 1.660156 -14.394531 2.140625 -15.71875 C 2.628906 -17.039062 3.328125 -18.191406 4.234375 -19.171875 C 5.140625 -20.148438 6.25 -20.925781 7.5625 -21.5 C 8.875 -22.070312 10.351562 -22.359375 12 -22.359375 C 13.382812 -22.359375 14.660156 -22.132812 15.828125 -21.6875 C 17.003906 -21.25 18.015625 -20.601562 18.859375 -19.75 C 19.703125 -18.90625 20.363281 -17.863281 20.84375 -16.625 C 21.320312 -15.382812 21.5625 -13.972656 21.5625 -12.390625 C 21.5625 -11.585938 21.472656 -11.046875 21.296875 -10.765625 C 21.128906 -10.484375 20.804688 -10.34375 20.328125 -10.34375 Z M 6.703125 -10.34375 "/></g></g></g><g fill="#363382" fill-opacity="1"><g transform="translate(165.965739, 53.206516)"><g><path d="M 2.625 0 L 2.625 -22.015625 L 5.859375 -22.015625 C 6.546875 -22.015625 6.992188 -21.691406 7.203125 -21.046875 L 7.546875 -19.421875 C 7.941406 -19.847656 8.347656 -20.238281 8.765625 -20.59375 C 9.191406 -20.957031 9.644531 -21.265625 10.125 -21.515625 C 10.601562 -21.773438 11.113281 -21.976562 11.65625 -22.125 C 12.207031 -22.28125 12.816406 -22.359375 13.484375 -22.359375 C 14.867188 -22.359375 16.003906 -21.984375 16.890625 -21.234375 C 17.785156 -20.484375 18.457031 -19.484375 18.90625 -18.234375 C 19.25 -18.972656 19.675781 -19.601562 20.1875 -20.125 C 20.707031 -20.644531 21.273438 -21.066406 21.890625 -21.390625 C 22.503906 -21.722656 23.15625 -21.96875 23.84375 -22.125 C 24.539062 -22.28125 25.242188 -22.359375 25.953125 -22.359375 C 27.160156 -22.359375 28.238281 -22.171875 29.1875 -21.796875 C 30.132812 -21.429688 30.925781 -20.890625 31.5625 -20.171875 C 32.207031 -19.453125 32.695312 -18.578125 33.03125 -17.546875 C 33.375 -16.523438 33.546875 -15.347656 33.546875 -14.015625 L 33.546875 0 L 28.25 0 L 28.25 -14.015625 C 28.25 -15.421875 27.9375 -16.472656 27.3125 -17.171875 C 26.695312 -17.878906 25.796875 -18.234375 24.609375 -18.234375 C 24.066406 -18.234375 23.5625 -18.140625 23.09375 -17.953125 C 22.632812 -17.773438 22.226562 -17.507812 21.875 -17.15625 C 21.53125 -16.800781 21.253906 -16.359375 21.046875 -15.828125 C 20.847656 -15.304688 20.75 -14.703125 20.75 -14.015625 L 20.75 0 L 15.4375 0 L 15.4375 -14.015625 C 15.4375 -15.484375 15.140625 -16.550781 14.546875 -17.21875 C 13.953125 -17.894531 13.082031 -18.234375 11.9375 -18.234375 C 11.15625 -18.234375 10.429688 -18.046875 9.765625 -17.671875 C 9.109375 -17.296875 8.492188 -16.78125 7.921875 -16.125 L 7.921875 0 Z M 2.625 0 "/></g></g></g><g fill="#363382" fill-opacity="1"><g transform="translate(201.906774, 53.206516)"><g><path d="M 12.359375 -22.359375 C 13.992188 -22.359375 15.476562 -22.09375 16.8125 -21.5625 C 18.15625 -21.039062 19.300781 -20.289062 20.25 -19.3125 C 21.195312 -18.34375 21.925781 -17.15625 22.4375 -15.75 C 22.957031 -14.351562 23.21875 -12.785156 23.21875 -11.046875 C 23.21875 -9.304688 22.957031 -7.734375 22.4375 -6.328125 C 21.925781 -4.929688 21.195312 -3.738281 20.25 -2.75 C 19.300781 -1.757812 18.15625 -1 16.8125 -0.46875 C 15.476562 0.0625 13.992188 0.328125 12.359375 0.328125 C 10.710938 0.328125 9.21875 0.0625 7.875 -0.46875 C 6.53125 -1 5.378906 -1.757812 4.421875 -2.75 C 3.472656 -3.738281 2.738281 -4.929688 2.21875 -6.328125 C 1.695312 -7.734375 1.4375 -9.304688 1.4375 -11.046875 C 1.4375 -12.785156 1.695312 -14.351562 2.21875 -15.75 C 2.738281 -17.15625 3.472656 -18.34375 4.421875 -19.3125 C 5.378906 -20.289062 6.53125 -21.039062 7.875 -21.5625 C 9.21875 -22.09375 10.710938 -22.359375 12.359375 -22.359375 Z M 12.359375 -3.75 C 14.191406 -3.75 15.546875 -4.363281 16.421875 -5.59375 C 17.304688 -6.832031 17.75 -8.640625 17.75 -11.015625 C 17.75 -13.390625 17.304688 -15.195312 16.421875 -16.4375 C 15.546875 -17.6875 14.191406 -18.3125 12.359375 -18.3125 C 10.503906 -18.3125 9.128906 -17.679688 8.234375 -16.421875 C 7.335938 -15.171875 6.890625 -13.367188 6.890625 -11.015625 C 6.890625 -8.648438 7.335938 -6.847656 8.234375 -5.609375 C 9.128906 -4.367188 10.503906 -3.75 12.359375 -3.75 Z M 12.359375 -3.75 "/></g></g></g><g fill="#363382" fill-opacity="1"><g transform="translate(226.561248, 53.206516)"><g/></g></g><g fill="#363382" fill-opacity="1"><g transform="translate(236.989504, 53.206516)"><g><path d="M 16.796875 -13.546875 C 16.796875 -14.234375 16.695312 -14.878906 16.5 -15.484375 C 16.3125 -16.085938 16.023438 -16.617188 15.640625 -17.078125 C 15.253906 -17.535156 14.765625 -17.894531 14.171875 -18.15625 C 13.578125 -18.425781 12.890625 -18.5625 12.109375 -18.5625 C 10.578125 -18.5625 9.367188 -18.125 8.484375 -17.25 C 7.609375 -16.382812 7.046875 -15.148438 6.796875 -13.546875 Z M 6.703125 -10.34375 C 6.785156 -9.21875 6.984375 -8.242188 7.296875 -7.421875 C 7.609375 -6.597656 8.019531 -5.914062 8.53125 -5.375 C 9.050781 -4.84375 9.664062 -4.441406 10.375 -4.171875 C 11.082031 -3.910156 11.863281 -3.78125 12.71875 -3.78125 C 13.582031 -3.78125 14.320312 -3.878906 14.9375 -4.078125 C 15.5625 -4.273438 16.109375 -4.492188 16.578125 -4.734375 C 17.046875 -4.984375 17.453125 -5.207031 17.796875 -5.40625 C 18.148438 -5.601562 18.492188 -5.703125 18.828125 -5.703125 C 19.265625 -5.703125 19.59375 -5.539062 19.8125 -5.21875 L 21.328125 -3.28125 C 20.742188 -2.59375 20.085938 -2.015625 19.359375 -1.546875 C 18.628906 -1.085938 17.863281 -0.71875 17.0625 -0.4375 C 16.269531 -0.15625 15.460938 0.0390625 14.640625 0.15625 C 13.816406 0.269531 13.019531 0.328125 12.25 0.328125 C 10.71875 0.328125 9.296875 0.0703125 7.984375 -0.4375 C 6.671875 -0.945312 5.523438 -1.695312 4.546875 -2.6875 C 3.578125 -3.6875 2.8125 -4.914062 2.25 -6.375 C 1.695312 -7.84375 1.421875 -9.546875 1.421875 -11.484375 C 1.421875 -12.984375 1.660156 -14.394531 2.140625 -15.71875 C 2.628906 -17.039062 3.328125 -18.191406 4.234375 -19.171875 C 5.140625 -20.148438 6.25 -20.925781 7.5625 -21.5 C 8.875 -22.070312 10.351562 -22.359375 12 -22.359375 C 13.382812 -22.359375 14.660156 -22.132812 15.828125 -21.6875 C 17.003906 -21.25 18.015625 -20.601562 18.859375 -19.75 C 19.703125 -18.90625 20.363281 -17.863281 20.84375 -16.625 C 21.320312 -15.382812 21.5625 -13.972656 21.5625 -12.390625 C 21.5625 -11.585938 21.472656 -11.046875 21.296875 -10.765625 C 21.128906 -10.484375 20.804688 -10.34375 20.328125 -10.34375 Z M 6.703125 -10.34375 "/></g></g></g><g fill="#363382" fill-opacity="1"><g transform="translate(259.905935, 53.206516)"><g><path d="M 7.578125 -19.3125 C 8.015625 -19.757812 8.476562 -20.171875 8.96875 -20.546875 C 9.46875 -20.929688 9.992188 -21.253906 10.546875 -21.515625 C 11.097656 -21.773438 11.6875 -21.976562 12.3125 -22.125 C 12.945312 -22.28125 13.632812 -22.359375 14.375 -22.359375 C 15.582031 -22.359375 16.648438 -22.15625 17.578125 -21.75 C 18.503906 -21.34375 19.28125 -20.769531 19.90625 -20.03125 C 20.53125 -19.289062 21 -18.410156 21.3125 -17.390625 C 21.632812 -16.367188 21.796875 -15.242188 21.796875 -14.015625 L 21.796875 0 L 16.5 0 L 16.5 -14.015625 C 16.5 -15.359375 16.191406 -16.394531 15.578125 -17.125 C 14.960938 -17.863281 14.023438 -18.234375 12.765625 -18.234375 C 11.847656 -18.234375 10.988281 -18.023438 10.1875 -17.609375 C 9.382812 -17.203125 8.628906 -16.640625 7.921875 -15.921875 L 7.921875 0 L 2.625 0 L 2.625 -22.015625 L 5.859375 -22.015625 C 6.546875 -22.015625 6.992188 -21.691406 7.203125 -21.046875 Z M 7.578125 -19.3125 "/></g></g></g><g fill="#363382" fill-opacity="1"><g transform="translate(284.109799, 53.206516)"><g/></g></g><g fill="#363382" fill-opacity="1"><g transform="translate(294.538056, 53.206516)"><g><path d="M 21.625 -4.765625 L 21.625 0 L 3.453125 0 L 3.453125 -31.03125 L 9.234375 -31.03125 L 9.234375 -4.765625 Z M 21.625 -4.765625 "/></g></g></g><g fill="#363382" fill-opacity="1"><g transform="translate(316.832216, 53.206516)"><g><path d="M 14.25 -9.40625 C 12.71875 -9.332031 11.429688 -9.195312 10.390625 -9 C 9.347656 -8.8125 8.507812 -8.566406 7.875 -8.265625 C 7.25 -7.960938 6.796875 -7.609375 6.515625 -7.203125 C 6.242188 -6.804688 6.109375 -6.375 6.109375 -5.90625 C 6.109375 -4.96875 6.382812 -4.300781 6.9375 -3.90625 C 7.488281 -3.507812 8.207031 -3.3125 9.09375 -3.3125 C 10.1875 -3.3125 11.128906 -3.503906 11.921875 -3.890625 C 12.710938 -4.285156 13.488281 -4.882812 14.25 -5.6875 Z M 2.109375 -18.953125 C 4.640625 -21.265625 7.6875 -22.421875 11.25 -22.421875 C 12.53125 -22.421875 13.675781 -22.207031 14.6875 -21.78125 C 15.707031 -21.363281 16.566406 -20.78125 17.265625 -20.03125 C 17.972656 -19.28125 18.507812 -18.382812 18.875 -17.34375 C 19.238281 -16.300781 19.421875 -15.15625 19.421875 -13.90625 L 19.421875 0 L 17.015625 0 C 16.515625 0 16.128906 -0.0703125 15.859375 -0.21875 C 15.585938 -0.375 15.375 -0.679688 15.21875 -1.140625 L 14.75 -2.71875 C 14.1875 -2.21875 13.640625 -1.78125 13.109375 -1.40625 C 12.578125 -1.03125 12.023438 -0.710938 11.453125 -0.453125 C 10.890625 -0.191406 10.28125 0.00390625 9.625 0.140625 C 8.976562 0.273438 8.257812 0.34375 7.46875 0.34375 C 6.539062 0.34375 5.679688 0.21875 4.890625 -0.03125 C 4.109375 -0.28125 3.429688 -0.65625 2.859375 -1.15625 C 2.285156 -1.65625 1.835938 -2.273438 1.515625 -3.015625 C 1.203125 -3.765625 1.046875 -4.632812 1.046875 -5.625 C 1.046875 -6.175781 1.140625 -6.726562 1.328125 -7.28125 C 1.515625 -7.832031 1.816406 -8.359375 2.234375 -8.859375 C 2.660156 -9.359375 3.207031 -9.828125 3.875 -10.265625 C 4.550781 -10.710938 5.378906 -11.101562 6.359375 -11.4375 C 7.335938 -11.769531 8.476562 -12.039062 9.78125 -12.25 C 11.082031 -12.457031 12.570312 -12.582031 14.25 -12.625 L 14.25 -13.90625 C 14.25 -15.382812 13.929688 -16.472656 13.296875 -17.171875 C 12.671875 -17.878906 11.765625 -18.234375 10.578125 -18.234375 C 9.722656 -18.234375 9.007812 -18.132812 8.4375 -17.9375 C 7.875 -17.738281 7.378906 -17.515625 6.953125 -17.265625 C 6.523438 -17.015625 6.132812 -16.785156 5.78125 -16.578125 C 5.4375 -16.378906 5.046875 -16.28125 4.609375 -16.28125 C 4.242188 -16.28125 3.929688 -16.378906 3.671875 -16.578125 C 3.410156 -16.773438 3.203125 -17 3.046875 -17.25 Z M 2.109375 -18.953125 "/></g></g></g><g fill="#363382" fill-opacity="1"><g transform="translate(338.611417, 53.206516)"><g><path d="M 7.921875 -5.703125 C 8.523438 -4.972656 9.175781 -4.457031 9.875 -4.15625 C 10.582031 -3.863281 11.332031 -3.71875 12.125 -3.71875 C 12.9375 -3.71875 13.664062 -3.863281 14.3125 -4.15625 C 14.96875 -4.445312 15.523438 -4.898438 15.984375 -5.515625 C 16.441406 -6.140625 16.789062 -6.9375 17.03125 -7.90625 C 17.28125 -8.875 17.40625 -10.03125 17.40625 -11.375 C 17.40625 -13.789062 17.003906 -15.535156 16.203125 -16.609375 C 15.398438 -17.691406 14.25 -18.234375 12.75 -18.234375 C 11.726562 -18.234375 10.835938 -18 10.078125 -17.53125 C 9.328125 -17.070312 8.609375 -16.421875 7.921875 -15.578125 Z M 7.921875 -19.3125 C 8.804688 -20.238281 9.785156 -20.976562 10.859375 -21.53125 C 11.941406 -22.082031 13.179688 -22.359375 14.578125 -22.359375 C 15.847656 -22.359375 16.992188 -22.109375 18.015625 -21.609375 C 19.035156 -21.109375 19.90625 -20.390625 20.625 -19.453125 C 21.351562 -18.515625 21.910156 -17.378906 22.296875 -16.046875 C 22.679688 -14.722656 22.875 -13.226562 22.875 -11.5625 C 22.875 -9.78125 22.648438 -8.15625 22.203125 -6.6875 C 21.765625 -5.226562 21.132812 -3.976562 20.3125 -2.9375 C 19.488281 -1.90625 18.5 -1.101562 17.34375 -0.53125 C 16.1875 0.0390625 14.898438 0.328125 13.484375 0.328125 C 12.796875 0.328125 12.171875 0.257812 11.609375 0.125 C 11.046875 -0.0078125 10.53125 -0.195312 10.0625 -0.4375 C 9.59375 -0.6875 9.160156 -0.984375 8.765625 -1.328125 C 8.367188 -1.679688 7.992188 -2.078125 7.640625 -2.515625 L 7.40625 -1.03125 C 7.320312 -0.65625 7.175781 -0.390625 6.96875 -0.234375 C 6.757812 -0.078125 6.472656 0 6.109375 0 L 2.625 0 L 2.625 -31.890625 L 7.921875 -31.890625 Z M 7.921875 -19.3125 "/></g></g></g><g fill="#363382" fill-opacity="1"><g transform="translate(110.412711, 96.038252)"><g><path d="M 12.359375 -22.359375 C 13.992188 -22.359375 15.476562 -22.09375 16.8125 -21.5625 C 18.15625 -21.039062 19.300781 -20.289062 20.25 -19.3125 C 21.195312 -18.34375 21.925781 -17.15625 22.4375 -15.75 C 22.957031 -14.351562 23.21875 -12.785156 23.21875 -11.046875 C 23.21875 -9.304688 22.957031 -7.734375 22.4375 -6.328125 C 21.925781 -4.929688 21.195312 -3.738281 20.25 -2.75 C 19.300781 -1.757812 18.15625 -1 16.8125 -0.46875 C 15.476562 0.0625 13.992188 0.328125 12.359375 0.328125 C 10.710938 0.328125 9.21875 0.0625 7.875 -0.46875 C 6.53125 -1 5.378906 -1.757812 4.421875 -2.75 C 3.472656 -3.738281 2.738281 -4.929688 2.21875 -6.328125 C 1.695312 -7.734375 1.4375 -9.304688 1.4375 -11.046875 C 1.4375 -12.785156 1.695312 -14.351562 2.21875 -15.75 C 2.738281 -17.15625 3.472656 -18.34375 4.421875 -19.3125 C 5.378906 -20.289062 6.53125 -21.039062 7.875 -21.5625 C 9.21875 -22.09375 10.710938 -22.359375 12.359375 -22.359375 Z M 12.359375 -3.75 C 14.191406 -3.75 15.546875 -4.363281 16.421875 -5.59375 C 17.304688 -6.832031 17.75 -8.640625 17.75 -11.015625 C 17.75 -13.390625 17.304688 -15.195312 16.421875 -16.4375 C 15.546875 -17.6875 14.191406 -18.3125 12.359375 -18.3125 C 10.503906 -18.3125 9.128906 -17.679688 8.234375 -16.421875 C 7.335938 -15.171875 6.890625 -13.367188 6.890625 -11.015625 C 6.890625 -8.648438 7.335938 -6.847656 8.234375 -5.609375 C 9.128906 -4.367188 10.503906 -3.75 12.359375 -3.75 Z M 12.359375 -3.75 "/></g></g></g><g fill="#363382" fill-opacity="1"><g transform="translate(135.067185, 96.038252)"><g><path d="M 2.625 0 L 2.625 -22.015625 L 5.859375 -22.015625 C 6.546875 -22.015625 6.992188 -21.691406 7.203125 -21.046875 L 7.546875 -19.421875 C 7.941406 -19.847656 8.347656 -20.238281 8.765625 -20.59375 C 9.191406 -20.957031 9.644531 -21.265625 10.125 -21.515625 C 10.601562 -21.773438 11.113281 -21.976562 11.65625 -22.125 C 12.207031 -22.28125 12.816406 -22.359375 13.484375 -22.359375 C 14.867188 -22.359375 16.003906 -21.984375 16.890625 -21.234375 C 17.785156 -20.484375 18.457031 -19.484375 18.90625 -18.234375 C 19.25 -18.972656 19.675781 -19.601562 20.1875 -20.125 C 20.707031 -20.644531 21.273438 -21.066406 21.890625 -21.390625 C 22.503906 -21.722656 23.15625 -21.96875 23.84375 -22.125 C 24.539062 -22.28125 25.242188 -22.359375 25.953125 -22.359375 C 27.160156 -22.359375 28.238281 -22.171875 29.1875 -21.796875 C 30.132812 -21.429688 30.925781 -20.890625 31.5625 -20.171875 C 32.207031 -19.453125 32.695312 -18.578125 33.03125 -17.546875 C 33.375 -16.523438 33.546875 -15.347656 33.546875 -14.015625 L 33.546875 0 L 28.25 0 L 28.25 -14.015625 C 28.25 -15.421875 27.9375 -16.472656 27.3125 -17.171875 C 26.695312 -17.878906 25.796875 -18.234375 24.609375 -18.234375 C 24.066406 -18.234375 23.5625 -18.140625 23.09375 -17.953125 C 22.632812 -17.773438 22.226562 -17.507812 21.875 -17.15625 C 21.53125 -16.800781 21.253906 -16.359375 21.046875 -15.828125 C 20.847656 -15.304688 20.75 -14.703125 20.75 -14.015625 L 20.75 0 L 15.4375 0 L 15.4375 -14.015625 C 15.4375 -15.484375 15.140625 -16.550781 14.546875 -17.21875 C 13.953125 -17.894531 13.082031 -18.234375 11.9375 -18.234375 C 11.15625 -18.234375 10.429688 -18.046875 9.765625 -17.671875 C 9.109375 -17.296875 8.492188 -16.78125 7.921875 -16.125 L 7.921875 0 Z M 2.625 0 "/></g></g></g><g fill="#363382" fill-opacity="1"><g transform="translate(171.008219, 96.038252)"><g><path d="M 10.671875 -11.546875 C 11.328125 -11.546875 11.894531 -11.632812 12.375 -11.8125 C 12.863281 -11.988281 13.269531 -12.234375 13.59375 -12.546875 C 13.914062 -12.867188 14.160156 -13.25 14.328125 -13.6875 C 14.492188 -14.132812 14.578125 -14.625 14.578125 -15.15625 C 14.578125 -16.238281 14.25 -17.097656 13.59375 -17.734375 C 12.945312 -18.367188 11.972656 -18.6875 10.671875 -18.6875 C 9.367188 -18.6875 8.390625 -18.367188 7.734375 -17.734375 C 7.085938 -17.097656 6.765625 -16.238281 6.765625 -15.15625 C 6.765625 -14.632812 6.84375 -14.148438 7 -13.703125 C 7.164062 -13.265625 7.410156 -12.882812 7.734375 -12.5625 C 8.054688 -12.238281 8.460938 -11.988281 8.953125 -11.8125 C 9.453125 -11.632812 10.023438 -11.546875 10.671875 -11.546875 Z M 16.65625 0.984375 C 16.65625 0.554688 16.523438 0.207031 16.265625 -0.0625 C 16.003906 -0.332031 15.648438 -0.539062 15.203125 -0.6875 C 14.765625 -0.84375 14.25 -0.957031 13.65625 -1.03125 C 13.0625 -1.101562 12.429688 -1.15625 11.765625 -1.1875 C 11.097656 -1.226562 10.410156 -1.257812 9.703125 -1.28125 C 9.003906 -1.3125 8.316406 -1.367188 7.640625 -1.453125 C 7.054688 -1.128906 6.582031 -0.742188 6.21875 -0.296875 C 5.851562 0.140625 5.671875 0.65625 5.671875 1.25 C 5.671875 1.632812 5.765625 1.992188 5.953125 2.328125 C 6.148438 2.660156 6.457031 2.945312 6.875 3.1875 C 7.300781 3.4375 7.847656 3.628906 8.515625 3.765625 C 9.191406 3.898438 10.015625 3.96875 10.984375 3.96875 C 11.972656 3.96875 12.820312 3.890625 13.53125 3.734375 C 14.25 3.585938 14.84375 3.378906 15.3125 3.109375 C 15.78125 2.847656 16.117188 2.535156 16.328125 2.171875 C 16.546875 1.804688 16.65625 1.410156 16.65625 0.984375 Z M 21.9375 -21.265625 L 21.9375 -19.296875 C 21.9375 -18.660156 21.554688 -18.273438 20.796875 -18.140625 L 18.828125 -17.765625 C 19.117188 -17.003906 19.265625 -16.175781 19.265625 -15.28125 C 19.265625 -14.195312 19.046875 -13.210938 18.609375 -12.328125 C 18.179688 -11.453125 17.578125 -10.703125 16.796875 -10.078125 C 16.023438 -9.460938 15.113281 -8.988281 14.0625 -8.65625 C 13.007812 -8.320312 11.878906 -8.15625 10.671875 -8.15625 C 10.234375 -8.15625 9.816406 -8.175781 9.421875 -8.21875 C 9.023438 -8.257812 8.628906 -8.316406 8.234375 -8.390625 C 7.546875 -7.972656 7.203125 -7.507812 7.203125 -7 C 7.203125 -6.550781 7.40625 -6.222656 7.8125 -6.015625 C 8.226562 -5.804688 8.769531 -5.660156 9.4375 -5.578125 C 10.113281 -5.492188 10.878906 -5.441406 11.734375 -5.421875 C 12.597656 -5.398438 13.476562 -5.351562 14.375 -5.28125 C 15.28125 -5.207031 16.160156 -5.082031 17.015625 -4.90625 C 17.878906 -4.726562 18.644531 -4.445312 19.3125 -4.0625 C 19.988281 -3.675781 20.53125 -3.148438 20.9375 -2.484375 C 21.34375 -1.816406 21.546875 -0.960938 21.546875 0.078125 C 21.546875 1.054688 21.304688 2.003906 20.828125 2.921875 C 20.347656 3.835938 19.65625 4.648438 18.75 5.359375 C 17.84375 6.078125 16.722656 6.65625 15.390625 7.09375 C 14.066406 7.53125 12.5625 7.75 10.875 7.75 C 9.21875 7.75 7.773438 7.585938 6.546875 7.265625 C 5.316406 6.941406 4.289062 6.507812 3.46875 5.96875 C 2.65625 5.4375 2.046875 4.816406 1.640625 4.109375 C 1.242188 3.410156 1.046875 2.6875 1.046875 1.9375 C 1.046875 0.90625 1.359375 0.0390625 1.984375 -0.65625 C 2.609375 -1.351562 3.460938 -1.90625 4.546875 -2.3125 C 3.960938 -2.613281 3.5 -3.015625 3.15625 -3.515625 C 2.8125 -4.015625 2.640625 -4.675781 2.640625 -5.5 C 2.640625 -5.820312 2.695312 -6.160156 2.8125 -6.515625 C 2.9375 -6.867188 3.117188 -7.210938 3.359375 -7.546875 C 3.597656 -7.890625 3.894531 -8.210938 4.25 -8.515625 C 4.601562 -8.828125 5.023438 -9.109375 5.515625 -9.359375 C 4.398438 -9.960938 3.523438 -10.765625 2.890625 -11.765625 C 2.253906 -12.765625 1.9375 -13.9375 1.9375 -15.28125 C 1.9375 -16.363281 2.148438 -17.34375 2.578125 -18.21875 C 3.015625 -19.101562 3.625 -19.859375 4.40625 -20.484375 C 5.1875 -21.109375 6.109375 -21.582031 7.171875 -21.90625 C 8.242188 -22.238281 9.410156 -22.40625 10.671875 -22.40625 C 11.609375 -22.40625 12.492188 -22.304688 13.328125 -22.109375 C 14.160156 -21.921875 14.921875 -21.640625 15.609375 -21.265625 Z M 21.9375 -21.265625 "/></g></g></g><g fill="#363382" fill-opacity="1"><g transform="translate(193.667159, 96.038252)"><g><path d="M 16.796875 -13.546875 C 16.796875 -14.234375 16.695312 -14.878906 16.5 -15.484375 C 16.3125 -16.085938 16.023438 -16.617188 15.640625 -17.078125 C 15.253906 -17.535156 14.765625 -17.894531 14.171875 -18.15625 C 13.578125 -18.425781 12.890625 -18.5625 12.109375 -18.5625 C 10.578125 -18.5625 9.367188 -18.125 8.484375 -17.25 C 7.609375 -16.382812 7.046875 -15.148438 6.796875 -13.546875 Z M 6.703125 -10.34375 C 6.785156 -9.21875 6.984375 -8.242188 7.296875 -7.421875 C 7.609375 -6.597656 8.019531 -5.914062 8.53125 -5.375 C 9.050781 -4.84375 9.664062 -4.441406 10.375 -4.171875 C 11.082031 -3.910156 11.863281 -3.78125 12.71875 -3.78125 C 13.582031 -3.78125 14.320312 -3.878906 14.9375 -4.078125 C 15.5625 -4.273438 16.109375 -4.492188 16.578125 -4.734375 C 17.046875 -4.984375 17.453125 -5.207031 17.796875 -5.40625 C 18.148438 -5.601562 18.492188 -5.703125 18.828125 -5.703125 C 19.265625 -5.703125 19.59375 -5.539062 19.8125 -5.21875 L 21.328125 -3.28125 C 20.742188 -2.59375 20.085938 -2.015625 19.359375 -1.546875 C 18.628906 -1.085938 17.863281 -0.71875 17.0625 -0.4375 C 16.269531 -0.15625 15.460938 0.0390625 14.640625 0.15625 C 13.816406 0.269531 13.019531 0.328125 12.25 0.328125 C 10.71875 0.328125 9.296875 0.0703125 7.984375 -0.4375 C 6.671875 -0.945312 5.523438 -1.695312 4.546875 -2.6875 C 3.578125 -3.6875 2.8125 -4.914062 2.25 -6.375 C 1.695312 -7.84375 1.421875 -9.546875 1.421875 -11.484375 C 1.421875 -12.984375 1.660156 -14.394531 2.140625 -15.71875 C 2.628906 -17.039062 3.328125 -18.191406 4.234375 -19.171875 C 5.140625 -20.148438 6.25 -20.925781 7.5625 -21.5 C 8.875 -22.070312 10.351562 -22.359375 12 -22.359375 C 13.382812 -22.359375 14.660156 -22.132812 15.828125 -21.6875 C 17.003906 -21.25 18.015625 -20.601562 18.859375 -19.75 C 19.703125 -18.90625 20.363281 -17.863281 20.84375 -16.625 C 21.320312 -15.382812 21.5625 -13.972656 21.5625 -12.390625 C 21.5625 -11.585938 21.472656 -11.046875 21.296875 -10.765625 C 21.128906 -10.484375 20.804688 -10.34375 20.328125 -10.34375 Z M 6.703125 -10.34375 "/></g></g></g><g fill="#363382" fill-opacity="1"><g transform="translate(216.58359, 96.038252)"><g><path d="M 22.46875 -22.015625 L 13.734375 0 L 8.921875 0 L 0.1875 -22.015625 L 4.578125 -22.015625 C 4.972656 -22.015625 5.300781 -21.921875 5.5625 -21.734375 C 5.832031 -21.554688 6.007812 -21.320312 6.09375 -21.03125 L 10.34375 -9.265625 C 10.570312 -8.578125 10.769531 -7.90625 10.9375 -7.25 C 11.113281 -6.59375 11.265625 -5.9375 11.390625 -5.28125 C 11.535156 -5.9375 11.691406 -6.59375 11.859375 -7.25 C 12.035156 -7.90625 12.242188 -8.578125 12.484375 -9.265625 L 16.828125 -21.03125 C 16.921875 -21.320312 17.097656 -21.554688 17.359375 -21.734375 C 17.617188 -21.921875 17.925781 -22.015625 18.28125 -22.015625 Z M 22.46875 -22.015625 "/></g></g></g><g fill="#363382" fill-opacity="1"><g transform="translate(239.24253, 96.038252)"><g><path d="M 8.109375 -22.015625 L 8.109375 0 L 2.796875 0 L 2.796875 -22.015625 Z M 8.84375 -28.4375 C 8.84375 -27.976562 8.75 -27.546875 8.5625 -27.140625 C 8.375 -26.742188 8.125 -26.394531 7.8125 -26.09375 C 7.507812 -25.789062 7.148438 -25.550781 6.734375 -25.375 C 6.316406 -25.195312 5.875 -25.109375 5.40625 -25.109375 C 4.945312 -25.109375 4.515625 -25.195312 4.109375 -25.375 C 3.703125 -25.550781 3.347656 -25.789062 3.046875 -26.09375 C 2.742188 -26.394531 2.503906 -26.742188 2.328125 -27.140625 C 2.148438 -27.546875 2.0625 -27.976562 2.0625 -28.4375 C 2.0625 -28.90625 2.148438 -29.347656 2.328125 -29.765625 C 2.503906 -30.179688 2.742188 -30.539062 3.046875 -30.84375 C 3.347656 -31.144531 3.703125 -31.382812 4.109375 -31.5625 C 4.515625 -31.738281 4.945312 -31.828125 5.40625 -31.828125 C 5.875 -31.828125 6.316406 -31.738281 6.734375 -31.5625 C 7.148438 -31.382812 7.507812 -31.144531 7.8125 -30.84375 C 8.125 -30.539062 8.375 -30.179688 8.5625 -29.765625 C 8.75 -29.347656 8.84375 -28.90625 8.84375 -28.4375 Z M 8.84375 -28.4375 "/></g></g></g><g fill="#363382" fill-opacity="1"><g transform="translate(250.142854, 96.038252)"><g><path d="M 7.578125 -19.3125 C 8.015625 -19.757812 8.476562 -20.171875 8.96875 -20.546875 C 9.46875 -20.929688 9.992188 -21.253906 10.546875 -21.515625 C 11.097656 -21.773438 11.6875 -21.976562 12.3125 -22.125 C 12.945312 -22.28125 13.632812 -22.359375 14.375 -22.359375 C 15.582031 -22.359375 16.648438 -22.15625 17.578125 -21.75 C 18.503906 -21.34375 19.28125 -20.769531 19.90625 -20.03125 C 20.53125 -19.289062 21 -18.410156 21.3125 -17.390625 C 21.632812 -16.367188 21.796875 -15.242188 21.796875 -14.015625 L 21.796875 0 L 16.5 0 L 16.5 -14.015625 C 16.5 -15.359375 16.191406 -16.394531 15.578125 -17.125 C 14.960938 -17.863281 14.023438 -18.234375 12.765625 -18.234375 C 11.847656 -18.234375 10.988281 -18.023438 10.1875 -17.609375 C 9.382812 -17.203125 8.628906 -16.640625 7.921875 -15.921875 L 7.921875 0 L 2.625 0 L 2.625 -22.015625 L 5.859375 -22.015625 C 6.546875 -22.015625 6.992188 -21.691406 7.203125 -21.046875 Z M 7.578125 -19.3125 "/></g></g></g><g fill="#363382" fill-opacity="1"><g transform="translate(274.346718, 96.038252)"><g><path d="M 10.671875 -11.546875 C 11.328125 -11.546875 11.894531 -11.632812 12.375 -11.8125 C 12.863281 -11.988281 13.269531 -12.234375 13.59375 -12.546875 C 13.914062 -12.867188 14.160156 -13.25 14.328125 -13.6875 C 14.492188 -14.132812 14.578125 -14.625 14.578125 -15.15625 C 14.578125 -16.238281 14.25 -17.097656 13.59375 -17.734375 C 12.945312 -18.367188 11.972656 -18.6875 10.671875 -18.6875 C 9.367188 -18.6875 8.390625 -18.367188 7.734375 -17.734375 C 7.085938 -17.097656 6.765625 -16.238281 6.765625 -15.15625 C 6.765625 -14.632812 6.84375 -14.148438 7 -13.703125 C 7.164062 -13.265625 7.410156 -12.882812 7.734375 -12.5625 C 8.054688 -12.238281 8.460938 -11.988281 8.953125 -11.8125 C 9.453125 -11.632812 10.023438 -11.546875 10.671875 -11.546875 Z M 16.65625 0.984375 C 16.65625 0.554688 16.523438 0.207031 16.265625 -0.0625 C 16.003906 -0.332031 15.648438 -0.539062 15.203125 -0.6875 C 14.765625 -0.84375 14.25 -0.957031 13.65625 -1.03125 C 13.0625 -1.101562 12.429688 -1.15625 11.765625 -1.1875 C 11.097656 -1.226562 10.410156 -1.257812 9.703125 -1.28125 C 9.003906 -1.3125 8.316406 -1.367188 7.640625 -1.453125 C 7.054688 -1.128906 6.582031 -0.742188 6.21875 -0.296875 C 5.851562 0.140625 5.671875 0.65625 5.671875 1.25 C 5.671875 1.632812 5.765625 1.992188 5.953125 2.328125 C 6.148438 2.660156 6.457031 2.945312 6.875 3.1875 C 7.300781 3.4375 7.847656 3.628906 8.515625 3.765625 C 9.191406 3.898438 10.015625 3.96875 10.984375 3.96875 C 11.972656 3.96875 12.820312 3.890625 13.53125 3.734375 C 14.25 3.585938 14.84375 3.378906 15.3125 3.109375 C 15.78125 2.847656 16.117188 2.535156 16.328125 2.171875 C 16.546875 1.804688 16.65625 1.410156 16.65625 0.984375 Z M 21.9375 -21.265625 L 21.9375 -19.296875 C 21.9375 -18.660156 21.554688 -18.273438 20.796875 -18.140625 L 18.828125 -17.765625 C 19.117188 -17.003906 19.265625 -16.175781 19.265625 -15.28125 C 19.265625 -14.195312 19.046875 -13.210938 18.609375 -12.328125 C 18.179688 -11.453125 17.578125 -10.703125 16.796875 -10.078125 C 16.023438 -9.460938 15.113281 -8.988281 14.0625 -8.65625 C 13.007812 -8.320312 11.878906 -8.15625 10.671875 -8.15625 C 10.234375 -8.15625 9.816406 -8.175781 9.421875 -8.21875 C 9.023438 -8.257812 8.628906 -8.316406 8.234375 -8.390625 C 7.546875 -7.972656 7.203125 -7.507812 7.203125 -7 C 7.203125 -6.550781 7.40625 -6.222656 7.8125 -6.015625 C 8.226562 -5.804688 8.769531 -5.660156 9.4375 -5.578125 C 10.113281 -5.492188 10.878906 -5.441406 11.734375 -5.421875 C 12.597656 -5.398438 13.476562 -5.351562 14.375 -5.28125 C 15.28125 -5.207031 16.160156 -5.082031 17.015625 -4.90625 C 17.878906 -4.726562 18.644531 -4.445312 19.3125 -4.0625 C 19.988281 -3.675781 20.53125 -3.148438 20.9375 -2.484375 C 21.34375 -1.816406 21.546875 -0.960938 21.546875 0.078125 C 21.546875 1.054688 21.304688 2.003906 20.828125 2.921875 C 20.347656 3.835938 19.65625 4.648438 18.75 5.359375 C 17.84375 6.078125 16.722656 6.65625 15.390625 7.09375 C 14.066406 7.53125 12.5625 7.75 10.875 7.75 C 9.21875 7.75 7.773438 7.585938 6.546875 7.265625 C 5.316406 6.941406 4.289062 6.507812 3.46875 5.96875 C 2.65625 5.4375 2.046875 4.816406 1.640625 4.109375 C 1.242188 3.410156 1.046875 2.6875 1.046875 1.9375 C 1.046875 0.90625 1.359375 0.0390625 1.984375 -0.65625 C 2.609375 -1.351562 3.460938 -1.90625 4.546875 -2.3125 C 3.960938 -2.613281 3.5 -3.015625 3.15625 -3.515625 C 2.8125 -4.015625 2.640625 -4.675781 2.640625 -5.5 C 2.640625 -5.820312 2.695312 -6.160156 2.8125 -6.515625 C 2.9375 -6.867188 3.117188 -7.210938 3.359375 -7.546875 C 3.597656 -7.890625 3.894531 -8.210938 4.25 -8.515625 C 4.601562 -8.828125 5.023438 -9.109375 5.515625 -9.359375 C 4.398438 -9.960938 3.523438 -10.765625 2.890625 -11.765625 C 2.253906 -12.765625 1.9375 -13.9375 1.9375 -15.28125 C 1.9375 -16.363281 2.148438 -17.34375 2.578125 -18.21875 C 3.015625 -19.101562 3.625 -19.859375 4.40625 -20.484375 C 5.1875 -21.109375 6.109375 -21.582031 7.171875 -21.90625 C 8.242188 -22.238281 9.410156 -22.40625 10.671875 -22.40625 C 11.609375 -22.40625 12.492188 -22.304688 13.328125 -22.109375 C 14.160156 -21.921875 14.921875 -21.640625 15.609375 -21.265625 Z M 21.9375 -21.265625 "/></g></g></g><g clip-path="url(#e9e7eab173)"><path fill="#6ae682" d="M 89.507812 59.058594 C 89.507812 60.699219 89.40625 62.320312 89.210938 63.910156 C 87.199219 80.300781 75.117188 93.578125 59.34375 97.363281 C 56.382812 98.074219 53.292969 98.449219 50.117188 98.449219 C 28.359375 98.449219 10.722656 80.8125 10.722656 59.058594 C 10.722656 37.300781 28.359375 19.664062 50.117188 19.664062 C 71.871094 19.664062 89.507812 37.300781 89.507812 59.058594 Z M 89.507812 59.058594 " fill-opacity="1" fill-rule="nonzero"/></g><g clip-path="url(#748898e635)"><path fill="#0097f5" d="M 89.210938 63.910156 C 87.199219 80.300781 75.117188 93.578125 59.34375 97.363281 C 50.765625 88.1875 42.1875 79.015625 33.605469 69.839844 C 32.957031 69.707031 31.609375 69.332031 30.394531 68.191406 C 28.433594 66.34375 28.320312 63.902344 28.3125 63.386719 L 28.3125 50.28125 C 30.503906 48.085938 32.699219 45.890625 34.890625 43.699219 C 39.796875 43.714844 44.703125 43.714844 49.605469 43.699219 C 54.789062 43.683594 59.96875 43.648438 65.152344 43.597656 C 65.800781 43.585938 66.621094 43.652344 67.5 43.964844 C 67.5 43.964844 68.429688 44.292969 69.261719 44.914062 C 70.058594 45.511719 78.746094 53.828125 89.210938 63.910156 Z M 89.210938 63.910156 " fill-opacity="1" fill-rule="nonzero"/></g><path fill="#ffffff" d="M 65.339844 43.699219 L 34.890625 43.699219 C 31.257812 43.699219 28.308594 46.644531 28.308594 50.28125 L 28.308594 63.386719 C 28.308594 67.019531 31.257812 69.96875 34.890625 69.96875 L 65.339844 69.96875 C 68.972656 69.96875 71.921875 67.019531 71.921875 63.386719 L 71.921875 50.28125 C 71.921875 46.644531 68.972656 43.699219 65.339844 43.699219 Z M 31.0625 58.289062 L 31.0625 49.933594 C 31.0625 48.859375 31.9375 47.988281 33.011719 47.988281 L 40.3125 47.988281 C 41.386719 47.988281 42.257812 48.859375 42.257812 49.933594 L 42.257812 58.289062 C 42.257812 59.261719 41.542969 60.070312 40.605469 60.210938 C 40.605469 59.449219 40.609375 58.6875 40.609375 57.925781 C 40.609375 55.90625 39.304688 54.265625 37.699219 54.265625 L 35.621094 54.265625 C 34.015625 54.265625 32.714844 55.90625 32.714844 57.925781 C 32.714844 58.6875 32.714844 59.449219 32.714844 60.210938 C 31.78125 60.070312 31.0625 59.261719 31.0625 58.289062 Z M 61.886719 66.226562 C 61.886719 66.378906 61.761719 66.503906 61.605469 66.503906 L 32.652344 66.503906 C 32.5 66.503906 32.375 66.378906 32.375 66.226562 L 32.375 65.996094 C 32.375 65.84375 32.5 65.714844 32.652344 65.714844 L 61.605469 65.714844 C 61.761719 65.714844 61.886719 65.84375 61.886719 65.996094 Z M 64.605469 57.679688 C 64.605469 57.835938 64.480469 57.960938 64.324219 57.960938 L 45.242188 57.960938 C 45.085938 57.960938 44.960938 57.835938 44.960938 57.679688 L 44.960938 57.453125 C 44.960938 57.296875 45.085938 57.171875 45.242188 57.171875 L 64.324219 57.171875 C 64.480469 57.171875 64.605469 57.296875 64.605469 57.453125 Z M 64.605469 55.605469 C 64.605469 55.761719 64.480469 55.886719 64.324219 55.886719 L 45.242188 55.886719 C 45.085938 55.886719 44.960938 55.761719 44.960938 55.605469 L 44.960938 55.375 C 44.960938 55.222656 45.085938 55.097656 45.242188 55.097656 L 64.324219 55.097656 C 64.480469 55.097656 64.605469 55.222656 64.605469 55.375 Z M 64.605469 53.53125 C 64.605469 53.683594 64.480469 53.808594 64.324219 53.808594 L 45.242188 53.808594 C 45.085938 53.808594 44.960938 53.683594 44.960938 53.53125 L 44.960938 53.300781 C 44.960938 53.144531 45.085938 53.019531 45.242188 53.019531 L 64.324219 53.019531 C 64.480469 53.019531 64.605469 53.144531 64.605469 53.300781 Z M 64.605469 51.453125 C 64.605469 51.609375 64.480469 51.734375 64.324219 51.734375 L 45.242188 51.734375 C 45.085938 51.734375 44.960938 51.609375 44.960938 51.453125 L 44.960938 51.226562 C 44.960938 51.070312 45.085938 50.945312 45.242188 50.945312 L 64.324219 50.945312 C 64.480469 50.945312 64.605469 51.070312 64.605469 51.226562 Z M 64.605469 49.378906 C 64.605469 49.535156 64.480469 49.660156 64.324219 49.660156 L 45.242188 49.660156 C 45.085938 49.660156 44.960938 49.535156 44.960938 49.378906 L 44.960938 49.148438 C 44.960938 48.996094 45.085938 48.871094 45.242188 48.871094 L 64.324219 48.871094 C 64.480469 48.871094 64.605469 48.996094 64.605469 49.148438 Z M 64.605469 49.378906 " fill-opacity="1" fill-rule="nonzero"/><path fill="#ffffff" d="M 36.789062 53.546875 C 38.042969 53.546875 39.058594 52.554688 39.058594 51.332031 C 39.058594 50.113281 38.042969 49.121094 36.789062 49.121094 C 35.535156 49.121094 34.515625 50.113281 34.515625 51.332031 C 34.515625 52.554688 35.535156 53.546875 36.789062 53.546875 Z M 36.789062 53.546875 " fill-opacity="1" fill-rule="nonzero"/></svg>