<svg xmlns="http://www.w3.org/2000/svg" xmlns:xlink="http://www.w3.org/1999/xlink" width="500" zoomAndPan="magnify" viewBox="0 0 375 374.999991" height="500" preserveAspectRatio="xMidYMid meet" version="1.0"><defs><g/><clipPath id="d6b40fc267"><path d="M 5.066406 0 L 374.816406 0 L 374.816406 369.75 L 5.066406 369.75 Z M 5.066406 0 " clip-rule="nonzero"/></clipPath><clipPath id="5ceecc062d"><path d="M 190.027344 0 C 87.878906 0 5.066406 82.8125 5.066406 184.960938 C 5.066406 287.113281 87.878906 369.925781 190.027344 369.925781 C 292.179688 369.925781 374.992188 287.113281 374.992188 184.960938 C 374.992188 82.8125 292.179688 0 190.027344 0 Z M 190.027344 0 " clip-rule="nonzero"/></clipPath></defs><g clip-path="url(#d6b40fc267)"><g clip-path="url(#5ceecc062d)"><path stroke-linecap="butt" transform="matrix(0.75, 0, 0, 0.75, 5.066292, 0.000000000000021316)" fill="none" stroke-linejoin="miter" d="M 246.614768 -0.000000000000028422 C 110.416833 -0.000000000000028422 0.000152217 110.416681 0.000152217 246.614615 C 0.000152217 382.817758 110.416833 493.234439 246.614768 493.234439 C 382.81791 493.234439 493.234591 382.817758 493.234591 246.614615 C 493.234591 110.416681 382.81791 -0.000000000000028422 246.614768 -0.000000000000028422 Z M 246.614768 -0.000000000000028422 " stroke="#00b6f0" stroke-width="8" stroke-opacity="1" stroke-miterlimit="4"/></g></g><g fill="#00b6f0" fill-opacity="1"><g transform="translate(41.708927, 234.374985)"><g><path d="M 23.359375 0 L 11.34375 0 L 11.34375 -88.796875 L 23.359375 -88.796875 Z M 23.359375 0 "/></g></g></g><g fill="#00b6f0" fill-opacity="1"><g transform="translate(76.411394, 234.374985)"><g><path d="M 37.546875 -42.765625 C 40.984375 -42.765625 44.007812 -43.21875 46.625 -44.125 C 49.25 -45.03125 51.457031 -46.296875 53.25 -47.921875 C 55.050781 -49.554688 56.40625 -51.507812 57.3125 -53.78125 C 58.226562 -56.0625 58.6875 -58.5625 58.6875 -61.28125 C 58.6875 -66.945312 56.941406 -71.367188 53.453125 -74.546875 C 49.960938 -77.722656 44.660156 -79.3125 37.546875 -79.3125 L 23.296875 -79.3125 L 23.296875 -42.765625 Z M 37.546875 -88.796875 C 43.171875 -88.796875 48.054688 -88.144531 52.203125 -86.84375 C 56.359375 -85.539062 59.796875 -83.691406 62.515625 -81.296875 C 65.242188 -78.898438 67.28125 -76.007812 68.625 -72.625 C 69.96875 -69.238281 70.640625 -65.457031 70.640625 -61.28125 C 70.640625 -57.15625 69.914062 -53.375 68.46875 -49.9375 C 67.03125 -46.507812 64.914062 -43.554688 62.125 -41.078125 C 59.332031 -38.609375 55.878906 -36.679688 51.765625 -35.296875 C 47.660156 -33.910156 42.921875 -33.21875 37.546875 -33.21875 L 23.296875 -33.21875 L 23.296875 0 L 11.34375 0 L 11.34375 -88.796875 Z M 37.546875 -88.796875 "/></g></g></g><g fill="#00b6f0" fill-opacity="1"><g transform="translate(150.835773, 234.374985)"><g><path d="M 58.5 -32.96875 L 44.5625 -69.09375 C 44.144531 -70.164062 43.707031 -71.414062 43.25 -72.84375 C 42.800781 -74.269531 42.367188 -75.789062 41.953125 -77.40625 C 41.085938 -74.050781 40.195312 -71.257812 39.28125 -69.03125 L 25.34375 -32.96875 Z M 83.53125 0 L 74.234375 0 C 73.160156 0 72.289062 -0.265625 71.625 -0.796875 C 70.96875 -1.335938 70.476562 -2.019531 70.15625 -2.84375 L 61.84375 -24.296875 L 22 -24.296875 L 13.6875 -2.84375 C 13.445312 -2.101562 12.972656 -1.441406 12.265625 -0.859375 C 11.566406 -0.285156 10.703125 0 9.671875 0 L 0.375 0 L 35.875 -88.796875 L 48.03125 -88.796875 Z M 83.53125 0 "/></g></g></g><g fill="#00b6f0" fill-opacity="1"><g transform="translate(234.741354, 234.374985)"><g/></g></g><g fill="#00b6f0" fill-opacity="1"><g transform="translate(266.469318, 234.374985)"><g><path d="M 22.4375 -55.28125 C 27.0625 -56.269531 31.316406 -56.765625 35.203125 -56.765625 C 39.828125 -56.765625 43.914062 -56.082031 47.46875 -54.71875 C 51.019531 -53.351562 53.984375 -51.472656 56.359375 -49.078125 C 58.734375 -46.679688 60.53125 -43.847656 61.75 -40.578125 C 62.96875 -37.316406 63.578125 -33.769531 63.578125 -29.9375 C 63.578125 -25.21875 62.757812 -20.957031 61.125 -17.15625 C 59.5 -13.363281 57.25 -10.113281 54.375 -7.40625 C 51.507812 -4.695312 48.132812 -2.617188 44.25 -1.171875 C 40.363281 0.265625 36.171875 0.984375 31.671875 0.984375 C 29.066406 0.984375 26.566406 0.722656 24.171875 0.203125 C 21.773438 -0.304688 19.53125 -0.992188 17.4375 -1.859375 C 15.351562 -2.722656 13.421875 -3.710938 11.640625 -4.828125 C 9.867188 -5.941406 8.300781 -7.117188 6.9375 -8.359375 L 10.34375 -13.078125 C 11.09375 -14.148438 12.066406 -14.6875 13.265625 -14.6875 C 14.085938 -14.6875 15.015625 -14.363281 16.046875 -13.71875 C 17.078125 -13.082031 18.335938 -12.367188 19.828125 -11.578125 C 21.316406 -10.796875 23.0625 -10.082031 25.0625 -9.4375 C 27.070312 -8.800781 29.457031 -8.484375 32.21875 -8.484375 C 35.320312 -8.484375 38.113281 -8.976562 40.59375 -9.96875 C 43.070312 -10.96875 45.195312 -12.382812 46.96875 -14.21875 C 48.75 -16.0625 50.113281 -18.257812 51.0625 -20.8125 C 52.007812 -23.375 52.484375 -26.25 52.484375 -29.4375 C 52.484375 -32.207031 52.082031 -34.707031 51.28125 -36.9375 C 50.476562 -39.164062 49.257812 -41.0625 47.625 -42.625 C 45.988281 -44.195312 43.953125 -45.414062 41.515625 -46.28125 C 39.078125 -47.15625 36.226562 -47.59375 32.96875 -47.59375 C 30.738281 -47.59375 28.414062 -47.40625 26 -47.03125 C 23.582031 -46.664062 21.113281 -46.066406 18.59375 -45.234375 L 11.65625 -47.28125 L 18.78125 -88.796875 L 60.859375 -88.796875 L 60.859375 -83.96875 C 60.859375 -82.394531 60.367188 -81.101562 59.390625 -80.09375 C 58.421875 -79.082031 56.757812 -78.578125 54.40625 -78.578125 L 26.515625 -78.578125 Z M 22.4375 -55.28125 "/></g></g></g></svg>