<svg xmlns="http://www.w3.org/2000/svg" xmlns:xlink="http://www.w3.org/1999/xlink" width="500" zoomAndPan="magnify" viewBox="0 0 375 374.999991" height="500" preserveAspectRatio="xMidYMid meet" version="1.0"><defs><g/><clipPath id="f962337677"><path d="M 5.066406 0 L 374.816406 0 L 374.816406 369.75 L 5.066406 369.75 Z M 5.066406 0 " clip-rule="nonzero"/></clipPath><clipPath id="e261c7e734"><path d="M 190.027344 0 C 87.878906 0 5.066406 82.8125 5.066406 184.960938 C 5.066406 287.113281 87.878906 369.925781 190.027344 369.925781 C 292.179688 369.925781 374.992188 287.113281 374.992188 184.960938 C 374.992188 82.8125 292.179688 0 190.027344 0 Z M 190.027344 0 " clip-rule="nonzero"/></clipPath></defs><g clip-path="url(#f962337677)"><g clip-path="url(#e261c7e734)"><path stroke-linecap="butt" transform="matrix(0.75, 0, 0, 0.75, 5.066292, 0.000000000000021316)" fill="none" stroke-linejoin="miter" d="M 246.614768 -0.000000000000028422 C 110.416833 -0.000000000000028422 0.000152217 110.416681 0.000152217 246.614615 C 0.000152217 382.817758 110.416833 493.234439 246.614768 493.234439 C 382.81791 493.234439 493.234591 382.817758 493.234591 246.614615 C 493.234591 110.416681 382.81791 -0.000000000000028422 246.614768 -0.000000000000028422 Z M 246.614768 -0.000000000000028422 " stroke="#7ed957" stroke-width="8" stroke-opacity="1" stroke-miterlimit="4"/></g></g><g fill="#7ed957" fill-opacity="1"><g transform="translate(41.708927, 234.374985)"><g><path d="M 23.359375 0 L 11.34375 0 L 11.34375 -88.796875 L 23.359375 -88.796875 Z M 23.359375 0 "/></g></g></g><g fill="#7ed957" fill-opacity="1"><g transform="translate(76.411394, 234.374985)"><g><path d="M 37.546875 -42.765625 C 40.984375 -42.765625 44.007812 -43.21875 46.625 -44.125 C 49.25 -45.03125 51.457031 -46.296875 53.25 -47.921875 C 55.050781 -49.554688 56.40625 -51.507812 57.3125 -53.78125 C 58.226562 -56.0625 58.6875 -58.5625 58.6875 -61.28125 C 58.6875 -66.945312 56.941406 -71.367188 53.453125 -74.546875 C 49.960938 -77.722656 44.660156 -79.3125 37.546875 -79.3125 L 23.296875 -79.3125 L 23.296875 -42.765625 Z M 37.546875 -88.796875 C 43.171875 -88.796875 48.054688 -88.144531 52.203125 -86.84375 C 56.359375 -85.539062 59.796875 -83.691406 62.515625 -81.296875 C 65.242188 -78.898438 67.28125 -76.007812 68.625 -72.625 C 69.96875 -69.238281 70.640625 -65.457031 70.640625 -61.28125 C 70.640625 -57.15625 69.914062 -53.375 68.46875 -49.9375 C 67.03125 -46.507812 64.914062 -43.554688 62.125 -41.078125 C 59.332031 -38.609375 55.878906 -36.679688 51.765625 -35.296875 C 47.660156 -33.910156 42.921875 -33.21875 37.546875 -33.21875 L 23.296875 -33.21875 L 23.296875 0 L 11.34375 0 L 11.34375 -88.796875 Z M 37.546875 -88.796875 "/></g></g></g><g fill="#7ed957" fill-opacity="1"><g transform="translate(150.835773, 234.374985)"><g><path d="M 58.5 -32.96875 L 44.5625 -69.09375 C 44.144531 -70.164062 43.707031 -71.414062 43.25 -72.84375 C 42.800781 -74.269531 42.367188 -75.789062 41.953125 -77.40625 C 41.085938 -74.050781 40.195312 -71.257812 39.28125 -69.03125 L 25.34375 -32.96875 Z M 83.53125 0 L 74.234375 0 C 73.160156 0 72.289062 -0.265625 71.625 -0.796875 C 70.96875 -1.335938 70.476562 -2.019531 70.15625 -2.84375 L 61.84375 -24.296875 L 22 -24.296875 L 13.6875 -2.84375 C 13.445312 -2.101562 12.972656 -1.441406 12.265625 -0.859375 C 11.566406 -0.285156 10.703125 0 9.671875 0 L 0.375 0 L 35.875 -88.796875 L 48.03125 -88.796875 Z M 83.53125 0 "/></g></g></g><g fill="#7ed957" fill-opacity="1"><g transform="translate(234.741354, 234.374985)"><g/></g></g><g fill="#7ed957" fill-opacity="1"><g transform="translate(266.469318, 234.374985)"><g><path d="M 66.984375 -88.796875 L 66.984375 -83.84375 C 66.984375 -82.4375 66.828125 -81.28125 66.515625 -80.375 C 66.210938 -79.46875 65.914062 -78.703125 65.625 -78.078125 L 28.8125 -3.90625 C 28.28125 -2.832031 27.535156 -1.910156 26.578125 -1.140625 C 25.628906 -0.378906 24.367188 0 22.796875 0 L 14.875 0 L 52.171875 -73.25 C 52.710938 -74.28125 53.269531 -75.226562 53.84375 -76.09375 C 54.425781 -76.96875 55.046875 -77.796875 55.703125 -78.578125 L 9.359375 -78.578125 C 8.648438 -78.578125 8.023438 -78.851562 7.484375 -79.40625 C 6.953125 -79.96875 6.6875 -80.597656 6.6875 -81.296875 L 6.6875 -88.796875 Z M 66.984375 -88.796875 "/></g></g></g></svg>