<svg xmlns="http://www.w3.org/2000/svg" xmlns:xlink="http://www.w3.org/1999/xlink" width="500" zoomAndPan="magnify" viewBox="0 0 375 374.999991" height="500" preserveAspectRatio="xMidYMid meet" version="1.0"><defs><clipPath id="f7b68ed47e"><path d="M 73.476562 75.960938 L 305.046875 75.960938 L 305.046875 309 L 73.476562 309 Z M 73.476562 75.960938 " clip-rule="nonzero"/></clipPath><clipPath id="700ddd9b10"><path d="M 90.726562 75.960938 L 287.796875 75.960938 C 292.371094 75.960938 296.761719 77.777344 299.996094 81.015625 C 303.230469 84.25 305.046875 88.636719 305.046875 93.210938 L 305.046875 291.644531 C 305.046875 296.21875 303.230469 300.605469 299.996094 303.839844 C 296.761719 307.078125 292.371094 308.894531 287.796875 308.894531 L 90.726562 308.894531 C 86.152344 308.894531 81.765625 307.078125 78.53125 303.839844 C 75.292969 300.605469 73.476562 296.21875 73.476562 291.644531 L 73.476562 93.210938 C 73.476562 88.636719 75.292969 84.25 78.53125 81.015625 C 81.765625 77.777344 86.152344 75.960938 90.726562 75.960938 Z M 90.726562 75.960938 " clip-rule="nonzero"/></clipPath><clipPath id="dadd253c09"><path d="M 14.25 12.742188 L 362.25 12.742188 L 362.25 360.449219 L 14.25 360.449219 Z M 14.25 12.742188 " clip-rule="nonzero"/></clipPath></defs><rect x="-37.5" width="450" fill="#ffffff" y="-37.499999" height="449.999989" fill-opacity="1"/><rect x="-37.5" width="450" fill="#ffffff" y="-37.499999" height="449.999989" fill-opacity="1"/><g clip-path="url(#f7b68ed47e)"><g clip-path="url(#700ddd9b10)"><path fill="#223569" d="M 73.476562 75.960938 L 305.046875 75.960938 L 305.046875 309.34375 L 73.476562 309.34375 Z M 73.476562 75.960938 " fill-opacity="1" fill-rule="nonzero"/></g></g><path fill="#de0466" d="M 260.324219 141.523438 C 254.15625 147.6875 244.160156 147.6875 237.992188 141.523438 C 231.824219 135.351562 231.824219 125.355469 237.992188 119.191406 C 244.160156 113.023438 254.15625 113.023438 260.324219 119.191406 C 266.488281 125.355469 266.488281 135.351562 260.324219 141.523438 " fill-opacity="1" fill-rule="nonzero"/><g clip-path="url(#dadd253c09)"><path fill="#de0466" d="M 183.238281 105.585938 C 165.609375 123.21875 160.390625 148.5625 167.585938 170.757812 L 86.339844 251.980469 L 84.097656 276.527344 C 84.035156 278.199219 84.148438 280.394531 85.683594 282.03125 C 86.816406 283.238281 88.453125 283.863281 90.6875 283.933594 L 119.769531 286.382812 L 123.621094 282.527344 L 125.871094 280.097656 C 126.605469 279.300781 127.015625 278.253906 127.015625 277.171875 L 127.015625 259.535156 L 145.890625 259.472656 L 146.890625 259.257812 L 148.960938 257.355469 L 148.933594 240.140625 L 164.976562 240.140625 C 165.59375 240.140625 166.175781 239.84375 166.707031 239.609375 L 168.921875 237.308594 C 169.105469 236.890625 169.230469 236.390625 169.273438 235.90625 L 169.28125 218.230469 L 187.914062 218.25 L 198.546875 207.609375 C 204.667969 210.855469 211.207031 213.042969 217.890625 214.164062 C 237.65625 217.492188 258.675781 211.527344 273.925781 196.273438 C 289.179688 181.023438 295.140625 160.003906 291.816406 140.238281 C 291.554688 138.6875 291.238281 137.144531 290.863281 135.613281 C 288.167969 124.609375 282.523438 114.179688 273.925781 105.585938 C 248.882812 80.542969 208.28125 80.542969 183.238281 105.585938 Z M 362.25 186.59375 C 362.25 282.609375 284.414062 360.449219 188.398438 360.449219 C 92.378906 360.449219 14.542969 282.609375 14.542969 186.59375 C 14.542969 90.578125 92.378906 12.742188 188.398438 12.742188 C 284.414062 12.742188 362.25 90.578125 362.25 186.59375 " fill-opacity="1" fill-rule="nonzero"/></g></svg>