<svg xmlns="http://www.w3.org/2000/svg" xmlns:xlink="http://www.w3.org/1999/xlink" width="500" zoomAndPan="magnify" viewBox="0 0 375 374.999991" height="500" preserveAspectRatio="xMidYMid meet" version="1.0"><defs><clipPath id="49f6696cb2"><path d="M 104 20.320312 L 271 20.320312 L 271 354.820312 L 104 354.820312 Z M 104 20.320312 " clip-rule="nonzero"/></clipPath><clipPath id="c0e9b18583"><path d="M 56.488281 353 L 375 353 L 375 354.820312 L 56.488281 354.820312 Z M 56.488281 353 " clip-rule="nonzero"/></clipPath><clipPath id="b001b377f3"><path d="M 305 345 L 329 345 L 329 354.820312 L 305 354.820312 Z M 305 345 " clip-rule="nonzero"/></clipPath><clipPath id="6c5f6f30d0"><path d="M 335 345 L 359 345 L 359 354.820312 L 335 354.820312 Z M 335 345 " clip-rule="nonzero"/></clipPath><clipPath id="650c7b8383"><path d="M 281.25 96.019531 L 375 96.019531 L 375 354.679688 L 281.25 354.679688 Z M 281.25 96.019531 " clip-rule="nonzero"/></clipPath><clipPath id="f7f68fecc6"><path d="M 12.132812 352.203125 L 367.875 352.203125 L 367.875 365.078125 L 12.132812 365.078125 Z M 12.132812 352.203125 " clip-rule="nonzero"/></clipPath><clipPath id="3764ba1dbf"><path d="M 12.269531 352.203125 L 367.632812 352.203125 L 367.632812 364.953125 L 12.269531 364.953125 Z M 12.269531 352.203125 " clip-rule="nonzero"/></clipPath></defs><rect x="-37.5" width="450" fill="#ffffff" y="-37.499999" height="449.999989" fill-opacity="1"/><rect x="-37.5" width="450" fill="#ffffff" y="-37.499999" height="449.999989" fill-opacity="1"/><g clip-path="url(#49f6696cb2)"><path fill="#e6e6e6" d="M 270.78125 99.707031 L 268.945312 99.707031 L 268.945312 49.441406 C 268.945312 48.488281 268.898438 47.539062 268.808594 46.589844 C 268.714844 45.640625 268.574219 44.699219 268.386719 43.765625 C 268.203125 42.832031 267.96875 41.910156 267.695312 40.996094 C 267.417969 40.085938 267.097656 39.1875 266.730469 38.308594 C 266.367188 37.429688 265.960938 36.566406 265.511719 35.726562 C 265.0625 34.886719 264.570312 34.070312 264.042969 33.277344 C 263.511719 32.488281 262.945312 31.722656 262.339844 30.984375 C 261.738281 30.25 261.097656 29.542969 260.421875 28.871094 C 259.75 28.195312 259.042969 27.558594 258.308594 26.953125 C 257.570312 26.347656 256.804688 25.78125 256.015625 25.253906 C 255.222656 24.722656 254.40625 24.234375 253.5625 23.785156 C 252.722656 23.335938 251.863281 22.929688 250.984375 22.5625 C 250.101562 22.199219 249.207031 21.878906 248.292969 21.601562 C 247.382812 21.324219 246.457031 21.09375 245.523438 20.910156 C 244.589844 20.722656 243.648438 20.582031 242.699219 20.488281 C 241.75 20.394531 240.800781 20.347656 239.847656 20.347656 L 133.320312 20.347656 C 132.371094 20.347656 131.417969 20.394531 130.46875 20.488281 C 129.519531 20.582031 128.578125 20.722656 127.644531 20.910156 C 126.710938 21.09375 125.785156 21.324219 124.875 21.601562 C 123.960938 21.878906 123.066406 22.199219 122.1875 22.5625 C 121.304688 22.929688 120.445312 23.335938 119.605469 23.785156 C 118.765625 24.234375 117.949219 24.722656 117.15625 25.253906 C 116.363281 25.78125 115.597656 26.347656 114.859375 26.953125 C 114.125 27.558594 113.417969 28.195312 112.746094 28.871094 C 112.070312 29.542969 111.433594 30.25 110.828125 30.984375 C 110.222656 31.722656 109.65625 32.488281 109.125 33.277344 C 108.597656 34.070312 108.105469 34.886719 107.65625 35.726562 C 107.207031 36.566406 106.800781 37.429688 106.4375 38.308594 C 106.070312 39.1875 105.75 40.085938 105.476562 40.996094 C 105.199219 41.910156 104.96875 42.832031 104.78125 43.765625 C 104.59375 44.699219 104.457031 45.640625 104.363281 46.589844 C 104.269531 47.539062 104.222656 48.488281 104.222656 49.441406 L 104.222656 325.203125 C 104.222656 326.15625 104.269531 327.105469 104.363281 328.054688 C 104.457031 329.003906 104.59375 329.945312 104.78125 330.878906 C 104.96875 331.8125 105.199219 332.738281 105.476562 333.648438 C 105.75 334.558594 106.070312 335.457031 106.4375 336.335938 C 106.800781 337.21875 107.207031 338.078125 107.65625 338.917969 C 108.105469 339.757812 108.597656 340.574219 109.125 341.367188 C 109.65625 342.160156 110.222656 342.921875 110.828125 343.660156 C 111.433594 344.394531 112.070312 345.101562 112.746094 345.773438 C 113.417969 346.449219 114.125 347.085938 114.859375 347.691406 C 115.597656 348.296875 116.363281 348.863281 117.15625 349.394531 C 117.945312 349.921875 118.765625 350.410156 119.605469 350.859375 C 120.445312 351.308594 121.304688 351.714844 122.1875 352.082031 C 123.066406 352.445312 123.960938 352.765625 124.875 353.042969 C 125.785156 353.320312 126.710938 353.550781 127.644531 353.738281 C 128.578125 353.921875 129.519531 354.0625 130.46875 354.15625 C 131.417969 354.25 132.367188 354.296875 133.320312 354.296875 L 239.847656 354.296875 C 240.800781 354.296875 241.75 354.25 242.699219 354.15625 C 243.648438 354.0625 244.589844 353.921875 245.523438 353.738281 C 246.457031 353.550781 247.382812 353.320312 248.292969 353.042969 C 249.207031 352.765625 250.101562 352.445312 250.984375 352.082031 C 251.863281 351.714844 252.722656 351.308594 253.5625 350.859375 C 254.40625 350.410156 255.222656 349.921875 256.011719 349.394531 C 256.804688 348.863281 257.570312 348.296875 258.308594 347.691406 C 259.042969 347.085938 259.75 346.449219 260.421875 345.773438 C 261.097656 345.101562 261.738281 344.394531 262.339844 343.660156 C 262.945312 342.921875 263.511719 342.160156 264.042969 341.367188 C 264.570312 340.574219 265.0625 339.757812 265.511719 338.917969 C 265.960938 338.078125 266.367188 337.21875 266.730469 336.335938 C 267.097656 335.457031 267.417969 334.558594 267.695312 333.648438 C 267.96875 332.738281 268.203125 331.8125 268.386719 330.878906 C 268.574219 329.945312 268.714844 329.003906 268.804688 328.054688 C 268.898438 327.105469 268.945312 326.15625 268.945312 325.203125 L 268.945312 135.488281 L 270.78125 135.488281 Z M 270.78125 99.707031 " fill-opacity="1" fill-rule="nonzero"/></g><path fill="#ffffff" d="M 241.019531 27.917969 L 227.117188 27.917969 C 227.273438 28.308594 227.410156 28.707031 227.519531 29.113281 C 227.628906 29.519531 227.714844 29.933594 227.777344 30.351562 C 227.835938 30.769531 227.871094 31.1875 227.878906 31.609375 C 227.886719 32.03125 227.871094 32.449219 227.828125 32.871094 C 227.785156 33.289062 227.714844 33.703125 227.621094 34.117188 C 227.527344 34.527344 227.410156 34.929688 227.265625 35.328125 C 227.121094 35.722656 226.953125 36.109375 226.765625 36.484375 C 226.574219 36.859375 226.359375 37.222656 226.125 37.574219 C 225.890625 37.925781 225.632812 38.257812 225.359375 38.578125 C 225.082031 38.894531 224.785156 39.195312 224.472656 39.476562 C 224.160156 39.761719 223.832031 40.023438 223.488281 40.265625 C 223.140625 40.507812 222.78125 40.726562 222.410156 40.925781 C 222.039062 41.125 221.65625 41.300781 221.261719 41.449219 C 220.867188 41.601562 220.46875 41.730469 220.058594 41.832031 C 219.648438 41.933594 219.234375 42.007812 218.816406 42.0625 C 218.398438 42.113281 217.976562 42.136719 217.554688 42.136719 L 156.53125 42.136719 C 156.109375 42.136719 155.6875 42.113281 155.269531 42.0625 C 154.851562 42.007812 154.4375 41.933594 154.027344 41.832031 C 153.617188 41.730469 153.21875 41.601562 152.824219 41.449219 C 152.429688 41.300781 152.046875 41.125 151.675781 40.925781 C 151.304688 40.726562 150.945312 40.507812 150.597656 40.265625 C 150.253906 40.023438 149.925781 39.761719 149.613281 39.476562 C 149.300781 39.195312 149.003906 38.894531 148.726562 38.578125 C 148.453125 38.257812 148.195312 37.925781 147.960938 37.574219 C 147.726562 37.222656 147.511719 36.859375 147.324219 36.484375 C 147.132812 36.109375 146.964844 35.722656 146.820312 35.328125 C 146.679688 34.929688 146.558594 34.527344 146.464844 34.117188 C 146.371094 33.703125 146.304688 33.289062 146.261719 32.871094 C 146.21875 32.449219 146.199219 32.03125 146.207031 31.609375 C 146.214844 31.1875 146.25 30.769531 146.3125 30.351562 C 146.371094 29.933594 146.457031 29.519531 146.566406 29.113281 C 146.675781 28.707031 146.8125 28.308594 146.96875 27.917969 L 133.984375 27.917969 C 133.273438 27.917969 132.5625 27.953125 131.851562 28.023438 C 131.144531 28.09375 130.441406 28.195312 129.742188 28.335938 C 129.046875 28.472656 128.355469 28.648438 127.675781 28.855469 C 126.992188 29.058594 126.324219 29.300781 125.667969 29.570312 C 125.007812 29.84375 124.367188 30.148438 123.738281 30.484375 C 123.109375 30.820312 122.5 31.183594 121.910156 31.578125 C 121.316406 31.976562 120.746094 32.398438 120.195312 32.851562 C 119.648438 33.300781 119.121094 33.777344 118.617188 34.28125 C 118.113281 34.785156 117.636719 35.3125 117.183594 35.863281 C 116.734375 36.410156 116.308594 36.980469 115.914062 37.574219 C 115.519531 38.164062 115.152344 38.773438 114.816406 39.402344 C 114.480469 40.03125 114.179688 40.671875 113.90625 41.328125 C 113.632812 41.988281 113.394531 42.65625 113.1875 43.335938 C 112.980469 44.019531 112.808594 44.707031 112.667969 45.40625 C 112.53125 46.105469 112.425781 46.804688 112.355469 47.515625 C 112.285156 48.222656 112.25 48.933594 112.25 49.644531 L 112.25 325 C 112.25 325.710938 112.285156 326.421875 112.355469 327.128906 C 112.425781 327.839844 112.53125 328.542969 112.667969 329.238281 C 112.808594 329.9375 112.980469 330.628906 113.1875 331.308594 C 113.394531 331.988281 113.632812 332.65625 113.90625 333.316406 C 114.179688 333.972656 114.480469 334.613281 114.816406 335.242188 C 115.152344 335.871094 115.519531 336.480469 115.914062 337.070312 C 116.308594 337.664062 116.734375 338.234375 117.183594 338.785156 C 117.636719 339.335938 118.113281 339.859375 118.617188 340.363281 C 119.121094 340.867188 119.648438 341.34375 120.195312 341.796875 C 120.746094 342.246094 121.316406 342.671875 121.910156 343.066406 C 122.5 343.460938 123.109375 343.828125 123.738281 344.160156 C 124.367188 344.496094 125.007812 344.800781 125.667969 345.074219 C 126.324219 345.34375 126.992188 345.585938 127.675781 345.792969 C 128.355469 346 129.046875 346.171875 129.742188 346.308594 C 130.441406 346.449219 131.144531 346.554688 131.851562 346.621094 C 132.5625 346.691406 133.273438 346.726562 133.984375 346.726562 L 241.019531 346.726562 C 241.730469 346.726562 242.441406 346.691406 243.152344 346.621094 C 243.859375 346.554688 244.5625 346.449219 245.261719 346.308594 C 245.957031 346.171875 246.648438 346 247.328125 345.792969 C 248.011719 345.585938 248.679688 345.34375 249.335938 345.074219 C 249.996094 344.800781 250.636719 344.496094 251.265625 344.160156 C 251.894531 343.828125 252.503906 343.460938 253.09375 343.066406 C 253.6875 342.671875 254.257812 342.246094 254.808594 341.796875 C 255.355469 341.34375 255.882812 340.867188 256.386719 340.363281 C 256.890625 339.859375 257.367188 339.335938 257.820312 338.785156 C 258.269531 338.234375 258.695312 337.664062 259.089844 337.070312 C 259.484375 336.480469 259.851562 335.871094 260.1875 335.242188 C 260.523438 334.617188 260.824219 333.972656 261.097656 333.316406 C 261.371094 332.65625 261.609375 331.988281 261.816406 331.308594 C 262.023438 330.628906 262.195312 329.9375 262.335938 329.238281 C 262.472656 328.542969 262.578125 327.839844 262.648438 327.128906 C 262.71875 326.421875 262.753906 325.710938 262.753906 325 L 262.753906 49.644531 C 262.753906 48.933594 262.71875 48.222656 262.648438 47.515625 C 262.578125 46.804688 262.472656 46.105469 262.335938 45.40625 C 262.195312 44.707031 262.023438 44.019531 261.816406 43.335938 C 261.609375 42.65625 261.371094 41.988281 261.097656 41.328125 C 260.824219 40.671875 260.523438 40.03125 260.1875 39.402344 C 259.851562 38.773438 259.484375 38.164062 259.089844 37.574219 C 258.695312 36.980469 258.269531 36.410156 257.820312 35.863281 C 257.367188 35.3125 256.890625 34.785156 256.386719 34.28125 C 255.882812 33.777344 255.355469 33.300781 254.808594 32.851562 C 254.257812 32.398438 253.6875 31.976562 253.09375 31.578125 C 252.503906 31.183594 251.894531 30.820312 251.265625 30.484375 C 250.636719 30.148438 249.996094 29.84375 249.335938 29.570312 C 248.679688 29.300781 248.011719 29.058594 247.328125 28.855469 C 246.648438 28.648438 245.957031 28.472656 245.261719 28.335938 C 244.5625 28.195312 243.859375 28.09375 243.152344 28.023438 C 242.441406 27.953125 241.730469 27.917969 241.019531 27.917969 Z M 241.019531 27.917969 " fill-opacity="1" fill-rule="nonzero"/><g clip-path="url(#c0e9b18583)"><path fill="#3f3d56" d="M 408.53125 354.792969 L 56.949219 354.792969 C 56.820312 354.792969 56.714844 354.746094 56.625 354.65625 C 56.535156 354.566406 56.488281 354.460938 56.488281 354.332031 C 56.488281 354.207031 56.535156 354.097656 56.625 354.007812 C 56.714844 353.917969 56.820312 353.875 56.949219 353.875 L 408.53125 353.875 C 408.65625 353.875 408.765625 353.917969 408.855469 354.007812 C 408.945312 354.097656 408.988281 354.207031 408.988281 354.332031 C 408.988281 354.460938 408.945312 354.566406 408.855469 354.65625 C 408.765625 354.746094 408.65625 354.792969 408.53125 354.792969 Z M 408.53125 354.792969 " fill-opacity="1" fill-rule="nonzero"/></g><path fill="#3f3d56" d="M 252.394531 104.09375 L 122.558594 104.09375 C 122.238281 104.09375 121.933594 104.03125 121.640625 103.910156 C 121.34375 103.785156 121.085938 103.613281 120.859375 103.386719 C 120.632812 103.164062 120.460938 102.902344 120.339844 102.609375 C 120.214844 102.3125 120.15625 102.007812 120.15625 101.6875 L 120.15625 69.492188 C 120.15625 69.171875 120.214844 68.867188 120.339844 68.570312 C 120.460938 68.277344 120.632812 68.019531 120.859375 67.792969 C 121.085938 67.566406 121.34375 67.394531 121.640625 67.269531 C 121.933594 67.148438 122.238281 67.089844 122.558594 67.085938 L 252.394531 67.085938 C 252.710938 67.089844 253.019531 67.148438 253.3125 67.269531 C 253.609375 67.394531 253.867188 67.566406 254.09375 67.792969 C 254.316406 68.019531 254.492188 68.277344 254.613281 68.570312 C 254.734375 68.867188 254.796875 69.171875 254.796875 69.492188 L 254.796875 101.6875 C 254.796875 102.007812 254.734375 102.3125 254.613281 102.609375 C 254.492188 102.902344 254.316406 103.164062 254.09375 103.386719 C 253.867188 103.613281 253.609375 103.785156 253.3125 103.910156 C 253.019531 104.03125 252.710938 104.09375 252.394531 104.09375 Z M 122.558594 68.050781 C 122.367188 68.050781 122.183594 68.085938 122.007812 68.160156 C 121.832031 68.234375 121.675781 68.335938 121.539062 68.472656 C 121.402344 68.605469 121.300781 68.761719 121.226562 68.941406 C 121.152344 69.117188 121.117188 69.300781 121.117188 69.492188 L 121.117188 101.6875 C 121.117188 101.878906 121.152344 102.0625 121.226562 102.242188 C 121.300781 102.417969 121.402344 102.574219 121.539062 102.707031 C 121.675781 102.84375 121.832031 102.949219 122.007812 103.019531 C 122.183594 103.09375 122.367188 103.132812 122.558594 103.132812 L 252.394531 103.132812 C 252.585938 103.132812 252.769531 103.09375 252.945312 103.019531 C 253.121094 102.949219 253.277344 102.84375 253.414062 102.707031 C 253.546875 102.574219 253.652344 102.417969 253.726562 102.242188 C 253.800781 102.0625 253.835938 101.878906 253.835938 101.6875 L 253.835938 69.492188 C 253.835938 69.300781 253.800781 69.117188 253.726562 68.941406 C 253.652344 68.761719 253.546875 68.605469 253.414062 68.472656 C 253.277344 68.335938 253.121094 68.234375 252.945312 68.160156 C 252.769531 68.085938 252.585938 68.050781 252.394531 68.050781 Z M 122.558594 68.050781 " fill-opacity="1" fill-rule="nonzero"/><path fill="#3f3d56" d="M 252.394531 231.488281 L 122.558594 231.488281 C 122.238281 231.488281 121.933594 231.425781 121.640625 231.304688 C 121.34375 231.183594 121.085938 231.007812 120.859375 230.78125 C 120.632812 230.558594 120.460938 230.296875 120.339844 230.003906 C 120.214844 229.710938 120.15625 229.402344 120.15625 229.085938 L 120.15625 169.484375 C 120.15625 169.164062 120.214844 168.859375 120.339844 168.566406 C 120.460938 168.269531 120.632812 168.011719 120.859375 167.785156 C 121.085938 167.558594 121.34375 167.386719 121.640625 167.265625 C 121.933594 167.140625 122.238281 167.082031 122.558594 167.082031 L 252.394531 167.082031 C 252.710938 167.082031 253.019531 167.140625 253.3125 167.265625 C 253.609375 167.386719 253.867188 167.558594 254.09375 167.785156 C 254.316406 168.011719 254.492188 168.269531 254.613281 168.566406 C 254.734375 168.859375 254.796875 169.164062 254.796875 169.484375 L 254.796875 229.082031 C 254.796875 229.402344 254.734375 229.710938 254.613281 230.003906 C 254.492188 230.296875 254.316406 230.558594 254.09375 230.78125 C 253.867188 231.007812 253.609375 231.183594 253.3125 231.304688 C 253.019531 231.425781 252.710938 231.488281 252.394531 231.488281 Z M 122.558594 168.042969 C 122.367188 168.042969 122.183594 168.078125 122.007812 168.152344 C 121.832031 168.226562 121.675781 168.328125 121.539062 168.464844 C 121.402344 168.601562 121.300781 168.757812 121.226562 168.933594 C 121.152344 169.109375 121.117188 169.292969 121.117188 169.484375 L 121.117188 229.082031 C 121.117188 229.273438 121.152344 229.460938 121.226562 229.636719 C 121.300781 229.8125 121.402344 229.96875 121.539062 230.101562 C 121.675781 230.238281 121.832031 230.34375 122.007812 230.414062 C 122.183594 230.488281 122.367188 230.527344 122.558594 230.527344 L 252.394531 230.527344 C 252.585938 230.527344 252.769531 230.488281 252.945312 230.414062 C 253.121094 230.34375 253.277344 230.238281 253.414062 230.101562 C 253.546875 229.96875 253.652344 229.8125 253.726562 229.636719 C 253.800781 229.460938 253.835938 229.273438 253.835938 229.082031 L 253.835938 169.484375 C 253.835938 169.292969 253.800781 169.109375 253.726562 168.933594 C 253.652344 168.757812 253.546875 168.601562 253.414062 168.464844 C 253.277344 168.328125 253.121094 168.226562 252.945312 168.152344 C 252.769531 168.078125 252.585938 168.042969 252.394531 168.042969 Z M 122.558594 168.042969 " fill-opacity="1" fill-rule="nonzero"/><path fill="#e6e6e6" d="M 251.433594 154.089844 L 193.726562 154.089844 C 193.410156 154.089844 193.101562 154.027344 192.808594 153.90625 C 192.511719 153.785156 192.253906 153.609375 192.027344 153.382812 C 191.800781 153.160156 191.628906 152.898438 191.507812 152.605469 C 191.382812 152.3125 191.324219 152.003906 191.324219 151.683594 L 191.324219 119.488281 C 191.324219 119.167969 191.382812 118.863281 191.507812 118.570312 C 191.628906 118.273438 191.804688 118.015625 192.027344 117.789062 C 192.253906 117.5625 192.511719 117.390625 192.808594 117.269531 C 193.101562 117.144531 193.410156 117.085938 193.726562 117.085938 L 251.433594 117.085938 C 251.75 117.085938 252.058594 117.144531 252.351562 117.269531 C 252.644531 117.390625 252.90625 117.5625 253.132812 117.789062 C 253.355469 118.015625 253.53125 118.273438 253.652344 118.570312 C 253.773438 118.863281 253.835938 119.167969 253.835938 119.488281 L 253.835938 151.683594 C 253.835938 152.003906 253.773438 152.3125 253.652344 152.605469 C 253.53125 152.898438 253.355469 153.160156 253.132812 153.382812 C 252.90625 153.609375 252.644531 153.785156 252.351562 153.90625 C 252.058594 154.027344 251.75 154.089844 251.433594 154.089844 Z M 193.726562 118.046875 C 193.535156 118.046875 193.351562 118.082031 193.175781 118.15625 C 193 118.230469 192.84375 118.332031 192.707031 118.46875 C 192.574219 118.605469 192.46875 118.757812 192.394531 118.9375 C 192.320312 119.113281 192.285156 119.296875 192.285156 119.488281 L 192.285156 151.683594 C 192.285156 151.875 192.320312 152.0625 192.394531 152.238281 C 192.46875 152.414062 192.574219 152.570312 192.707031 152.703125 C 192.84375 152.839844 193 152.945312 193.175781 153.015625 C 193.351562 153.089844 193.535156 153.128906 193.726562 153.128906 L 251.433594 153.128906 C 251.625 153.128906 251.808594 153.089844 251.984375 153.015625 C 252.160156 152.945312 252.316406 152.839844 252.453125 152.703125 C 252.585938 152.570312 252.691406 152.414062 252.765625 152.238281 C 252.835938 152.0625 252.875 151.875 252.875 151.683594 L 252.875 119.488281 C 252.875 119.296875 252.835938 119.113281 252.765625 118.9375 C 252.691406 118.757812 252.585938 118.605469 252.453125 118.46875 C 252.316406 118.332031 252.160156 118.230469 251.984375 118.15625 C 251.808594 118.082031 251.625 118.046875 251.433594 118.046875 Z M 193.726562 118.046875 " fill-opacity="1" fill-rule="nonzero"/><path fill="#e6e6e6" d="M 180.261719 309.367188 L 122.558594 309.367188 C 122.238281 309.367188 121.933594 309.304688 121.640625 309.183594 C 121.34375 309.0625 121.085938 308.886719 120.859375 308.660156 C 120.632812 308.4375 120.460938 308.175781 120.339844 307.882812 C 120.214844 307.589844 120.15625 307.28125 120.15625 306.964844 L 120.15625 246.882812 C 120.15625 246.5625 120.214844 246.257812 120.339844 245.964844 C 120.460938 245.667969 120.632812 245.410156 120.859375 245.183594 C 121.085938 244.957031 121.34375 244.785156 121.640625 244.664062 C 121.933594 244.539062 122.238281 244.480469 122.558594 244.480469 L 180.261719 244.480469 C 180.582031 244.480469 180.886719 244.539062 181.183594 244.664062 C 181.476562 244.785156 181.738281 244.957031 181.960938 245.183594 C 182.1875 245.410156 182.363281 245.667969 182.484375 245.964844 C 182.605469 246.257812 182.667969 246.5625 182.667969 246.882812 L 182.667969 306.964844 C 182.667969 307.28125 182.605469 307.589844 182.484375 307.882812 C 182.363281 308.175781 182.1875 308.4375 181.960938 308.660156 C 181.738281 308.886719 181.476562 309.0625 181.183594 309.183594 C 180.886719 309.304688 180.582031 309.367188 180.261719 309.367188 Z M 122.558594 245.441406 C 122.367188 245.441406 122.183594 245.476562 122.007812 245.550781 C 121.832031 245.625 121.675781 245.726562 121.539062 245.863281 C 121.402344 246 121.300781 246.15625 121.226562 246.332031 C 121.152344 246.507812 121.117188 246.691406 121.117188 246.882812 L 121.117188 306.964844 C 121.117188 307.15625 121.152344 307.339844 121.226562 307.515625 C 121.300781 307.691406 121.402344 307.847656 121.539062 307.984375 C 121.675781 308.117188 121.832031 308.222656 122.007812 308.296875 C 122.183594 308.367188 122.367188 308.40625 122.558594 308.40625 L 180.261719 308.40625 C 180.453125 308.40625 180.636719 308.367188 180.816406 308.296875 C 180.992188 308.222656 181.148438 308.117188 181.28125 307.984375 C 181.417969 307.847656 181.523438 307.691406 181.597656 307.515625 C 181.667969 307.339844 181.707031 307.15625 181.707031 306.964844 L 181.707031 246.882812 C 181.707031 246.691406 181.667969 246.507812 181.597656 246.332031 C 181.523438 246.15625 181.417969 246 181.28125 245.863281 C 181.148438 245.726562 180.992188 245.625 180.816406 245.550781 C 180.636719 245.476562 180.453125 245.441406 180.261719 245.441406 Z M 122.558594 245.441406 " fill-opacity="1" fill-rule="nonzero"/><path fill="#e6e6e6" d="M 251.433594 309.367188 L 193.726562 309.367188 C 193.410156 309.367188 193.101562 309.304688 192.808594 309.183594 C 192.511719 309.0625 192.253906 308.886719 192.027344 308.660156 C 191.800781 308.4375 191.628906 308.175781 191.507812 307.882812 C 191.382812 307.589844 191.324219 307.28125 191.324219 306.964844 L 191.324219 246.882812 C 191.324219 246.5625 191.382812 246.257812 191.507812 245.964844 C 191.628906 245.667969 191.804688 245.410156 192.027344 245.183594 C 192.253906 244.957031 192.511719 244.785156 192.808594 244.664062 C 193.101562 244.539062 193.410156 244.480469 193.726562 244.480469 L 251.433594 244.480469 C 251.75 244.480469 252.058594 244.539062 252.351562 244.664062 C 252.644531 244.785156 252.90625 244.957031 253.132812 245.183594 C 253.355469 245.410156 253.53125 245.667969 253.652344 245.964844 C 253.773438 246.257812 253.835938 246.5625 253.835938 246.882812 L 253.835938 306.964844 C 253.835938 307.28125 253.773438 307.589844 253.652344 307.882812 C 253.53125 308.175781 253.355469 308.4375 253.132812 308.660156 C 252.90625 308.886719 252.644531 309.0625 252.351562 309.183594 C 252.058594 309.304688 251.75 309.367188 251.433594 309.367188 Z M 193.726562 245.441406 C 193.535156 245.441406 193.351562 245.476562 193.175781 245.550781 C 193 245.625 192.84375 245.726562 192.707031 245.863281 C 192.574219 246 192.46875 246.15625 192.394531 246.332031 C 192.320312 246.507812 192.285156 246.691406 192.285156 246.882812 L 192.285156 306.964844 C 192.285156 307.15625 192.320312 307.339844 192.394531 307.515625 C 192.46875 307.691406 192.574219 307.847656 192.707031 307.984375 C 192.84375 308.117188 193 308.222656 193.175781 308.296875 C 193.351562 308.367188 193.535156 308.40625 193.726562 308.40625 L 251.433594 308.40625 C 251.625 308.40625 251.808594 308.367188 251.984375 308.296875 C 252.160156 308.222656 252.316406 308.117188 252.453125 307.984375 C 252.585938 307.847656 252.691406 307.691406 252.765625 307.515625 C 252.835938 307.339844 252.875 307.15625 252.875 306.964844 L 252.875 246.882812 C 252.875 246.691406 252.835938 246.507812 252.765625 246.332031 C 252.691406 246.15625 252.585938 246 252.453125 245.863281 C 252.316406 245.726562 252.160156 245.625 251.984375 245.550781 C 251.808594 245.476562 251.625 245.441406 251.433594 245.441406 Z M 193.726562 245.441406 " fill-opacity="1" fill-rule="nonzero"/><path fill="#2681cc" d="M 151.566406 188.195312 C 151.566406 188.835938 151.503906 189.472656 151.375 190.105469 C 151.25 190.734375 151.066406 191.347656 150.820312 191.941406 C 150.574219 192.535156 150.269531 193.097656 149.914062 193.632812 C 149.558594 194.167969 149.152344 194.664062 148.695312 195.117188 C 148.242188 195.570312 147.746094 195.976562 147.210938 196.335938 C 146.675781 196.691406 146.113281 196.992188 145.519531 197.238281 C 144.925781 197.484375 144.3125 197.671875 143.679688 197.796875 C 143.050781 197.921875 142.414062 197.984375 141.769531 197.984375 C 141.128906 197.984375 140.492188 197.921875 139.859375 197.796875 C 139.230469 197.671875 138.617188 197.484375 138.023438 197.238281 C 137.429688 196.992188 136.863281 196.691406 136.328125 196.335938 C 135.796875 195.976562 135.300781 195.570312 134.84375 195.117188 C 134.390625 194.664062 133.984375 194.167969 133.628906 193.632812 C 133.269531 193.097656 132.96875 192.535156 132.722656 191.941406 C 132.476562 191.347656 132.289062 190.734375 132.164062 190.105469 C 132.039062 189.472656 131.976562 188.835938 131.976562 188.195312 C 131.976562 187.550781 132.039062 186.914062 132.164062 186.285156 C 132.289062 185.652344 132.476562 185.039062 132.722656 184.445312 C 132.96875 183.851562 133.269531 183.289062 133.628906 182.753906 C 133.984375 182.21875 134.390625 181.726562 134.84375 181.269531 C 135.300781 180.816406 135.796875 180.410156 136.328125 180.050781 C 136.863281 179.695312 137.429688 179.394531 138.023438 179.148438 C 138.617188 178.902344 139.230469 178.714844 139.859375 178.589844 C 140.492188 178.464844 141.128906 178.402344 141.769531 178.402344 C 142.414062 178.402344 143.050781 178.464844 143.679688 178.589844 C 144.3125 178.714844 144.925781 178.902344 145.519531 179.148438 C 146.113281 179.394531 146.675781 179.695312 147.210938 180.050781 C 147.746094 180.410156 148.242188 180.816406 148.695312 181.269531 C 149.152344 181.726562 149.558594 182.21875 149.914062 182.753906 C 150.269531 183.289062 150.574219 183.851562 150.820312 184.445312 C 151.066406 185.039062 151.25 185.652344 151.375 186.285156 C 151.503906 186.914062 151.566406 187.550781 151.566406 188.195312 Z M 151.566406 188.195312 " fill-opacity="1" fill-rule="nonzero"/><path fill="#2681cc" d="M 164.390625 181.667969 C 164.175781 181.667969 163.964844 181.707031 163.765625 181.789062 C 163.566406 181.875 163.390625 181.992188 163.234375 182.144531 C 163.082031 182.296875 162.964844 182.472656 162.882812 182.671875 C 162.800781 182.875 162.757812 183.082031 162.757812 183.296875 C 162.757812 183.515625 162.800781 183.722656 162.882812 183.921875 C 162.964844 184.121094 163.082031 184.300781 163.234375 184.453125 C 163.390625 184.605469 163.566406 184.722656 163.765625 184.804688 C 163.964844 184.886719 164.175781 184.929688 164.390625 184.929688 L 241.34375 184.929688 C 241.558594 184.929688 241.765625 184.886719 241.964844 184.804688 C 242.167969 184.722656 242.34375 184.601562 242.496094 184.449219 C 242.648438 184.296875 242.765625 184.121094 242.847656 183.921875 C 242.929688 183.722656 242.972656 183.515625 242.972656 183.296875 C 242.972656 183.082031 242.929688 182.875 242.847656 182.675781 C 242.765625 182.476562 242.648438 182.296875 242.496094 182.144531 C 242.34375 181.992188 242.167969 181.875 241.964844 181.792969 C 241.765625 181.707031 241.558594 181.667969 241.34375 181.667969 Z M 164.390625 181.667969 " fill-opacity="1" fill-rule="nonzero"/><path fill="#2681cc" d="M 164.390625 191.457031 C 164.175781 191.457031 163.964844 191.496094 163.765625 191.582031 C 163.566406 191.664062 163.386719 191.78125 163.234375 191.933594 C 163.082031 192.085938 162.964844 192.261719 162.878906 192.460938 C 162.796875 192.660156 162.753906 192.871094 162.753906 193.085938 C 162.753906 193.300781 162.796875 193.511719 162.878906 193.710938 C 162.960938 193.910156 163.078125 194.085938 163.230469 194.242188 C 163.382812 194.394531 163.558594 194.511719 163.757812 194.597656 C 163.957031 194.679688 164.167969 194.722656 164.382812 194.722656 L 197.503906 194.722656 C 197.71875 194.722656 197.929688 194.679688 198.128906 194.597656 C 198.328125 194.515625 198.503906 194.394531 198.65625 194.242188 C 198.8125 194.089844 198.929688 193.914062 199.011719 193.714844 C 199.09375 193.515625 199.136719 193.304688 199.136719 193.089844 C 199.136719 192.871094 199.09375 192.664062 199.011719 192.464844 C 198.929688 192.265625 198.8125 192.089844 198.65625 191.933594 C 198.503906 191.78125 198.328125 191.664062 198.128906 191.582031 C 197.929688 191.5 197.71875 191.457031 197.503906 191.457031 Z M 164.390625 191.457031 " fill-opacity="1" fill-rule="nonzero"/><path fill="#cccccc" d="M 134.257812 207.109375 C 133.015625 207.109375 132.007812 207.84375 132.007812 208.742188 C 132.007812 209.644531 133.015625 210.375 134.257812 210.375 L 240.429688 210.375 C 241.671875 210.375 242.683594 209.640625 242.683594 208.742188 C 242.683594 207.84375 241.671875 207.109375 240.429688 207.109375 Z M 134.257812 207.109375 " fill-opacity="1" fill-rule="nonzero"/><path fill="#cccccc" d="M 134.257812 216.902344 C 133.015625 216.902344 132.007812 217.632812 132.007812 218.535156 C 132.007812 219.433594 133.015625 220.167969 134.257812 220.167969 L 240.429688 220.167969 C 241.671875 220.167969 242.683594 219.433594 242.683594 218.535156 C 242.683594 217.632812 241.671875 216.902344 240.429688 216.902344 Z M 134.257812 216.902344 " fill-opacity="1" fill-rule="nonzero"/><path fill="#2681cc" d="M 152.527344 84.355469 C 152.527344 84.996094 152.464844 85.632812 152.339844 86.265625 C 152.210938 86.894531 152.027344 87.507812 151.78125 88.101562 C 151.535156 88.695312 151.234375 89.257812 150.875 89.792969 C 150.519531 90.328125 150.113281 90.824219 149.65625 91.277344 C 149.203125 91.734375 148.707031 92.136719 148.171875 92.496094 C 147.640625 92.851562 147.074219 93.15625 146.480469 93.398438 C 145.886719 93.644531 145.273438 93.832031 144.644531 93.957031 C 144.011719 94.082031 143.375 94.144531 142.734375 94.144531 C 142.089844 94.144531 141.453125 94.082031 140.820312 93.957031 C 140.191406 93.832031 139.578125 93.644531 138.984375 93.398438 C 138.390625 93.15625 137.824219 92.851562 137.292969 92.496094 C 136.757812 92.136719 136.261719 91.734375 135.808594 91.277344 C 135.351562 90.824219 134.945312 90.328125 134.589844 89.792969 C 134.230469 89.257812 133.929688 88.695312 133.683594 88.101562 C 133.4375 87.507812 133.253906 86.894531 133.125 86.265625 C 133 85.632812 132.9375 84.996094 132.9375 84.355469 C 132.9375 83.710938 133 83.074219 133.125 82.445312 C 133.253906 81.8125 133.4375 81.203125 133.683594 80.609375 C 133.929688 80.015625 134.230469 79.449219 134.589844 78.914062 C 134.945312 78.378906 135.351562 77.886719 135.808594 77.429688 C 136.261719 76.976562 136.757812 76.570312 137.292969 76.214844 C 137.824219 75.855469 138.390625 75.554688 138.984375 75.308594 C 139.578125 75.0625 140.191406 74.878906 140.820312 74.75 C 141.453125 74.625 142.089844 74.5625 142.734375 74.5625 C 143.375 74.5625 144.011719 74.625 144.644531 74.75 C 145.273438 74.878906 145.886719 75.0625 146.480469 75.308594 C 147.074219 75.554688 147.640625 75.855469 148.171875 76.214844 C 148.707031 76.570312 149.203125 76.976562 149.65625 77.429688 C 150.113281 77.886719 150.519531 78.378906 150.875 78.914062 C 151.234375 79.449219 151.535156 80.015625 151.78125 80.609375 C 152.027344 81.203125 152.210938 81.8125 152.339844 82.445312 C 152.464844 83.074219 152.527344 83.710938 152.527344 84.355469 Z M 152.527344 84.355469 " fill-opacity="1" fill-rule="nonzero"/><path fill="#2681cc" d="M 165.351562 77.828125 C 165.136719 77.828125 164.929688 77.871094 164.726562 77.953125 C 164.527344 78.035156 164.351562 78.152344 164.199219 78.304688 C 164.046875 78.460938 163.929688 78.636719 163.847656 78.835938 C 163.765625 79.035156 163.722656 79.242188 163.722656 79.460938 C 163.722656 79.675781 163.765625 79.882812 163.847656 80.082031 C 163.929688 80.28125 164.046875 80.457031 164.199219 80.613281 C 164.351562 80.765625 164.527344 80.882812 164.726562 80.964844 C 164.929688 81.050781 165.136719 81.089844 165.351562 81.089844 L 242.304688 81.089844 C 242.523438 81.089844 242.730469 81.050781 242.929688 80.96875 C 243.128906 80.886719 243.308594 80.769531 243.460938 80.617188 C 243.613281 80.460938 243.730469 80.285156 243.816406 80.085938 C 243.898438 79.886719 243.941406 79.679688 243.941406 79.460938 C 243.941406 79.246094 243.898438 79.039062 243.816406 78.835938 C 243.734375 78.636719 243.617188 78.460938 243.464844 78.308594 C 243.3125 78.15625 243.136719 78.035156 242.9375 77.953125 C 242.738281 77.871094 242.527344 77.828125 242.3125 77.828125 C 242.308594 77.828125 242.308594 77.828125 242.304688 77.828125 Z M 165.351562 77.828125 " fill-opacity="1" fill-rule="nonzero"/><path fill="#2681cc" d="M 165.351562 87.617188 C 165.136719 87.621094 164.929688 87.660156 164.730469 87.742188 C 164.53125 87.828125 164.351562 87.945312 164.199219 88.097656 C 164.046875 88.25 163.929688 88.425781 163.847656 88.628906 C 163.765625 88.828125 163.722656 89.035156 163.722656 89.25 C 163.722656 89.464844 163.765625 89.675781 163.847656 89.875 C 163.929688 90.074219 164.046875 90.25 164.199219 90.402344 C 164.351562 90.554688 164.53125 90.671875 164.730469 90.757812 C 164.929688 90.839844 165.136719 90.882812 165.351562 90.882812 L 198.464844 90.882812 C 198.683594 90.882812 198.890625 90.84375 199.089844 90.761719 C 199.292969 90.679688 199.46875 90.5625 199.621094 90.40625 C 199.777344 90.253906 199.894531 90.078125 199.976562 89.878906 C 200.0625 89.679688 200.101562 89.46875 200.105469 89.253906 C 200.105469 89.039062 200.0625 88.828125 199.980469 88.628906 C 199.898438 88.429688 199.78125 88.25 199.628906 88.097656 C 199.472656 87.945312 199.296875 87.828125 199.097656 87.742188 C 198.898438 87.660156 198.6875 87.617188 198.472656 87.617188 C 198.46875 87.617188 198.46875 87.617188 198.464844 87.617188 Z M 165.351562 87.617188 " fill-opacity="1" fill-rule="nonzero"/><path fill="#e6e6e6" d="M 180.210938 154.09375 L 126.082031 154.09375 L 138.820312 132.035156 C 139.050781 131.632812 139.371094 131.316406 139.773438 131.085938 C 140.175781 130.851562 140.609375 130.734375 141.074219 130.734375 C 141.535156 130.734375 141.96875 130.851562 142.375 131.085938 C 142.777344 131.316406 143.09375 131.632812 143.324219 132.035156 L 148.765625 141.460938 L 158.019531 125.4375 C 158.3125 124.933594 158.707031 124.535156 159.210938 124.246094 C 159.714844 123.953125 160.257812 123.808594 160.839844 123.808594 C 161.421875 123.808594 161.964844 123.953125 162.46875 124.246094 C 162.972656 124.535156 163.371094 124.933594 163.660156 125.4375 Z M 127.746094 153.132812 L 178.546875 153.132812 L 162.828125 125.917969 C 162.625 125.5625 162.34375 125.28125 161.988281 125.078125 C 161.632812 124.871094 161.25 124.769531 160.839844 124.769531 C 160.429688 124.769531 160.046875 124.871094 159.695312 125.078125 C 159.339844 125.28125 159.058594 125.5625 158.855469 125.917969 L 148.765625 143.382812 L 142.492188 132.515625 C 142.347656 132.261719 142.144531 132.0625 141.890625 131.917969 C 141.636719 131.769531 141.367188 131.695312 141.074219 131.695312 C 140.78125 131.695312 140.507812 131.769531 140.253906 131.917969 C 140 132.0625 139.800781 132.261719 139.652344 132.515625 Z M 127.746094 153.132812 " fill-opacity="1" fill-rule="nonzero"/><path fill="#e6e6e6" d="M 249.457031 154.09375 L 195.324219 154.09375 L 208.066406 132.035156 C 208.296875 131.632812 208.613281 131.316406 209.015625 131.085938 C 209.417969 130.851562 209.851562 130.734375 210.316406 130.734375 C 210.78125 130.734375 211.214844 130.851562 211.617188 131.085938 C 212.019531 131.316406 212.339844 131.632812 212.570312 132.035156 L 218.011719 141.460938 L 227.265625 125.4375 C 227.554688 124.933594 227.953125 124.535156 228.457031 124.246094 C 228.960938 123.953125 229.503906 123.808594 230.085938 123.808594 C 230.667969 123.808594 231.210938 123.953125 231.714844 124.246094 C 232.21875 124.535156 232.617188 124.933594 232.90625 125.4375 Z M 196.992188 153.132812 L 247.792969 153.132812 L 232.074219 125.917969 C 231.867188 125.5625 231.589844 125.28125 231.234375 125.078125 C 230.878906 124.871094 230.496094 124.769531 230.085938 124.769531 C 229.675781 124.769531 229.292969 124.871094 228.9375 125.078125 C 228.582031 125.28125 228.304688 125.5625 228.097656 125.917969 L 218.011719 143.382812 L 211.738281 132.515625 C 211.589844 132.261719 211.390625 132.0625 211.136719 131.917969 C 210.882812 131.769531 210.609375 131.695312 210.316406 131.695312 C 210.023438 131.695312 209.75 131.769531 209.496094 131.917969 C 209.242188 132.0625 209.042969 132.261719 208.898438 132.515625 Z M 196.992188 153.132812 " fill-opacity="1" fill-rule="nonzero"/><path fill="#e6e6e6" d="M 180.261719 154.089844 L 122.558594 154.089844 C 122.238281 154.089844 121.933594 154.027344 121.640625 153.90625 C 121.34375 153.785156 121.085938 153.609375 120.859375 153.382812 C 120.632812 153.160156 120.460938 152.898438 120.339844 152.605469 C 120.214844 152.3125 120.15625 152.003906 120.15625 151.683594 L 120.15625 119.488281 C 120.15625 119.167969 120.214844 118.863281 120.339844 118.570312 C 120.460938 118.273438 120.632812 118.015625 120.859375 117.789062 C 121.085938 117.5625 121.34375 117.390625 121.640625 117.269531 C 121.933594 117.144531 122.238281 117.085938 122.558594 117.085938 L 180.261719 117.085938 C 180.582031 117.085938 180.886719 117.144531 181.183594 117.269531 C 181.476562 117.390625 181.738281 117.5625 181.960938 117.789062 C 182.1875 118.015625 182.363281 118.273438 182.484375 118.570312 C 182.605469 118.863281 182.667969 119.167969 182.667969 119.488281 L 182.667969 151.683594 C 182.667969 152.003906 182.605469 152.3125 182.484375 152.605469 C 182.363281 152.898438 182.1875 153.160156 181.960938 153.382812 C 181.738281 153.609375 181.476562 153.785156 181.183594 153.90625 C 180.886719 154.027344 180.582031 154.089844 180.261719 154.089844 Z M 122.558594 118.046875 C 122.367188 118.046875 122.183594 118.082031 122.007812 118.15625 C 121.832031 118.230469 121.675781 118.332031 121.539062 118.46875 C 121.402344 118.605469 121.300781 118.757812 121.226562 118.9375 C 121.152344 119.113281 121.117188 119.296875 121.117188 119.488281 L 121.117188 151.683594 C 121.117188 151.875 121.152344 152.0625 121.226562 152.238281 C 121.300781 152.414062 121.402344 152.570312 121.539062 152.703125 C 121.675781 152.839844 121.832031 152.945312 122.007812 153.015625 C 122.183594 153.089844 122.367188 153.128906 122.558594 153.128906 L 180.261719 153.128906 C 180.453125 153.128906 180.636719 153.089844 180.816406 153.015625 C 180.992188 152.945312 181.148438 152.839844 181.28125 152.703125 C 181.417969 152.570312 181.523438 152.414062 181.59375 152.238281 C 181.667969 152.0625 181.707031 151.875 181.707031 151.683594 L 181.707031 119.488281 C 181.707031 119.296875 181.667969 119.113281 181.59375 118.9375 C 181.523438 118.757812 181.417969 118.605469 181.28125 118.46875 C 181.148438 118.332031 180.992188 118.230469 180.816406 118.15625 C 180.636719 118.082031 180.453125 118.046875 180.261719 118.046875 Z M 122.558594 118.046875 " fill-opacity="1" fill-rule="nonzero"/><path fill="#e6e6e6" d="M 134.855469 256.867188 C 134.636719 256.867188 134.429688 256.910156 134.230469 256.992188 C 134.03125 257.074219 133.851562 257.195312 133.699219 257.347656 C 133.546875 257.5 133.429688 257.675781 133.347656 257.875 C 133.261719 258.078125 133.222656 258.285156 133.222656 258.5 C 133.222656 258.71875 133.261719 258.925781 133.347656 259.125 C 133.429688 259.324219 133.546875 259.5 133.699219 259.65625 C 133.851562 259.808594 134.03125 259.925781 134.230469 260.007812 C 134.429688 260.089844 134.636719 260.132812 134.855469 260.132812 L 167.96875 260.132812 C 168.183594 260.132812 168.390625 260.089844 168.59375 260.007812 C 168.792969 259.925781 168.96875 259.808594 169.121094 259.65625 C 169.273438 259.5 169.394531 259.324219 169.476562 259.125 C 169.558594 258.925781 169.601562 258.71875 169.601562 258.5 C 169.601562 258.285156 169.558594 258.078125 169.476562 257.875 C 169.394531 257.675781 169.273438 257.5 169.121094 257.347656 C 168.96875 257.195312 168.792969 257.074219 168.59375 256.992188 C 168.390625 256.910156 168.183594 256.867188 167.96875 256.867188 Z M 134.855469 256.867188 " fill-opacity="1" fill-rule="nonzero"/><path fill="#e6e6e6" d="M 134.855469 266.484375 C 134.636719 266.484375 134.429688 266.523438 134.230469 266.609375 C 134.03125 266.691406 133.851562 266.808594 133.699219 266.960938 C 133.546875 267.113281 133.429688 267.289062 133.347656 267.492188 C 133.261719 267.691406 133.222656 267.898438 133.222656 268.117188 C 133.222656 268.332031 133.261719 268.539062 133.347656 268.738281 C 133.429688 268.941406 133.546875 269.117188 133.699219 269.269531 C 133.851562 269.421875 134.03125 269.539062 134.230469 269.625 C 134.429688 269.707031 134.636719 269.746094 134.855469 269.746094 L 167.96875 269.746094 C 168.183594 269.746094 168.390625 269.707031 168.59375 269.625 C 168.792969 269.539062 168.96875 269.421875 169.121094 269.269531 C 169.273438 269.117188 169.394531 268.941406 169.476562 268.738281 C 169.558594 268.539062 169.601562 268.332031 169.601562 268.117188 C 169.601562 267.898438 169.558594 267.691406 169.476562 267.492188 C 169.394531 267.289062 169.273438 267.113281 169.121094 266.960938 C 168.96875 266.808594 168.792969 266.691406 168.59375 266.609375 C 168.390625 266.523438 168.183594 266.484375 167.96875 266.484375 Z M 134.855469 266.484375 " fill-opacity="1" fill-rule="nonzero"/><path fill="#e6e6e6" d="M 151.410156 296.976562 C 150.738281 296.976562 150.070312 296.910156 149.40625 296.78125 C 148.746094 296.648438 148.101562 296.453125 147.480469 296.195312 C 146.855469 295.9375 146.265625 295.621094 145.703125 295.246094 C 145.140625 294.871094 144.621094 294.445312 144.144531 293.96875 C 143.667969 293.492188 143.242188 292.972656 142.867188 292.410156 C 142.492188 291.851562 142.175781 291.257812 141.917969 290.636719 C 141.660156 290.011719 141.464844 289.371094 141.332031 288.710938 C 141.203125 288.046875 141.136719 287.378906 141.136719 286.707031 C 141.136719 286.03125 141.203125 285.363281 141.332031 284.703125 C 141.464844 284.039062 141.660156 283.398438 141.917969 282.773438 C 142.175781 282.152344 142.492188 281.558594 142.867188 281 C 143.242188 280.4375 143.667969 279.917969 144.144531 279.441406 C 144.621094 278.964844 145.140625 278.539062 145.703125 278.164062 C 146.265625 277.789062 146.855469 277.472656 147.480469 277.214844 C 148.101562 276.957031 148.746094 276.761719 149.40625 276.628906 C 150.066406 276.5 150.738281 276.433594 151.410156 276.433594 C 152.085938 276.433594 152.753906 276.5 153.414062 276.628906 C 154.078125 276.761719 154.71875 276.957031 155.34375 277.214844 C 155.964844 277.472656 156.558594 277.789062 157.121094 278.164062 C 157.679688 278.539062 158.199219 278.964844 158.675781 279.441406 C 159.152344 279.917969 159.578125 280.4375 159.953125 281 C 160.328125 281.558594 160.644531 282.152344 160.902344 282.773438 C 161.160156 283.398438 161.355469 284.039062 161.488281 284.703125 C 161.621094 285.363281 161.6875 286.03125 161.6875 286.707031 C 161.683594 287.378906 161.617188 288.046875 161.488281 288.707031 C 161.355469 289.371094 161.160156 290.011719 160.902344 290.632812 C 160.640625 291.257812 160.324219 291.847656 159.949219 292.410156 C 159.574219 292.96875 159.148438 293.488281 158.671875 293.964844 C 158.195312 294.441406 157.675781 294.867188 157.117188 295.242188 C 156.554688 295.617188 155.964844 295.933594 155.339844 296.191406 C 154.71875 296.449219 154.078125 296.644531 153.414062 296.777344 C 152.753906 296.910156 152.085938 296.976562 151.410156 296.976562 Z M 151.410156 277.394531 C 150.800781 277.394531 150.195312 277.453125 149.59375 277.574219 C 148.996094 277.691406 148.414062 277.871094 147.847656 278.101562 C 147.28125 278.335938 146.746094 278.625 146.238281 278.964844 C 145.730469 279.304688 145.257812 279.6875 144.824219 280.121094 C 144.394531 280.554688 144.007812 281.023438 143.667969 281.53125 C 143.328125 282.039062 143.042969 282.578125 142.808594 283.140625 C 142.574219 283.707031 142.394531 284.289062 142.277344 284.890625 C 142.15625 285.488281 142.097656 286.09375 142.097656 286.707031 C 142.097656 287.316406 142.15625 287.921875 142.277344 288.523438 C 142.394531 289.121094 142.574219 289.703125 142.808594 290.269531 C 143.042969 290.832031 143.328125 291.371094 143.667969 291.878906 C 144.007812 292.386719 144.394531 292.855469 144.824219 293.289062 C 145.257812 293.722656 145.730469 294.105469 146.238281 294.445312 C 146.746094 294.785156 147.28125 295.074219 147.847656 295.308594 C 148.414062 295.539062 148.996094 295.71875 149.59375 295.835938 C 150.195312 295.957031 150.800781 296.015625 151.410156 296.015625 C 152.023438 296.015625 152.628906 295.957031 153.226562 295.835938 C 153.828125 295.71875 154.410156 295.539062 154.976562 295.308594 C 155.539062 295.074219 156.078125 294.785156 156.585938 294.445312 C 157.09375 294.105469 157.5625 293.722656 157.996094 293.289062 C 158.429688 292.855469 158.816406 292.386719 159.15625 291.878906 C 159.496094 291.371094 159.78125 290.832031 160.015625 290.269531 C 160.25 289.703125 160.425781 289.121094 160.546875 288.523438 C 160.664062 287.921875 160.722656 287.316406 160.722656 286.707031 C 160.722656 286.09375 160.664062 285.488281 160.542969 284.890625 C 160.421875 284.289062 160.246094 283.707031 160.011719 283.144531 C 159.777344 282.578125 159.492188 282.042969 159.152344 281.535156 C 158.8125 281.027344 158.425781 280.558594 157.992188 280.125 C 157.5625 279.691406 157.089844 279.308594 156.582031 278.96875 C 156.074219 278.628906 155.539062 278.339844 154.972656 278.105469 C 154.410156 277.871094 153.828125 277.695312 153.226562 277.574219 C 152.628906 277.457031 152.023438 277.394531 151.410156 277.394531 Z M 151.410156 277.394531 " fill-opacity="1" fill-rule="nonzero"/><path fill="#e6e6e6" d="M 239.136719 296.976562 C 239.351562 296.976562 239.5625 296.9375 239.761719 296.851562 C 239.960938 296.769531 240.136719 296.652344 240.289062 296.5 C 240.445312 296.347656 240.5625 296.167969 240.644531 295.96875 C 240.726562 295.769531 240.769531 295.5625 240.769531 295.34375 C 240.769531 295.128906 240.726562 294.921875 240.644531 294.722656 C 240.5625 294.519531 240.445312 294.34375 240.289062 294.191406 C 240.136719 294.039062 239.960938 293.921875 239.761719 293.835938 C 239.5625 293.753906 239.351562 293.714844 239.136719 293.714844 L 206.023438 293.714844 C 205.804688 293.714844 205.597656 293.753906 205.398438 293.835938 C 205.199219 293.921875 205.023438 294.039062 204.867188 294.191406 C 204.714844 294.34375 204.597656 294.519531 204.515625 294.722656 C 204.433594 294.921875 204.390625 295.128906 204.390625 295.34375 C 204.390625 295.5625 204.433594 295.769531 204.515625 295.96875 C 204.597656 296.167969 204.714844 296.347656 204.867188 296.5 C 205.023438 296.652344 205.199219 296.769531 205.398438 296.851562 C 205.597656 296.9375 205.804688 296.976562 206.023438 296.976562 Z M 239.136719 296.976562 " fill-opacity="1" fill-rule="nonzero"/><path fill="#e6e6e6" d="M 239.136719 287.363281 C 239.351562 287.363281 239.5625 287.320312 239.761719 287.238281 C 239.960938 287.15625 240.136719 287.039062 240.289062 286.882812 C 240.445312 286.730469 240.5625 286.554688 240.644531 286.355469 C 240.726562 286.15625 240.769531 285.945312 240.769531 285.730469 C 240.769531 285.515625 240.726562 285.304688 240.644531 285.105469 C 240.5625 284.90625 240.445312 284.730469 240.289062 284.578125 C 240.136719 284.421875 239.960938 284.304688 239.761719 284.222656 C 239.5625 284.140625 239.351562 284.097656 239.136719 284.097656 L 206.023438 284.097656 C 205.804688 284.097656 205.597656 284.140625 205.398438 284.222656 C 205.199219 284.304688 205.023438 284.421875 204.867188 284.578125 C 204.714844 284.730469 204.597656 284.90625 204.515625 285.105469 C 204.433594 285.304688 204.390625 285.515625 204.390625 285.730469 C 204.390625 285.945312 204.433594 286.15625 204.515625 286.355469 C 204.597656 286.554688 204.714844 286.730469 204.867188 286.882812 C 205.023438 287.039062 205.199219 287.15625 205.398438 287.238281 C 205.597656 287.320312 205.804688 287.363281 206.023438 287.363281 Z M 239.136719 287.363281 " fill-opacity="1" fill-rule="nonzero"/><path fill="#e6e6e6" d="M 222.578125 256.867188 C 223.253906 256.867188 223.921875 256.933594 224.585938 257.066406 C 225.246094 257.199219 225.886719 257.394531 226.511719 257.652344 C 227.136719 257.910156 227.726562 258.226562 228.289062 258.601562 C 228.847656 258.976562 229.367188 259.402344 229.84375 259.878906 C 230.320312 260.355469 230.746094 260.875 231.121094 261.433594 C 231.496094 261.996094 231.8125 262.585938 232.070312 263.210938 C 232.332031 263.832031 232.523438 264.476562 232.65625 265.136719 C 232.789062 265.796875 232.855469 266.464844 232.855469 267.140625 C 232.855469 267.816406 232.789062 268.484375 232.65625 269.144531 C 232.523438 269.804688 232.332031 270.449219 232.070312 271.070312 C 231.8125 271.695312 231.496094 272.285156 231.121094 272.847656 C 230.746094 273.410156 230.320312 273.925781 229.84375 274.402344 C 229.367188 274.882812 228.847656 275.308594 228.289062 275.683594 C 227.726562 276.054688 227.136719 276.371094 226.511719 276.632812 C 225.886719 276.890625 225.246094 277.082031 224.585938 277.214844 C 223.921875 277.347656 223.253906 277.414062 222.578125 277.414062 C 221.90625 277.414062 221.238281 277.347656 220.574219 277.214844 C 219.914062 277.082031 219.269531 276.890625 218.648438 276.632812 C 218.023438 276.371094 217.433594 276.054688 216.871094 275.683594 C 216.308594 275.308594 215.792969 274.882812 215.3125 274.402344 C 214.835938 273.925781 214.410156 273.410156 214.035156 272.847656 C 213.660156 272.285156 213.34375 271.695312 213.085938 271.070312 C 212.828125 270.449219 212.632812 269.804688 212.503906 269.144531 C 212.371094 268.484375 212.304688 267.816406 212.304688 267.140625 C 212.304688 266.464844 212.371094 265.800781 212.503906 265.136719 C 212.636719 264.476562 212.832031 263.835938 213.089844 263.210938 C 213.347656 262.589844 213.664062 261.996094 214.039062 261.4375 C 214.414062 260.875 214.839844 260.359375 215.316406 259.878906 C 215.792969 259.402344 216.3125 258.976562 216.875 258.605469 C 217.433594 258.230469 218.027344 257.914062 218.648438 257.652344 C 219.273438 257.394531 219.914062 257.199219 220.574219 257.066406 C 221.238281 256.9375 221.90625 256.871094 222.578125 256.867188 Z M 222.578125 276.453125 C 223.191406 276.453125 223.796875 276.390625 224.394531 276.273438 C 224.996094 276.152344 225.578125 275.976562 226.144531 275.742188 C 226.707031 275.507812 227.246094 275.222656 227.753906 274.882812 C 228.261719 274.542969 228.734375 274.15625 229.164062 273.722656 C 229.597656 273.292969 229.984375 272.820312 230.324219 272.3125 C 230.664062 271.804688 230.949219 271.269531 231.183594 270.703125 C 231.417969 270.140625 231.59375 269.558594 231.714844 268.957031 C 231.832031 268.359375 231.894531 267.753906 231.894531 267.140625 C 231.894531 266.53125 231.832031 265.925781 231.714844 265.324219 C 231.59375 264.726562 231.417969 264.144531 231.183594 263.578125 C 230.949219 263.011719 230.664062 262.476562 230.324219 261.96875 C 229.984375 261.460938 229.597656 260.988281 229.164062 260.558594 C 228.734375 260.125 228.261719 259.738281 227.753906 259.398438 C 227.246094 259.058594 226.707031 258.773438 226.144531 258.539062 C 225.578125 258.304688 224.996094 258.128906 224.394531 258.007812 C 223.796875 257.890625 223.191406 257.832031 222.578125 257.832031 C 221.96875 257.832031 221.363281 257.890625 220.761719 258.007812 C 220.164062 258.128906 219.582031 258.304688 219.015625 258.539062 C 218.449219 258.773438 217.914062 259.058594 217.40625 259.398438 C 216.898438 259.738281 216.425781 260.125 215.996094 260.558594 C 215.5625 260.988281 215.175781 261.460938 214.835938 261.96875 C 214.496094 262.476562 214.210938 263.011719 213.976562 263.578125 C 213.742188 264.144531 213.566406 264.726562 213.445312 265.324219 C 213.324219 265.925781 213.265625 266.53125 213.265625 267.140625 C 213.265625 267.753906 213.328125 268.355469 213.445312 268.957031 C 213.566406 269.554688 213.742188 270.136719 213.976562 270.703125 C 214.210938 271.265625 214.5 271.804688 214.839844 272.3125 C 215.179688 272.820312 215.566406 273.289062 215.996094 273.722656 C 216.429688 274.152344 216.898438 274.539062 217.40625 274.878906 C 217.917969 275.21875 218.453125 275.503906 219.015625 275.738281 C 219.582031 275.972656 220.164062 276.152344 220.761719 276.269531 C 221.363281 276.390625 221.96875 276.449219 222.578125 276.453125 Z M 222.578125 276.453125 " fill-opacity="1" fill-rule="nonzero"/><path fill="#ffb8b8" d="M 327.285156 347.847656 L 319.855469 347.847656 L 316.320312 319.199219 L 327.285156 319.199219 Z M 327.285156 347.847656 " fill-opacity="1" fill-rule="nonzero"/><g clip-path="url(#b001b377f3)"><path fill="#2f2e41" d="M 312.359375 345.726562 L 328.875 345.726562 L 328.875 354.746094 L 305.527344 354.746094 L 305.527344 352.554688 C 305.527344 352.109375 305.570312 351.664062 305.660156 351.222656 C 305.746094 350.785156 305.875 350.355469 306.046875 349.941406 C 306.21875 349.527344 306.429688 349.132812 306.679688 348.761719 C 306.929688 348.386719 307.210938 348.042969 307.527344 347.726562 C 307.84375 347.410156 308.191406 347.125 308.5625 346.875 C 308.9375 346.628906 309.332031 346.417969 309.746094 346.246094 C 310.160156 346.074219 310.585938 345.945312 311.027344 345.855469 C 311.46875 345.769531 311.910156 345.726562 312.359375 345.726562 Z M 312.359375 345.726562 " fill-opacity="1" fill-rule="nonzero"/></g><path fill="#ffb8b8" d="M 356.976562 347.847656 L 349.550781 347.847656 L 346.015625 319.199219 L 356.980469 319.199219 Z M 356.976562 347.847656 " fill-opacity="1" fill-rule="nonzero"/><g clip-path="url(#6c5f6f30d0)"><path fill="#2f2e41" d="M 342.054688 345.726562 L 358.570312 345.726562 L 358.570312 354.746094 L 335.222656 354.746094 L 335.222656 352.554688 C 335.222656 352.109375 335.265625 351.664062 335.351562 351.222656 C 335.441406 350.785156 335.570312 350.355469 335.742188 349.941406 C 335.914062 349.527344 336.121094 349.132812 336.371094 348.761719 C 336.621094 348.386719 336.90625 348.042969 337.222656 347.726562 C 337.539062 347.410156 337.882812 347.125 338.257812 346.875 C 338.628906 346.628906 339.023438 346.417969 339.4375 346.246094 C 339.851562 346.074219 340.28125 345.945312 340.71875 345.855469 C 341.160156 345.769531 341.605469 345.726562 342.054688 345.726562 Z M 342.054688 345.726562 " fill-opacity="1" fill-rule="nonzero"/></g><path fill="#ffb8b8" d="M 314.339844 265.261719 C 314.644531 264.976562 314.914062 264.664062 315.148438 264.320312 C 315.378906 263.976562 315.574219 263.613281 315.730469 263.226562 C 315.882812 262.84375 315.996094 262.445312 316.0625 262.035156 C 316.128906 261.625 316.148438 261.214844 316.128906 260.796875 C 316.105469 260.382812 316.035156 259.976562 315.921875 259.578125 C 315.808594 259.175781 315.65625 258.792969 315.460938 258.429688 C 315.261719 258.0625 315.027344 257.722656 314.757812 257.410156 C 314.484375 257.09375 314.183594 256.8125 313.851562 256.5625 L 317.035156 243.980469 L 309.855469 240.179688 L 305.609375 258.015625 C 305.421875 258.308594 305.261719 258.613281 305.128906 258.933594 C 304.996094 259.253906 304.894531 259.582031 304.820312 259.921875 C 304.746094 260.261719 304.707031 260.601562 304.695312 260.949219 C 304.683594 261.296875 304.707031 261.640625 304.757812 261.984375 C 304.808594 262.328125 304.894531 262.660156 305.007812 262.988281 C 305.121094 263.316406 305.261719 263.632812 305.433594 263.933594 C 305.605469 264.234375 305.800781 264.519531 306.023438 264.785156 C 306.246094 265.050781 306.488281 265.292969 306.757812 265.515625 C 307.023438 265.738281 307.308594 265.933594 307.609375 266.101562 C 307.914062 266.273438 308.226562 266.414062 308.554688 266.523438 C 308.882812 266.636719 309.21875 266.71875 309.5625 266.769531 C 309.90625 266.820312 310.25 266.839844 310.597656 266.828125 C 310.945312 266.816406 311.285156 266.773438 311.625 266.699219 C 311.964844 266.625 312.292969 266.523438 312.613281 266.390625 C 312.933594 266.253906 313.238281 266.09375 313.527344 265.902344 C 313.820312 265.714844 314.089844 265.5 314.339844 265.261719 Z M 314.339844 265.261719 " fill-opacity="1" fill-rule="nonzero"/><path fill="#2f2e41" d="M 359.621094 243.277344 L 359.015625 285.6875 L 358.410156 341.421875 L 345.078125 340.210938 L 338.410156 263.269531 L 329.925781 340.210938 L 316.164062 340.210938 L 314.777344 262.664062 L 319.625 245.703125 Z M 359.621094 243.277344 " fill-opacity="1" fill-rule="nonzero"/><path fill="#3f3d56" d="M 318.296875 245.960938 L 318.101562 245.875 L 325.699219 193.917969 L 321.835938 178.214844 C 321.734375 177.804688 321.710938 177.394531 321.761719 176.976562 C 321.8125 176.558594 321.9375 176.164062 322.132812 175.792969 C 322.332031 175.417969 322.585938 175.09375 322.902344 174.816406 C 323.21875 174.539062 323.574219 174.324219 323.96875 174.175781 L 330.917969 171.570312 L 333.371094 164.820312 L 352.742188 166.910156 L 353.21875 172.183594 C 355.320312 172.855469 372.605469 178.613281 371.414062 185.171875 C 370.238281 191.644531 363.285156 212.007812 362.933594 213.039062 L 361.714844 242.246094 L 361.566406 242.320312 C 361.386719 242.410156 348.03125 248.976562 333.527344 248.972656 C 328.417969 248.972656 323.164062 248.160156 318.296875 245.960938 Z M 318.296875 245.960938 " fill-opacity="1" fill-rule="nonzero"/><path fill="#3f3d56" d="M 305.359375 251.414062 L 311.464844 212.335938 C 311.503906 212.109375 315.117188 189.230469 316.316406 182.042969 C 317.550781 174.621094 323.296875 174.535156 323.355469 174.535156 L 326.519531 174.535156 L 330.21875 191.175781 L 322.929688 224.566406 L 316.207031 252.234375 Z M 305.359375 251.414062 " fill-opacity="1" fill-rule="nonzero"/><path fill="#ffb8b8" d="M 344.976562 247.558594 C 344.996094 247.144531 345.058594 246.734375 345.167969 246.335938 C 345.277344 245.933594 345.429688 245.550781 345.621094 245.183594 C 345.816406 244.816406 346.046875 244.472656 346.3125 244.15625 C 346.582031 243.839844 346.882812 243.554688 347.210938 243.304688 C 347.542969 243.050781 347.898438 242.839844 348.273438 242.667969 C 348.652344 242.492188 349.042969 242.363281 349.449219 242.273438 C 349.855469 242.1875 350.265625 242.144531 350.683594 242.144531 C 351.097656 242.148438 351.507812 242.195312 351.914062 242.289062 L 359.425781 231.699219 L 366.976562 234.695312 L 356.152344 249.5 C 356.054688 249.832031 355.925781 250.152344 355.769531 250.460938 C 355.613281 250.769531 355.425781 251.0625 355.214844 251.335938 C 355.007812 251.613281 354.773438 251.867188 354.515625 252.097656 C 354.257812 252.332031 353.980469 252.539062 353.6875 252.722656 C 353.390625 252.902344 353.082031 253.058594 352.761719 253.183594 C 352.4375 253.3125 352.105469 253.40625 351.765625 253.472656 C 351.425781 253.539062 351.082031 253.574219 350.734375 253.578125 C 350.386719 253.578125 350.042969 253.550781 349.703125 253.492188 C 349.359375 253.433594 349.027344 253.34375 348.703125 253.222656 C 348.375 253.105469 348.066406 252.957031 347.765625 252.777344 C 347.46875 252.601562 347.1875 252.398438 346.925781 252.171875 C 346.664062 251.945312 346.425781 251.695312 346.210938 251.421875 C 345.996094 251.152344 345.804688 250.863281 345.640625 250.558594 C 345.476562 250.253906 345.34375 249.933594 345.238281 249.605469 C 345.132812 249.273438 345.058594 248.9375 345.011719 248.59375 C 344.96875 248.25 344.957031 247.902344 344.976562 247.558594 Z M 344.976562 247.558594 " fill-opacity="1" fill-rule="nonzero"/><path fill="#3f3d56" d="M 353.21875 238.453125 L 366.578125 215.988281 L 361.136719 201.476562 L 368.550781 181.710938 L 368.824219 181.828125 C 369 181.90625 373.214844 183.785156 373.839844 190.515625 L 382.359375 217.285156 L 359.621094 246.773438 Z M 353.21875 238.453125 " fill-opacity="1" fill-rule="nonzero"/><path fill="#ffb8b8" d="M 348.988281 135.300781 C 349.792969 135.742188 350.546875 136.253906 351.25 136.839844 C 351.949219 137.429688 352.589844 138.078125 353.164062 138.792969 C 353.738281 139.503906 354.238281 140.265625 354.660156 141.078125 C 355.085938 141.890625 355.425781 142.734375 355.683594 143.613281 C 355.941406 144.492188 356.109375 145.386719 356.191406 146.300781 C 356.273438 147.210938 356.265625 148.125 356.167969 149.035156 C 356.066406 149.945312 355.882812 150.835938 355.609375 151.710938 C 355.332031 152.582031 354.976562 153.421875 354.539062 154.226562 C 354.097656 155.027344 353.585938 155.78125 352.996094 156.484375 C 352.410156 157.1875 351.757812 157.824219 351.046875 158.398438 C 350.332031 158.972656 349.570312 159.472656 348.757812 159.894531 C 347.945312 160.320312 347.101562 160.660156 346.222656 160.917969 C 345.34375 161.175781 344.449219 161.34375 343.535156 161.425781 C 342.625 161.507812 341.710938 161.5 340.800781 161.398438 C 339.890625 161.300781 339 161.117188 338.125 160.839844 C 337.25 160.566406 336.410156 160.210938 335.609375 159.773438 C 334.804688 159.332031 334.050781 158.820312 333.347656 158.230469 C 332.648438 157.644531 332.007812 156.996094 331.433594 156.28125 C 330.859375 155.566406 330.359375 154.804688 329.9375 153.992188 C 329.511719 153.183594 329.171875 152.335938 328.914062 151.457031 C 328.65625 150.582031 328.488281 149.683594 328.40625 148.773438 C 328.324219 147.859375 328.332031 146.949219 328.429688 146.039062 C 328.53125 145.128906 328.714844 144.238281 328.988281 143.363281 C 329.265625 142.488281 329.621094 141.652344 330.058594 140.847656 C 330.5 140.042969 331.011719 139.292969 331.601562 138.589844 C 332.1875 137.886719 332.839844 137.25 333.550781 136.675781 C 334.265625 136.101562 335.027344 135.601562 335.839844 135.175781 C 336.652344 134.753906 337.496094 134.414062 338.375 134.15625 C 339.253906 133.898438 340.148438 133.726562 341.0625 133.648438 C 341.972656 133.566406 342.886719 133.574219 343.796875 133.671875 C 344.707031 133.769531 345.597656 133.957031 346.472656 134.230469 C 347.347656 134.503906 348.183594 134.863281 348.988281 135.300781 Z M 348.988281 135.300781 " fill-opacity="1" fill-rule="nonzero"/><path fill="#2f2e41" d="M 332.933594 140.746094 C 334.378906 142.453125 336.820312 142.933594 339.074219 143.132812 C 343.652344 143.535156 350.308594 142.882812 354.785156 141.851562 C 355.101562 144.945312 354.230469 148.28125 356.054688 150.824219 C 356.914062 147.734375 357.40625 144.585938 357.535156 141.378906 C 357.589844 140.011719 357.570312 138.59375 357.011719 137.335938 C 356.457031 136.078125 355.242188 135.007812 353.84375 135 C 354.898438 134.199219 356.078125 133.691406 357.386719 133.484375 L 352.957031 131.257812 L 354.09375 130.089844 L 346.078125 129.601562 L 348.398438 128.125 C 344.894531 127.644531 341.378906 127.535156 337.847656 127.792969 C 336.214844 127.914062 334.507812 128.144531 333.183594 129.089844 C 331.859375 130.035156 331.09375 131.917969 331.917969 133.304688 C 330.871094 133.476562 329.933594 133.894531 329.101562 134.550781 C 328.269531 135.210938 327.652344 136.03125 327.25 137.007812 C 326.660156 138.503906 326.710938 140.167969 326.894531 141.761719 C 327.199219 144.316406 327.785156 146.808594 328.660156 149.230469 " fill-opacity="1" fill-rule="nonzero"/><g clip-path="url(#650c7b8383)"><path fill="#ffffff" d="M 281.25 96.019531 L 393.75 96.019531 L 393.75 354.859375 L 281.25 354.859375 Z M 281.25 96.019531 " fill-opacity="1" fill-rule="nonzero"/></g><g clip-path="url(#f7f68fecc6)"><path fill="#ffffff" d="M 12.132812 352.203125 L 367.871094 352.203125 L 367.871094 365.078125 L 12.132812 365.078125 Z M 12.132812 352.203125 " fill-opacity="1" fill-rule="nonzero"/></g><g clip-path="url(#3764ba1dbf)"><path stroke-linecap="butt" transform="matrix(0.75, 0, 0, 0.75, 12.268379, 352.201822)" fill="none" stroke-linejoin="miter" d="M 0.00153679 0.0017367 L 473.949485 0.0017367 L 473.949485 17.157988 L 0.00153679 17.157988 Z M 0.00153679 0.0017367 " stroke="#ffffff" stroke-width="8" stroke-opacity="1" stroke-miterlimit="4"/></g></svg>