<svg xmlns="http://www.w3.org/2000/svg" xmlns:xlink="http://www.w3.org/1999/xlink" width="500" zoomAndPan="magnify" viewBox="0 0 375 374.999991" height="500" preserveAspectRatio="xMidYMid meet" version="1.0"><defs><g/><clipPath id="39ae6ba8d6"><path d="M 46.96875 196.863281 L 337.5 196.863281 L 337.5 285.308594 L 46.96875 285.308594 Z M 46.96875 196.863281 " clip-rule="nonzero"/></clipPath><clipPath id="f188b1d8f2"><path d="M 5.894531 5.894531 L 369.105469 5.894531 L 369.105469 369.105469 L 5.894531 369.105469 Z M 5.894531 5.894531 " clip-rule="nonzero"/></clipPath><clipPath id="f4f31b30f6"><path d="M 187.5 5.894531 C 87.203125 5.894531 5.894531 87.203125 5.894531 187.5 C 5.894531 287.796875 87.203125 369.105469 187.5 369.105469 C 287.796875 369.105469 369.105469 287.796875 369.105469 187.5 C 369.105469 87.203125 287.796875 5.894531 187.5 5.894531 Z M 187.5 5.894531 " clip-rule="nonzero"/></clipPath><clipPath id="32d06f18cb"><path d="M 5.894531 5.894531 L 368.894531 5.894531 L 368.894531 368.894531 L 5.894531 368.894531 Z M 5.894531 5.894531 " clip-rule="nonzero"/></clipPath><clipPath id="df94fff881"><path d="M 187.5 5.894531 C 87.203125 5.894531 5.894531 87.203125 5.894531 187.5 C 5.894531 287.796875 87.203125 369.105469 187.5 369.105469 C 287.796875 369.105469 369.105469 287.796875 369.105469 187.5 C 369.105469 87.203125 287.796875 5.894531 187.5 5.894531 Z M 187.5 5.894531 " clip-rule="nonzero"/></clipPath><clipPath id="5da2093eca"><path d="M 59.171875 71.070312 L 333.335938 71.070312 L 333.335938 169.507812 L 59.171875 169.507812 Z M 59.171875 71.070312 " clip-rule="nonzero"/></clipPath><clipPath id="734689a7de"><path d="M 196.234375 71.070312 L 333.300781 169.507812 L 59.171875 169.507812 Z M 196.234375 71.070312 " clip-rule="nonzero"/></clipPath></defs><g clip-path="url(#39ae6ba8d6)"><path fill="#ffffff" d="M 46.96875 196.863281 L 337.523438 196.863281 L 337.523438 285.308594 L 46.96875 285.308594 Z M 46.96875 196.863281 " fill-opacity="1" fill-rule="nonzero"/></g><g clip-path="url(#f188b1d8f2)"><g clip-path="url(#f4f31b30f6)"><path fill="#ffffff" d="M 5.894531 5.894531 L 369.105469 5.894531 L 369.105469 369.105469 L 5.894531 369.105469 Z M 5.894531 5.894531 " fill-opacity="1" fill-rule="nonzero"/></g></g><g clip-path="url(#32d06f18cb)"><g clip-path="url(#df94fff881)"><path stroke-linecap="butt" transform="matrix(0.75, 0, 0, 0.75, 5.893874, 5.893869)" fill="none" stroke-linejoin="miter" d="M 242.141517 0.000882396 C 108.412342 0.000882396 0.000876396 108.412348 0.000876396 242.141523 C 0.000876396 375.870699 108.412342 484.282164 242.141517 484.282164 C 375.870693 484.282164 484.282158 375.870699 484.282158 242.141523 C 484.282158 108.412348 375.870693 0.000882396 242.141517 0.000882396 Z M 242.141517 0.000882396 " stroke="#0097f5" stroke-width="8" stroke-opacity="1" stroke-miterlimit="4"/></g></g><g clip-path="url(#5da2093eca)"><g clip-path="url(#734689a7de)"><path fill="#0097f5" d="M 59.171875 71.070312 L 333.335938 71.070312 L 333.335938 169.507812 L 59.171875 169.507812 Z M 59.171875 71.070312 " fill-opacity="1" fill-rule="nonzero"/></g></g><g fill="#000000" fill-opacity="1"><g transform="translate(59.171101, 242.297842)"><g><path d="M 31.765625 -5.203125 L 31.765625 0 L 5.84375 0 L 5.84375 -45.703125 L 11.984375 -45.703125 L 11.984375 -5.203125 Z M 31.765625 -5.203125 "/></g></g></g><g fill="#000000" fill-opacity="1"><g transform="translate(91.921836, 242.297842)"><g><path d="M 26.125 -19.671875 C 26.125 -20.992188 25.9375 -22.203125 25.5625 -23.296875 C 25.1875 -24.390625 24.640625 -25.332031 23.921875 -26.125 C 23.210938 -26.925781 22.347656 -27.546875 21.328125 -27.984375 C 20.304688 -28.421875 19.148438 -28.640625 17.859375 -28.640625 C 15.140625 -28.640625 12.988281 -27.847656 11.40625 -26.265625 C 9.820312 -24.679688 8.835938 -22.484375 8.453125 -19.671875 Z M 30.703125 -4.53125 C 30.003906 -3.675781 29.164062 -2.9375 28.1875 -2.3125 C 27.207031 -1.6875 26.160156 -1.171875 25.046875 -0.765625 C 23.929688 -0.359375 22.773438 -0.0546875 21.578125 0.140625 C 20.390625 0.347656 19.210938 0.453125 18.046875 0.453125 C 15.816406 0.453125 13.757812 0.078125 11.875 -0.671875 C 10 -1.429688 8.375 -2.539062 7 -4 C 5.625 -5.457031 4.550781 -7.257812 3.78125 -9.40625 C 3.019531 -11.550781 2.640625 -14.019531 2.640625 -16.8125 C 2.640625 -19.0625 2.984375 -21.160156 3.671875 -23.109375 C 4.367188 -25.066406 5.363281 -26.765625 6.65625 -28.203125 C 7.957031 -29.640625 9.539062 -30.765625 11.40625 -31.578125 C 13.28125 -32.398438 15.390625 -32.8125 17.734375 -32.8125 C 19.671875 -32.8125 21.460938 -32.488281 23.109375 -31.84375 C 24.753906 -31.195312 26.175781 -30.257812 27.375 -29.03125 C 28.582031 -27.8125 29.523438 -26.300781 30.203125 -24.5 C 30.878906 -22.707031 31.21875 -20.664062 31.21875 -18.375 C 31.21875 -17.476562 31.117188 -16.878906 30.921875 -16.578125 C 30.734375 -16.285156 30.375 -16.140625 29.84375 -16.140625 L 8.265625 -16.140625 C 8.328125 -14.097656 8.609375 -12.320312 9.109375 -10.8125 C 9.609375 -9.300781 10.300781 -8.039062 11.1875 -7.03125 C 12.082031 -6.019531 13.144531 -5.265625 14.375 -4.765625 C 15.613281 -4.265625 17 -4.015625 18.53125 -4.015625 C 19.957031 -4.015625 21.1875 -4.175781 22.21875 -4.5 C 23.25 -4.832031 24.132812 -5.191406 24.875 -5.578125 C 25.613281 -5.960938 26.234375 -6.316406 26.734375 -6.640625 C 27.234375 -6.972656 27.664062 -7.140625 28.03125 -7.140625 C 28.5 -7.140625 28.859375 -6.957031 29.109375 -6.59375 Z M 30.703125 -4.53125 "/></g></g></g><g fill="#000000" fill-opacity="1"><g transform="translate(125.597374, 242.297842)"><g><path d="M 10.484375 -32.3125 L 10.484375 0 L 4.8125 0 L 4.8125 -32.3125 Z M 11.703125 -42.453125 C 11.703125 -41.898438 11.585938 -41.382812 11.359375 -40.90625 C 11.140625 -40.425781 10.84375 -40 10.46875 -39.625 C 10.101562 -39.25 9.671875 -38.953125 9.171875 -38.734375 C 8.671875 -38.523438 8.144531 -38.421875 7.59375 -38.421875 C 7.039062 -38.421875 6.523438 -38.523438 6.046875 -38.734375 C 5.566406 -38.953125 5.144531 -39.25 4.78125 -39.625 C 4.414062 -40 4.128906 -40.425781 3.921875 -40.90625 C 3.710938 -41.382812 3.609375 -41.898438 3.609375 -42.453125 C 3.609375 -43.003906 3.710938 -43.53125 3.921875 -44.03125 C 4.128906 -44.53125 4.414062 -44.960938 4.78125 -45.328125 C 5.144531 -45.703125 5.566406 -45.992188 6.046875 -46.203125 C 6.523438 -46.421875 7.039062 -46.53125 7.59375 -46.53125 C 8.144531 -46.53125 8.671875 -46.421875 9.171875 -46.203125 C 9.671875 -45.992188 10.101562 -45.703125 10.46875 -45.328125 C 10.84375 -44.960938 11.140625 -44.53125 11.359375 -44.03125 C 11.585938 -43.53125 11.703125 -43.003906 11.703125 -42.453125 Z M 11.703125 -42.453125 "/></g></g></g><g fill="#000000" fill-opacity="1"><g transform="translate(140.904442, 242.297842)"><g><path d="M 10.484375 -32.3125 L 10.484375 2.390625 C 10.484375 3.691406 10.3125 4.898438 9.96875 6.015625 C 9.632812 7.128906 9.09375 8.097656 8.34375 8.921875 C 7.601562 9.753906 6.65625 10.410156 5.5 10.890625 C 4.34375 11.367188 2.957031 11.609375 1.34375 11.609375 C 0.65625 11.609375 0.0234375 11.554688 -0.546875 11.453125 C -1.117188 11.347656 -1.691406 11.1875 -2.265625 10.96875 L -2.046875 7.90625 C -2.003906 7.71875 -1.929688 7.570312 -1.828125 7.46875 C -1.734375 7.375 -1.601562 7.316406 -1.4375 7.296875 C -1.269531 7.273438 -1.050781 7.269531 -0.78125 7.28125 C -0.507812 7.289062 -0.175781 7.296875 0.21875 7.296875 C 1.875 7.296875 3.050781 6.90625 3.75 6.125 C 4.457031 5.351562 4.8125 4.109375 4.8125 2.390625 L 4.8125 -32.3125 Z M 11.671875 -42.453125 C 11.671875 -41.898438 11.554688 -41.382812 11.328125 -40.90625 C 11.109375 -40.425781 10.8125 -40 10.4375 -39.625 C 10.070312 -39.25 9.644531 -38.953125 9.15625 -38.734375 C 8.664062 -38.523438 8.144531 -38.421875 7.59375 -38.421875 C 7.039062 -38.421875 6.523438 -38.523438 6.046875 -38.734375 C 5.566406 -38.953125 5.144531 -39.25 4.78125 -39.625 C 4.414062 -40 4.128906 -40.425781 3.921875 -40.90625 C 3.710938 -41.382812 3.609375 -41.898438 3.609375 -42.453125 C 3.609375 -43.003906 3.710938 -43.53125 3.921875 -44.03125 C 4.128906 -44.53125 4.414062 -44.960938 4.78125 -45.328125 C 5.144531 -45.703125 5.566406 -45.992188 6.046875 -46.203125 C 6.523438 -46.421875 7.039062 -46.53125 7.59375 -46.53125 C 8.144531 -46.53125 8.664062 -46.421875 9.15625 -46.203125 C 9.644531 -45.992188 10.070312 -45.703125 10.4375 -45.328125 C 10.8125 -44.960938 11.109375 -44.53125 11.328125 -44.03125 C 11.554688 -43.53125 11.671875 -43.003906 11.671875 -42.453125 Z M 11.671875 -42.453125 "/></g></g></g><g fill="#000000" fill-opacity="1"><g transform="translate(156.211511, 242.297842)"><g><path d="M 26.125 -19.671875 C 26.125 -20.992188 25.9375 -22.203125 25.5625 -23.296875 C 25.1875 -24.390625 24.640625 -25.332031 23.921875 -26.125 C 23.210938 -26.925781 22.347656 -27.546875 21.328125 -27.984375 C 20.304688 -28.421875 19.148438 -28.640625 17.859375 -28.640625 C 15.140625 -28.640625 12.988281 -27.847656 11.40625 -26.265625 C 9.820312 -24.679688 8.835938 -22.484375 8.453125 -19.671875 Z M 30.703125 -4.53125 C 30.003906 -3.675781 29.164062 -2.9375 28.1875 -2.3125 C 27.207031 -1.6875 26.160156 -1.171875 25.046875 -0.765625 C 23.929688 -0.359375 22.773438 -0.0546875 21.578125 0.140625 C 20.390625 0.347656 19.210938 0.453125 18.046875 0.453125 C 15.816406 0.453125 13.757812 0.078125 11.875 -0.671875 C 10 -1.429688 8.375 -2.539062 7 -4 C 5.625 -5.457031 4.550781 -7.257812 3.78125 -9.40625 C 3.019531 -11.550781 2.640625 -14.019531 2.640625 -16.8125 C 2.640625 -19.0625 2.984375 -21.160156 3.671875 -23.109375 C 4.367188 -25.066406 5.363281 -26.765625 6.65625 -28.203125 C 7.957031 -29.640625 9.539062 -30.765625 11.40625 -31.578125 C 13.28125 -32.398438 15.390625 -32.8125 17.734375 -32.8125 C 19.671875 -32.8125 21.460938 -32.488281 23.109375 -31.84375 C 24.753906 -31.195312 26.175781 -30.257812 27.375 -29.03125 C 28.582031 -27.8125 29.523438 -26.300781 30.203125 -24.5 C 30.878906 -22.707031 31.21875 -20.664062 31.21875 -18.375 C 31.21875 -17.476562 31.117188 -16.878906 30.921875 -16.578125 C 30.734375 -16.285156 30.375 -16.140625 29.84375 -16.140625 L 8.265625 -16.140625 C 8.328125 -14.097656 8.609375 -12.320312 9.109375 -10.8125 C 9.609375 -9.300781 10.300781 -8.039062 11.1875 -7.03125 C 12.082031 -6.019531 13.144531 -5.265625 14.375 -4.765625 C 15.613281 -4.265625 17 -4.015625 18.53125 -4.015625 C 19.957031 -4.015625 21.1875 -4.175781 22.21875 -4.5 C 23.25 -4.832031 24.132812 -5.191406 24.875 -5.578125 C 25.613281 -5.960938 26.234375 -6.316406 26.734375 -6.640625 C 27.234375 -6.972656 27.664062 -7.140625 28.03125 -7.140625 C 28.5 -7.140625 28.859375 -6.957031 29.109375 -6.59375 Z M 30.703125 -4.53125 "/></g></g></g><g fill="#000000" fill-opacity="1"><g transform="translate(189.887049, 242.297842)"><g><path d="M 9.859375 -27.625 C 10.554688 -28.40625 11.296875 -29.113281 12.078125 -29.75 C 12.867188 -30.382812 13.703125 -30.929688 14.578125 -31.390625 C 15.460938 -31.847656 16.398438 -32.195312 17.390625 -32.4375 C 18.378906 -32.6875 19.445312 -32.8125 20.59375 -32.8125 C 22.363281 -32.8125 23.921875 -32.519531 25.265625 -31.9375 C 26.617188 -31.351562 27.75 -30.523438 28.65625 -29.453125 C 29.5625 -28.378906 30.242188 -27.085938 30.703125 -25.578125 C 31.171875 -24.066406 31.40625 -22.394531 31.40625 -20.5625 L 31.40625 0 L 25.703125 0 L 25.703125 -20.5625 C 25.703125 -23.007812 25.144531 -24.90625 24.03125 -26.25 C 22.914062 -27.601562 21.21875 -28.28125 18.9375 -28.28125 C 17.257812 -28.28125 15.691406 -27.875 14.234375 -27.0625 C 12.773438 -26.257812 11.429688 -25.171875 10.203125 -23.796875 L 10.203125 0 L 4.5 0 L 4.5 -32.3125 L 7.90625 -32.3125 C 8.71875 -32.3125 9.21875 -31.914062 9.40625 -31.125 Z M 9.859375 -27.625 "/></g></g></g><g fill="#000000" fill-opacity="1"><g transform="translate(225.475958, 242.297842)"><g><path d="M 25.546875 -24.625 C 24.484375 -26.039062 23.332031 -27.03125 22.09375 -27.59375 C 20.863281 -28.164062 19.484375 -28.453125 17.953125 -28.453125 C 14.953125 -28.453125 12.644531 -27.375 11.03125 -25.21875 C 9.414062 -23.070312 8.609375 -20.015625 8.609375 -16.046875 C 8.609375 -13.941406 8.785156 -12.140625 9.140625 -10.640625 C 9.503906 -9.140625 10.035156 -7.90625 10.734375 -6.9375 C 11.441406 -5.96875 12.304688 -5.257812 13.328125 -4.8125 C 14.347656 -4.363281 15.507812 -4.140625 16.8125 -4.140625 C 18.675781 -4.140625 20.304688 -4.566406 21.703125 -5.421875 C 23.097656 -6.273438 24.378906 -7.476562 25.546875 -9.03125 Z M 31.21875 -46.96875 L 31.21875 0 L 27.84375 0 C 27.03125 0 26.519531 -0.394531 26.3125 -1.1875 L 25.796875 -5.109375 C 24.421875 -3.441406 22.847656 -2.097656 21.078125 -1.078125 C 19.316406 -0.0546875 17.273438 0.453125 14.953125 0.453125 C 13.109375 0.453125 11.429688 0.0976562 9.921875 -0.609375 C 8.410156 -1.328125 7.125 -2.378906 6.0625 -3.765625 C 5 -5.148438 4.179688 -6.867188 3.609375 -8.921875 C 3.035156 -10.984375 2.75 -13.359375 2.75 -16.046875 C 2.75 -18.421875 3.066406 -20.632812 3.703125 -22.6875 C 4.335938 -24.738281 5.25 -26.519531 6.4375 -28.03125 C 7.632812 -29.539062 9.097656 -30.722656 10.828125 -31.578125 C 12.554688 -32.441406 14.503906 -32.875 16.671875 -32.875 C 18.648438 -32.875 20.347656 -32.539062 21.765625 -31.875 C 23.179688 -31.207031 24.441406 -30.273438 25.546875 -29.078125 L 25.546875 -46.96875 Z M 31.21875 -46.96875 "/></g></g></g><g fill="#000000" fill-opacity="1"><g transform="translate(261.192438, 242.297842)"><g><path d="M 22 -14.546875 C 19.382812 -14.460938 17.15625 -14.253906 15.3125 -13.921875 C 13.476562 -13.585938 11.984375 -13.15625 10.828125 -12.625 C 9.671875 -12.09375 8.832031 -11.460938 8.3125 -10.734375 C 7.789062 -10.015625 7.53125 -9.210938 7.53125 -8.328125 C 7.53125 -7.472656 7.664062 -6.738281 7.9375 -6.125 C 8.21875 -5.507812 8.597656 -5.003906 9.078125 -4.609375 C 9.554688 -4.210938 10.117188 -3.921875 10.765625 -3.734375 C 11.410156 -3.554688 12.109375 -3.46875 12.859375 -3.46875 C 13.847656 -3.46875 14.757812 -3.566406 15.59375 -3.765625 C 16.425781 -3.972656 17.207031 -4.269531 17.9375 -4.65625 C 18.664062 -5.039062 19.363281 -5.5 20.03125 -6.03125 C 20.707031 -6.5625 21.363281 -7.164062 22 -7.84375 Z M 3.671875 -27.75 C 5.453125 -29.46875 7.375 -30.75 9.4375 -31.59375 C 11.5 -32.445312 13.785156 -32.875 16.296875 -32.875 C 18.097656 -32.875 19.703125 -32.578125 21.109375 -31.984375 C 22.515625 -31.390625 23.695312 -30.5625 24.65625 -29.5 C 25.613281 -28.4375 26.332031 -27.148438 26.8125 -25.640625 C 27.300781 -24.128906 27.546875 -22.472656 27.546875 -20.671875 L 27.546875 0 L 25.03125 0 C 24.476562 0 24.050781 -0.0859375 23.75 -0.265625 C 23.457031 -0.453125 23.226562 -0.8125 23.0625 -1.34375 L 22.421875 -4.40625 C 21.566406 -3.613281 20.734375 -2.914062 19.921875 -2.3125 C 19.117188 -1.707031 18.269531 -1.195312 17.375 -0.78125 C 16.488281 -0.363281 15.539062 -0.046875 14.53125 0.171875 C 13.519531 0.398438 12.394531 0.515625 11.15625 0.515625 C 9.90625 0.515625 8.726562 0.335938 7.625 -0.015625 C 6.519531 -0.367188 5.554688 -0.894531 4.734375 -1.59375 C 3.921875 -2.289062 3.273438 -3.175781 2.796875 -4.25 C 2.316406 -5.332031 2.078125 -6.601562 2.078125 -8.0625 C 2.078125 -9.34375 2.425781 -10.570312 3.125 -11.75 C 3.820312 -12.925781 4.957031 -13.972656 6.53125 -14.890625 C 8.101562 -15.804688 10.15625 -16.554688 12.6875 -17.140625 C 15.21875 -17.722656 18.320312 -18.054688 22 -18.140625 L 22 -20.671875 C 22 -23.171875 21.457031 -25.0625 20.375 -26.34375 C 19.289062 -27.632812 17.707031 -28.28125 15.625 -28.28125 C 14.21875 -28.28125 13.039062 -28.101562 12.09375 -27.75 C 11.15625 -27.40625 10.335938 -27.015625 9.640625 -26.578125 C 8.953125 -26.140625 8.359375 -25.742188 7.859375 -25.390625 C 7.359375 -25.046875 6.863281 -24.875 6.375 -24.875 C 5.988281 -24.875 5.65625 -24.972656 5.375 -25.171875 C 5.101562 -25.378906 4.875 -25.628906 4.6875 -25.921875 Z M 3.671875 -27.75 "/></g></g></g><g fill="#000000" fill-opacity="1"><g transform="translate(292.8908, 242.297842)"><g><path d="M 10.203125 -46.96875 L 10.203125 -19.328125 L 11.671875 -19.328125 C 12.097656 -19.328125 12.453125 -19.382812 12.734375 -19.5 C 13.023438 -19.613281 13.332031 -19.851562 13.65625 -20.21875 L 23.859375 -31.15625 C 24.148438 -31.519531 24.460938 -31.800781 24.796875 -32 C 25.128906 -32.207031 25.570312 -32.3125 26.125 -32.3125 L 31.25 -32.3125 L 19.359375 -19.640625 C 18.785156 -18.921875 18.171875 -18.359375 17.515625 -17.953125 C 17.890625 -17.703125 18.226562 -17.410156 18.53125 -17.078125 C 18.84375 -16.742188 19.140625 -16.367188 19.421875 -15.953125 L 32.046875 0 L 26.984375 0 C 26.492188 0 26.070312 -0.078125 25.71875 -0.234375 C 25.363281 -0.398438 25.0625 -0.691406 24.8125 -1.109375 L 14.1875 -14.34375 C 13.875 -14.789062 13.5625 -15.082031 13.25 -15.21875 C 12.9375 -15.363281 12.460938 -15.4375 11.828125 -15.4375 L 10.203125 -15.4375 L 10.203125 0 L 4.5 0 L 4.5 -46.96875 Z M 10.203125 -46.96875 "/></g></g></g></svg>